<svg width="213" height="216" viewBox="0 0 213 216" fill="none" xmlns="http://www.w3.org/2000/svg">
<path d="M111.209 60.4103C111.168 60.3941 111.143 60.4575 111.185 60.47C117.571 62.948 124.716 64.98 131.476 62.6685C135.919 61.1485 139.235 57.7143 139.271 52.8081C139.309 47.7433 132.544 38.6714 127.47 44.7798C123.205 49.9138 131.785 56.3427 135.472 51.6226C135.733 52.4555 135.718 53.4079 135.236 54.6799C134.442 55.8025 133.658 56.8431 132.764 57.7619C131.605 58.6279 130.243 59.2665 128.981 59.7163C124.3 61.3884 119.023 60.9596 114.277 59.7787C114.235 59.7662 114.225 59.8355 114.265 59.8428C118.358 60.8731 122.772 61.6937 126.954 61.1061C123.277 62.1742 118.99 62.3404 115.385 61.3741C115.374 61.3696 115.371 61.386 115.379 61.389C118.873 62.4496 124.313 62.5977 128.929 61.2411C127.789 61.8857 126.513 62.3512 124.993 62.5261C124.984 62.5269 124.986 62.5448 124.995 62.544C127.521 62.4655 129.894 61.4852 131.976 60.0439C132.49 59.7814 132.98 59.4921 133.443 59.1747C132.652 59.9619 131.745 60.6043 130.777 61.3169C130.77 61.3228 130.771 61.3318 130.784 61.3325C131.096 61.2621 131.434 61.15 131.788 61.0095C125.557 64.2947 117.447 62.7696 111.206 60.4178L111.209 60.4103Z" fill="#CE726F"/>
<path d="M140.008 78.2843C140.194 77.9439 140.17 77.4723 139.84 77.1604C139.824 77.1456 139.803 77.133 139.789 77.1144C141.369 73.9639 136.111 69.0322 133.876 67.4391C129.452 64.2795 123.943 63.815 118.674 63.6827C118.656 63.6843 118.653 63.7133 118.673 63.717C123.413 64.3905 128.336 64.9724 132.172 68.0155C131.906 67.88 131.643 67.7497 131.399 67.6231C128.66 66.2359 125.822 65.4137 122.772 65.0945C122.761 65.0901 122.757 65.1102 122.766 65.1095C125.683 65.6996 128.505 66.714 131.019 68.3226C131.07 68.356 131.115 68.3953 131.166 68.4287C127.98 66.6442 124.427 65.7977 120.892 64.9153C120.873 64.9079 120.865 64.9392 120.88 64.9451C124.55 66.1743 128.355 67.5178 131.441 69.9143C132.167 70.4782 132.844 71.1004 133.48 71.7622C132.877 71.2471 132.282 70.787 131.77 70.4028C129.423 68.6357 126.803 67.3605 123.988 66.5346C123.981 66.5316 123.975 66.5465 123.982 66.5495C126.656 67.5786 129.117 69.0152 131.258 70.9209C130.315 70.2623 129.326 69.6762 128.272 69.22C128.257 69.214 128.241 69.2335 128.256 69.2483C129.511 70.1555 130.704 71.1112 131.774 72.2217C131.101 71.709 130.436 71.1777 129.759 70.642C126.807 68.2986 123.406 66.0104 119.81 64.8235C119.751 64.7998 119.682 64.885 119.747 64.928C123.045 67.227 126.224 69.3237 129.167 72.0388C127.165 70.7624 125.1 69.5472 123.408 67.8673C123.377 67.8376 123.329 67.8832 123.353 67.9189C123.711 68.4535 124.139 68.955 124.604 69.4371C123.775 68.7074 122.957 67.9605 122.17 67.1911C122.158 67.1778 122.133 67.198 122.148 67.2128C123.169 68.3726 126.414 72.5368 129.563 75.0702C129.293 74.9549 129.028 74.8284 128.763 74.6802C127.146 73.7721 125.949 72.5123 124.813 71.0653C124.807 71.0586 124.797 71.0631 124.801 71.0735C125.605 72.924 127.083 74.5323 128.771 75.6198C128.918 75.7169 129.078 75.8148 129.244 75.9193C126.74 74.8412 125.257 72.3633 123.568 69.7088C120.787 65.3314 116.823 62.6561 111.701 61.7924C111.681 61.7888 111.677 61.8216 111.697 61.8252C115.225 62.5065 118.482 64.2884 120.819 67.0488C122.574 69.1249 123.459 71.7285 124.875 74.0032C124.658 73.7878 124.44 73.5761 124.255 73.3346C123.773 72.7118 123.412 72.0207 123.066 71.314C123.059 71.2984 123.032 71.3007 123.038 71.3201C123.204 72.055 123.56 72.977 124.059 73.7533C122.609 72.0219 121.748 68.4958 120.652 67.2543C118.812 65.1658 115.72 63.6002 113.074 62.8929C113.066 62.8899 113.061 62.9049 113.068 62.9078C114.954 63.5513 116.995 64.6533 118.537 65.903C120.766 67.7055 121.174 69.8263 122.153 72.355C122.919 74.3331 124.426 76.3802 126.751 76.3821C126.751 76.3821 126.751 76.3821 126.755 76.3836C127.718 77.3088 128.847 78.0107 130.191 78.3319C132.928 78.9844 135.819 77.7774 138.387 79.1831C139.185 79.6201 139.874 79.0038 140.01 78.2895L140.008 78.2843ZM128.857 72.9176C128.778 72.8561 128.697 72.7893 128.616 72.7314C128.998 73.0081 129.372 73.2855 129.732 73.5533C129.838 73.6342 129.952 73.718 130.065 73.8018C129.649 73.5119 129.245 73.2137 128.857 72.9176Z" fill="#CE726F"/>
<path d="M146.891 69.4181C147.027 69.2604 147.092 69.062 147.107 68.8608C147.746 68.3713 148.338 67.812 148.873 67.2469C149.971 66.089 150.87 64.7664 152.027 63.6664C153.092 62.6554 154.29 62.1589 155.548 61.4446C156.322 61.0046 156.333 60.094 155.952 59.412C156.008 58.8559 155.774 58.2584 155.086 57.8605C151.354 55.7001 147.282 55.9342 143.299 57.3044C139.876 58.4819 135.395 59.8143 133.242 62.9495C133.231 62.9667 133.254 62.9845 133.269 62.9688C134.3 61.8924 135.676 61.0994 137.169 60.4998C136.304 61.081 135.529 61.7407 134.913 62.511C134.911 62.5185 134.917 62.5252 134.922 62.5229C136.63 61.2401 138.478 60.453 140.491 59.7742C140.72 59.6967 140.949 59.6192 141.177 59.5454C138.924 60.5693 136.82 61.8378 135.132 62.865C135.125 62.871 135.133 62.8829 135.138 62.8806C137.344 61.9202 139.532 60.875 141.809 60.085C140.502 60.7801 139.334 61.6037 138.445 62.4769C138.442 62.4844 138.45 62.4963 138.457 62.4903C140.768 60.7949 143.261 59.8961 146.087 59.5268C146.292 59.5 146.498 59.4822 146.707 59.4659C144.846 59.9587 143.024 60.5921 141.261 61.4042C139.581 62.1803 138.013 63.0007 136.14 63.2171C134.339 63.4272 132.895 63.2048 131.197 63.9176C131.181 63.9243 131.184 63.9512 131.205 63.9511C134.297 63.2165 137.201 64.2329 140.337 63.2009C140.963 62.9954 141.585 62.7973 142.201 62.6053C141.637 62.9044 141.089 63.2222 140.591 63.6076C140.588 63.6151 140.585 63.6225 140.597 63.6232C141.452 63.4699 142.463 63.1968 143.491 62.823C143.365 62.8898 143.24 62.9654 143.112 63.027C139.977 64.4912 136.79 63.6255 133.515 64.2228C133.477 64.2296 133.481 64.287 133.52 64.2854C136.96 64.0556 140.037 64.9939 143.281 63.7887C141.473 64.7038 139.559 65.1759 137.41 64.9803C137.402 64.9774 137.396 64.9923 137.404 64.9953C137.92 65.1306 138.445 65.2094 138.98 65.2441C137.694 65.2223 136.369 64.9607 134.987 64.5473C134.969 64.5399 134.961 64.5712 134.976 64.5771C138.733 66.6093 142.457 66.1513 146.083 64.8121C145.967 64.9302 145.852 65.0446 145.732 65.1523C143.511 66.422 140.998 66.8506 138.235 66.4164C138.227 66.4135 138.222 66.4284 138.229 66.4314C139.921 66.9548 141.609 67.0624 143.264 66.8289C142.73 67.0967 142.174 67.3467 141.576 67.602C141.561 67.6088 141.565 67.6319 141.577 67.6326C143.245 67.8789 145.008 67.0235 146.339 66.0057C146.426 65.9712 146.518 65.9254 146.606 65.8871C144.827 67.621 142.624 68.6082 139.822 67.3128C139.774 67.2936 139.748 67.357 139.794 67.3837C141.419 68.3685 143.074 68.4845 144.646 68.0583C144.579 68.1054 144.517 68.1541 144.451 68.2012C143.834 68.4835 143.14 68.6445 142.335 68.6188C139.526 68.5291 137.968 66.2847 135.528 65.1759C133.436 64.2261 131.278 64.1483 129.051 64.5089C129.028 64.5127 129.036 64.5462 129.055 64.5409C133.399 64.1338 135.785 66.3568 138.921 68.7599C137.318 67.9694 135.825 66.8775 134.28 65.9721C134.273 65.9691 134.265 65.9788 134.275 65.987C134.931 66.4975 135.906 67.2848 137.009 68.0502C136.79 67.9071 136.571 67.7729 136.358 67.6455C134.562 66.6015 132.724 65.6531 130.793 64.8839C130.781 64.8794 130.775 64.8944 130.787 64.8988C132.88 66.0863 134.986 67.2529 136.932 68.68C138.093 69.5323 139.276 70.968 140.644 71.5015C142.893 72.3837 145.437 71.095 146.892 69.4144L146.891 69.4181ZM137.997 68.7048C139.328 69.5297 140.764 70.2194 142.043 70.3247C142.135 70.3438 142.229 70.3554 142.319 70.3692C140.81 70.4622 139.344 69.5878 137.999 68.7011L137.997 68.7048Z" fill="#CE726F"/>
<path d="M152.959 38.3552C153.717 37.6411 153.619 36.014 152.266 35.7801C152.169 35.7633 152.072 35.7465 151.975 35.7296C151.478 35.6449 151.022 35.8267 150.707 36.1638C150.678 36.1609 150.645 36.1566 150.615 36.1574C149.122 36.1661 147.571 37.3687 146.271 38.373C144.869 38.5342 143.425 39.0844 142.652 39.6198C139.782 41.6032 138.763 45.0149 138.795 48.3552C138.797 48.382 138.837 48.3804 138.842 48.3566C139.215 45.988 139.886 43.4098 141.699 41.754C141.357 42.1926 141.087 42.7203 140.85 43.429C140.841 43.4513 140.87 43.4758 140.888 43.4527C141.221 43.0581 141.454 42.5678 141.807 42.1896C142.039 41.9407 142.303 41.7647 142.581 41.6199C142.245 42.0093 141.927 42.4097 141.637 42.8258C139.565 45.8333 138.752 49.8144 140.351 53.1972C140.358 53.2128 140.381 53.209 140.379 53.1911C140.134 50.543 140.445 48.0681 141.63 45.8831C141.074 47.0913 140.608 48.3872 140.687 49.679C140.684 49.6865 140.701 49.6886 140.702 49.6849C141.254 48.1943 141.856 46.8704 142.571 45.5439C141.796 47.3259 141.248 49.2017 141.064 51.2008C141.047 51.3968 141.344 51.5188 141.419 51.3069C142.076 49.4739 142.827 47.6995 143.912 46.0923C143.909 46.0998 143.905 46.111 143.902 46.1184C142.978 48.4933 141.981 50.8475 140.987 53.1943C140.982 53.2055 140.997 53.2114 141.002 53.2002C142.209 50.9466 143.421 48.6945 144.699 46.4816C144.821 46.2711 144.947 46.062 145.08 45.847C143.994 48.9474 142.608 51.8037 141.009 54.7397C140.948 54.8494 141.115 54.9502 141.193 54.8516C142.799 52.8031 144.363 50.7293 145.636 48.4629C145.627 48.4852 145.62 48.5039 145.613 48.5225C144.343 51.4552 142.12 53.9498 140.421 56.6388C140.416 56.6499 140.426 56.6581 140.434 56.6484C143.397 52.5134 147.479 48.2346 148.156 43.1036C148.17 43.07 148.187 43.0379 148.204 43.0058C148.252 42.917 148.307 42.8311 148.356 42.7423C147.636 46.7819 146.34 50.2824 143.535 53.6471C143.512 53.6725 143.548 53.7126 143.578 53.6902C145.14 52.5263 146.606 51.0915 147.859 49.477C146.53 52.2959 144.16 54.1189 141.599 55.8323C141.589 55.8368 141.601 55.8502 141.607 55.8442C144.354 54.2047 147.034 52.4305 148.877 49.7725C147.432 53.4732 143.834 55.1036 140.481 57.1848C140.434 57.214 140.479 57.2876 140.526 57.2673C143.974 55.7417 148.005 54.4682 150.183 51.1705C152.672 47.4044 152.115 42.6217 152.959 38.3463L152.959 38.3552Z" fill="#CE726F"/>
<path d="M119.96 58.6935C117.103 59.1933 114.736 57.1722 112.086 59.0573C112.079 59.0633 112.087 59.0752 112.094 59.0692C114.999 57.3368 117.835 59.7855 120.759 59.4114C120.137 59.5752 119.411 59.6328 118.496 59.5896C117.177 59.5292 115.83 59.2587 114.519 59.1148C114.508 59.1103 114.505 59.1267 114.513 59.1297C116.769 59.6132 119.495 60.6414 121.766 59.8104C124.118 58.9509 125.834 56.7433 128.116 55.6575C128.813 55.3251 128.753 54.4728 128.29 54.1167C128.211 53.7831 127.989 53.5052 127.609 53.385C126.718 52.8679 125.778 52.6683 124.818 52.6939C124.226 50.5171 121.299 49.1803 119.194 49.7753C117.794 50.1704 116.972 51.2126 116.182 52.3672C114.731 54.4942 113.456 56.0997 111.273 57.5355C111.237 57.5602 111.272 57.6256 111.311 57.6024C113.241 56.5885 114.747 55.5105 116.075 53.7707C116.445 53.2829 116.84 52.7875 117.276 52.3516C115.425 54.4844 114.713 57.6335 110.877 58.0435C110.869 58.0442 110.87 58.0621 110.879 58.0613C113.253 57.9618 114.891 56.7805 116.387 54.9864C117.335 53.8469 118.069 52.4846 119.228 52.1626C118.259 52.7239 117.523 53.6667 117.023 54.6557C116.976 54.7535 117.114 54.8298 117.179 54.7521C117.855 53.9838 118.561 53.3444 119.449 53.0314C118.285 53.7268 117.333 54.7351 116.484 55.7886C116.466 55.8118 116.495 55.8363 116.514 55.8221C117.723 55.058 118.704 54.0182 120.123 53.5962C120.172 53.5812 120.222 53.575 120.274 53.5652C119.338 54.075 118.435 54.8611 117.688 55.4716C117.656 55.4978 117.681 55.5551 117.727 55.5386C117.844 55.4942 117.958 55.4447 118.076 55.3966C116.882 56.1576 115.762 56.9356 114.79 57.5044C114.783 57.5104 114.788 57.5208 114.798 57.5163C117.288 56.6034 119.575 55.2523 122.018 54.7523C121.997 54.7614 121.974 54.7741 121.954 54.7831C120.072 55.6649 118.129 56.5484 116.432 57.7619C116.425 57.7679 116.429 57.7783 116.44 57.7738C117.858 57.2222 119.237 56.5857 120.679 56.0951C120.011 56.4609 119.334 56.8186 118.721 57.2662C118.643 57.3216 118.69 57.4653 118.791 57.4493C118.988 57.4196 119.187 57.3772 119.382 57.3296C118.779 57.5783 118.163 57.8046 117.53 58.0504C117.49 58.0647 117.503 58.1302 117.548 58.1263C118.985 58.0053 120.312 57.5858 121.604 57.0271C120.94 57.7998 120.218 58.4334 119.272 58.3821C119.162 58.3773 119.134 58.5219 119.243 58.5521C120.298 58.8317 121.091 58.2784 121.913 57.7191C121.398 58.1798 120.779 58.5433 119.952 58.6906L119.96 58.6935Z" fill="#CE726F"/>
<path d="M79.1312 56.8489C74.7003 55.646 70.2259 54.1282 66.1229 52.054C66.0326 52.0096 65.9542 51.9569 65.8639 51.9125C68.885 52.9151 72.1858 53.5062 74.7259 55.0692C74.7446 55.0766 74.7587 55.052 74.7415 55.0409C72.4733 53.4777 70.0541 52.666 67.5172 51.6395C66.877 51.3816 66.2672 51.058 65.6691 50.7045C70.335 51.7717 74.4061 53.9153 78.5095 56.348C78.635 56.4235 78.7424 56.2287 78.6393 56.1404C75.635 53.5044 72.1846 51.5807 68.6155 49.8259C72.6743 50.9547 76.5234 52.678 80.0232 55.5449C80.0524 55.5694 80.094 55.5297 80.0715 55.4993C76.1896 49.9907 69.5001 47.4184 63.0938 45.0791C63.8603 45.236 64.6276 45.4018 65.398 45.5818C67.7828 46.1424 70.4644 46.553 72.6729 47.6351C74.7366 48.6468 76.5112 50.3339 78.1089 51.9552C78.1403 51.9849 78.1812 51.9363 78.1512 51.9029C75.1777 48.8518 72.1675 46.6666 68.5525 44.7986C69.3075 45.0718 70.0208 45.3414 70.6579 45.5852C74.8599 47.1807 78.1794 49.838 80.6397 53.5965C80.6584 53.6255 80.7082 53.5978 80.6947 53.5665C78.5468 49.1721 75.2336 45.9649 70.8813 43.7574C70.1656 43.3961 69.3199 42.9705 68.393 42.5429C71.35 42.8467 73.9885 44.1941 76.0577 46.3906C76.0853 46.4188 76.1366 46.3874 76.1119 46.3517C75.1197 45.0868 73.9989 43.9392 72.7527 42.9449C76.8572 45.2658 79.7804 48.858 83.3201 52.06C83.3492 52.0845 83.3856 52.0472 83.3683 52.0144C80.3431 46.8711 75.5029 41.3411 69.8071 39.1366C63.7518 36.7939 57.5163 39.0024 51.6065 40.7702C50.7997 40.5844 49.9603 40.4806 49.2005 40.7752C49.0646 40.6825 48.9286 40.5898 48.7883 40.5083C48.6442 40.4254 48.4816 40.607 48.5387 40.7461C48.5432 40.7565 48.5492 40.7632 48.5537 40.7736C48.4861 40.8461 48.4485 40.9521 48.4869 41.0838C48.8406 42.3375 49.5186 43.6549 50.4645 44.6554C51.9524 47.0662 52.7368 49.9235 54.4539 52.2351C56.2562 54.6583 58.5789 56.6833 61.2022 58.1671C66.967 61.4176 73.4133 61.4334 79.4679 59.0712C79.5081 59.0569 79.4848 58.9959 79.4446 59.0102C73.1876 61.0116 66.0634 59.9288 60.8556 55.8717C59.8373 55.0756 58.8947 54.1756 58.0457 53.1919C58.2675 53.3401 58.4922 53.481 58.7222 53.6196C59.6135 54.551 60.7062 55.3335 61.6276 55.9057C64.8227 57.8965 68.3745 59.1395 72.0695 59.7702C72.0896 59.7739 72.0925 59.7448 72.0739 59.7374C68.663 58.956 65.3108 57.6668 62.4686 55.5914C62.8328 55.7616 63.1985 55.928 63.5567 56.0915C68.1126 58.1337 72.8506 59.3891 77.8416 58.4917C77.9198 58.4795 77.9097 58.3633 77.8293 58.3703C72.2615 58.8061 65.504 56.3838 60.7387 52.3424C66.4237 55.5656 73.3713 57.3121 79.1165 57.1581C79.3036 57.1545 79.2826 56.8916 79.126 56.8511L79.1312 56.8489Z" fill="#CE726F"/>
<path d="M116.502 66.0596C112.523 62.1049 106.251 61.5193 101.245 63.7274C101.146 63.7702 101.187 63.9072 101.29 63.9091C106.568 63.8334 112.773 63.7837 115.885 68.9267C116.008 69.1267 116.107 69.3343 116.206 69.5419C113.867 66.6987 110.538 64.7285 107.182 65.2806C107.164 65.2822 107.161 65.3112 107.181 65.3149C110.152 65.4861 112.007 66.7735 113.389 68.5595C110.491 66.3195 106.988 65.782 103.125 65.7151C103.087 65.713 103.09 65.7704 103.125 65.78C105.488 66.3965 108.332 67.0614 110.327 68.5637C111.822 69.6913 112.57 71.1053 113.095 72.69C112.699 72.1839 112.275 71.6875 111.806 71.2256C109.096 68.5335 105.761 66.8196 101.903 66.8623C101.872 66.8631 101.865 66.9123 101.892 66.9227C104.582 67.8764 106.857 69.1743 108.607 71.0634C107.146 70.1219 105.543 69.3963 103.923 68.9315C103.853 68.9124 103.826 69.0227 103.888 69.0516C105.919 69.9941 107.775 71.2346 109.318 72.8427C107.229 71.4711 104.955 70.3677 102.68 69.3023C102.646 69.289 102.621 69.3308 102.646 69.3538C104.234 70.7292 105.878 72.1447 107.336 73.7062C106.307 73.0136 105.242 72.3674 104.138 71.8093C104.104 71.796 104.079 71.8378 104.105 71.8608C105.591 73.1747 107.108 74.4446 108.542 75.8154C105.651 74.0575 102.898 72.1725 101.055 69.2972C101.032 69.2667 100.982 69.2945 100.998 69.3309C102.117 71.9971 103.952 73.9887 105.985 75.7866C103.209 74.4278 100.843 72.7956 98.9271 69.9608C98.9046 69.9303 98.8638 69.9573 98.8721 69.9908C99.7576 73.2247 102.53 75.4665 105.09 77.4349C105.59 77.8185 106.1 78.1886 106.608 78.5624C103.881 77.3055 101.625 75.4189 99.7259 73.087C99.7139 73.0736 99.6901 73.0901 99.7006 73.1072C101.405 75.854 103.649 78.1975 106.33 80.0149C106.416 80.0705 106.5 80.1298 106.59 80.1869C102.468 78.2044 99.3255 74.5771 97.2326 70.6102C97.2153 70.5775 97.1654 70.5836 97.1708 70.6246C97.5967 74.1037 99.9062 77.5781 102.69 80.226C102.411 80.0593 102.14 79.8828 101.898 79.6966C100.292 78.4344 98.9397 76.8801 97.8111 75.1857C97.7737 75.1277 97.6755 75.1794 97.7011 75.2457C98.4675 76.9391 99.4769 78.4439 100.731 79.7996C99.1173 78.5345 97.7581 76.9429 96.7438 75.1125C96.7266 75.0798 96.6716 75.1098 96.6873 75.1462C99.0707 80.1777 102.734 83.0358 107.157 85.3578C106.852 85.3104 106.547 85.263 106.238 85.1925C99.7745 83.6633 95.6894 78.0139 94.9527 71.5932C94.9496 71.5574 94.8878 71.5502 94.8879 71.5934C94.6301 77.4086 97.4248 82.698 102.499 85.6661C105.172 87.2302 107.995 87.7745 111.059 87.8746C114.285 87.9786 118.374 89.1281 121.251 87.4882C121.797 87.1779 121.887 86.4064 121.617 85.8678C121.64 85.6009 121.604 85.3015 121.477 84.9666C119.161 78.8612 121.588 71.1342 116.5 66.076L116.502 66.0596Z" fill="#CE726F"/>
<path d="M91.7323 71.8669C91.6574 71.7293 91.4475 71.8016 91.5024 71.9571C93.1613 76.7362 96.0651 82.5349 95.39 87.6711C95.3769 87.7695 95.3563 87.865 95.341 87.9582C95.041 83.8125 93.6066 79.9812 92.0855 76.1071C92.0712 76.0669 92.0139 76.0917 92.0245 76.1304C93.0199 80.133 94.039 84.5334 93.5759 88.6876C93.4695 89.6208 93.2706 90.5261 93.0016 91.4122C93.051 90.383 93.0575 89.4188 93.0481 88.6036C93.0052 83.1009 91.6301 77.4201 90.4916 72.0573C90.4833 72.0238 90.4341 72.0173 90.432 72.0553C89.8043 76.6795 91.1003 81.2198 91.2208 85.8512C91.2492 87.0106 91.2046 88.1582 91.0922 89.292C90.5872 84.901 89.8873 80.5883 89.8494 76.1406C89.8478 76.1011 89.7867 76.1028 89.7846 76.1408C89.2616 79.9562 89.1798 83.5838 89.279 87.4299C89.3194 89.0385 89.267 90.5543 89.0157 92.0604C88.9317 90.7581 88.8513 89.4574 88.7903 88.1514C88.5533 83.1932 87.8235 77.7464 89.098 72.8951C89.1458 72.7198 88.8751 72.6514 88.8018 72.8036C86.6893 77.254 87.0253 82.6268 86.7709 87.442C86.7568 87.6954 86.7428 87.9488 86.7287 88.2022C86.4313 85.2487 86.2754 82.3081 86.6851 79.3456C86.6887 79.3254 86.6597 79.3226 86.6523 79.3412C85.8396 82.3513 85.6247 85.3781 85.6216 88.4801C85.623 88.8907 85.6072 89.3117 85.59 89.7365C85.5124 89.2569 85.4423 88.7802 85.3915 88.2983C84.8164 83.2019 85.5339 77.8062 87.3681 73.0126C87.3844 72.9716 87.3284 72.9494 87.3047 72.9875C84.6048 78.0597 83.479 83.462 83.7192 88.9134C83.5241 88.262 83.3676 87.6001 83.2715 86.9276C82.6036 82.3815 84.0581 78.1323 86.0261 74.1124C86.0409 74.0751 85.9938 74.0522 85.9708 74.0776C82.8599 77.4418 81.3915 82.0092 81.3351 86.5533C81.3325 86.8975 81.333 87.2775 81.3418 87.6695C80.7182 85.2342 80.5416 82.7602 81.6396 80.1954C81.6455 80.1805 81.626 80.1642 81.6112 80.1799C80.2765 81.9257 79.8674 84.6036 80.0986 87.3539C80.0835 87.3048 80.0633 87.2579 80.0497 87.2051C78.0364 80.2916 84.3299 75.8229 87.2227 70.2963C87.2346 70.2664 87.1994 70.2353 87.1742 70.2555C83.1324 73.8121 77.7228 79.2093 77.9083 85.0058C77.9791 87.2567 78.6978 89.3757 79.6657 91.3776C79.1801 90.5551 78.8313 89.6487 78.4341 88.7447C78.4138 88.6978 78.3677 88.7054 78.3417 88.7383C78.1646 88.1286 78.0194 87.4927 77.9099 86.8322C77.1615 82.293 78.5181 77.7245 82.1588 74.7773C82.1907 74.7511 82.1555 74.6983 82.1198 74.723C77.0873 78.1115 75.3695 83.4174 76.7489 89.2943C77.5056 92.516 79.8533 97.1578 83.3364 97.9204C84.3381 99.5646 85.4083 101.167 86.5793 102.645C86.6399 102.721 86.7102 102.783 86.7834 102.838C87.1209 103.511 87.5552 104.137 88.0519 104.713C88.103 104.846 88.1541 104.978 88.209 105.112C88.4575 105.694 89.4994 105.515 89.3451 104.837C89.3187 104.719 89.2997 104.603 89.2769 104.486C89.6514 103.715 89.9372 102.939 90.1595 102.138C93.4118 97.8072 97.1404 93.7337 97.485 88.0263C97.8345 82.2302 94.3649 76.7813 91.7271 71.8692L91.7323 71.8669Z" fill="#CE726F"/>
<path d="M81.2083 65.6823C81.2351 65.68 81.2491 65.6338 81.2192 65.6219C78.3629 64.6501 74.6591 64.5209 71.4871 65.4353C73.1165 64.6996 74.8077 64.1783 76.6286 64.1142C76.6629 64.1148 76.6649 64.0552 76.6307 64.0545C73.0174 63.577 67.4644 64.6402 65.2261 67.8063C64.724 68.5181 64.258 69.3132 63.8233 70.138C64.1704 69.1965 64.6122 68.2882 65.2197 67.4412C66.9997 64.9525 69.7197 63.2288 72.7448 62.7396C75.8482 62.2383 78.4351 63.3019 81.3534 64.0522C81.4309 64.0743 81.4954 63.9661 81.4415 63.9059C77.4617 59.1786 69.3878 60.4386 65.0582 63.9157C62.7596 65.7631 61.1384 68.2975 60.3222 71.1206C59.7233 73.1881 59.4421 75.347 59.0818 77.4659C58.9056 78.4881 58.6649 79.3897 58.6091 80.2826C58.5519 80.5578 58.5095 80.8172 58.4878 81.0244C58.406 81.743 58.4857 82.3918 58.6594 83.0864C58.8881 83.9798 59.14 84.2264 59.8578 84.7351C59.8727 84.7411 59.8914 84.7484 59.9025 84.7313C60.32 84.1241 60.4749 83.8747 60.5811 83.1053C60.5833 83.0889 60.5833 83.0673 60.5854 83.0509C60.7828 83.25 61.0352 83.3974 61.3133 83.4688C64.0197 84.1438 67.0434 83.2224 69.6715 82.5371C73.0217 81.6631 75.7513 80.1331 78.3061 77.8132C78.338 77.787 78.3028 77.7342 78.2672 77.7589C77.1609 78.5249 75.9566 79.1355 74.6952 79.6285C74.6967 79.6247 74.7056 79.624 74.7108 79.6217C79.4005 77.0771 81.5455 72.2943 85.4147 68.8464C85.535 68.7387 85.4381 68.4931 85.267 68.5764C80.6298 70.7706 78.1678 75.6565 73.3804 77.7178C72.5746 78.0633 71.7557 78.3 70.9336 78.4793C71.6106 78.1432 72.2577 77.7953 72.8618 77.4908C75.539 76.1257 77.8052 74.4252 79.7006 72.103C79.7251 72.0739 79.6855 72.0323 79.655 72.0547C77.8683 73.4489 75.7635 74.1861 73.6174 74.8207C76.8414 72.5112 80.2351 70.3941 83.5363 68.2058C83.5668 68.1834 83.539 68.1335 83.5026 68.1493C79.4331 70.098 75.4568 72.2692 71.3618 74.1516C71.3618 74.1516 71.3618 74.1516 71.3566 74.1539C71.4823 74.0871 71.6066 74.0241 71.73 73.9522C72.5577 73.4643 73.3016 72.8397 74.1225 72.3362C75.1569 71.6971 76.2854 71.376 77.197 70.5674C77.2104 70.5555 77.1991 70.5294 77.182 70.5399C76.2559 70.9931 75.2174 71.0651 74.2219 71.3009C76.0418 70.2479 78.1823 69.2788 79.6496 69.3119C79.6675 69.3103 79.6704 69.2813 79.6502 69.2776C77.7757 69.1177 75.3042 70.0722 73.295 71.0804C76.0067 69.5736 79.0348 68.6195 81.8464 67.3292C81.8776 67.3157 81.87 67.2695 81.832 67.2674C78.094 67.3663 74.3833 68.0716 71.0843 69.8076C72.4686 68.4051 74.2913 67.3015 76.1743 67.3093C76.2086 67.31 76.2091 67.2541 76.1763 67.2497C73.6586 66.8393 71.1044 68.4387 69.0416 69.7235C71.9226 66.2207 76.9923 66.1487 81.2172 65.6816L81.2083 65.6823Z" fill="#CE726F"/>
<path d="M82.6839 16.9815C82.7031 16.933 82.6783 16.8541 82.6149 16.8506C80.9478 16.7772 79.6511 17.4029 78.8747 18.524C78.8346 18.5599 78.7944 18.5958 78.7603 18.6384C75.3584 22.5736 76.0903 30.6843 76.9779 35.4167C78.09 41.3473 80.7824 46.3285 84.7793 50.795C84.8055 50.827 84.8598 50.788 84.8336 50.7561C81.145 46.4808 78.9223 40.8698 78.3381 35.2735C78.2872 34.77 78.2542 34.2649 78.2302 33.759C78.4076 34.9127 78.6356 36.0259 78.8595 37.0296C79.7378 40.9685 81.3621 44.5167 83.5632 47.8833C83.5737 47.9004 83.6027 47.8817 83.5885 47.8631C81.3157 44.2307 79.8102 40.121 79.3534 35.8484C79.3188 35.5326 79.3095 35.2182 79.2966 34.9023C79.3487 35.1085 79.3985 35.3095 79.4431 35.4912C80.6727 40.6785 82.3931 45.5639 86.0828 49.5202C86.1105 49.5484 86.1566 49.5192 86.1319 49.4835C83.2698 45.0177 82.3526 39.8808 82.0282 34.6637C82.018 34.5042 82.0092 34.3411 81.999 34.1817C82.9327 39.3424 84.3837 44.3195 87.9779 48.6912C87.9981 48.7165 88.045 48.6962 88.033 48.6613C86.449 44.9133 85.286 41.181 84.5122 37.2619C86.166 40.7138 87.3435 44.344 88.6017 48.0536C88.6137 48.0885 88.6591 48.072 88.6635 48.0392C88.6974 46.3737 88.0644 40.2142 86.7168 34.4968C86.7491 34.557 86.785 34.6188 86.821 34.6805C89.0384 38.8779 89.6859 43.3556 90.5045 47.9571C90.5113 47.9943 90.562 47.9971 90.5693 47.9569C91.2468 44.8846 91.145 41.6115 90.6844 38.438C91.4535 41.3885 91.8387 44.5019 91.9227 47.7981C91.9221 47.8324 91.9779 47.8329 91.9823 47.8001C92.4201 45.453 92.7398 43.0116 92.8383 40.5732C93.019 42.492 93.0485 44.4114 92.8196 46.3838C92.8159 46.404 92.8473 46.412 92.8524 46.3882C93.452 43.6433 93.8406 40.3746 93.7315 37.1634C94.4121 41.0455 93.9389 45.062 92.9717 49.0941C92.9636 49.1255 93.0084 49.1432 93.0276 49.1163C96.9054 43.7511 96.8725 36.0986 94.0989 30.2435C92.8135 27.5288 90.8882 25.1217 88.6202 23.1658C87.2571 21.9871 85.2547 20.3522 83.2563 19.6986C83.2283 19.5624 83.2002 19.4261 83.1641 19.2995C82.9258 18.4628 82.2882 17.8606 82.6876 16.9614L82.6839 16.9815Z" fill="#CE726F"/>
<path d="M122.577 32.2367C120.272 30.111 117.007 30.4229 114.448 31.9344C114.246 32.0528 114.035 32.1936 113.825 32.3433C113.325 32.3182 112.805 32.3579 112.277 32.4595C111.224 32.5129 110.379 32.597 110.253 32.6332C107.8 33.3231 105.565 34.6822 103.688 36.3904C99.7185 40.0056 97.4101 45.1682 95.7636 50.1743C95.7238 50.2967 95.8941 50.4332 95.9712 50.304C97.9124 47.2015 99.6686 43.8358 102.061 41.0544C100.241 44.395 98.9446 48.1586 97.6391 51.5086C97.6228 51.5496 97.6788 51.5718 97.6988 51.5322C99.118 48.9739 100.752 46.0259 102.764 43.4738C101.724 45.8155 100.925 48.2481 100.23 50.4374C100.217 50.471 100.261 50.5014 100.285 50.4722C101.805 48.8599 102.846 46.9161 104.068 45.0864C103.702 46.2277 103.391 47.3949 103.083 48.5636C103.07 48.6187 103.147 48.6319 103.172 48.5901C103.872 47.4432 104.57 46.2911 105.3 45.1561C103.697 48.4401 101.984 51.6327 98.8793 53.8472C98.8489 53.8696 98.8758 53.9105 98.9093 53.9022C102.259 52.7473 104.349 50.5325 106.207 47.846C105.974 48.3796 105.709 48.9088 105.389 49.421C104.636 50.6247 103.856 51.6451 103.291 52.9532C103.283 52.9719 103.312 52.9874 103.32 52.965C104.846 50.2246 107.14 48.41 108.391 45.4267C108.709 44.6678 109.148 43.7886 109.569 42.8677C109.487 43.1288 109.405 43.3899 109.32 43.6495C107.778 48.3907 106.127 53.8782 100.825 55.5933C100.79 55.6053 100.802 55.6619 100.839 55.6551C104.256 55.2562 106.732 53.5051 108.7 50.8794C108.236 51.986 107.675 53.0541 107.083 54.0799C107.075 54.0986 107.098 54.1075 107.111 54.0955C108.598 52.5526 109.832 50.8659 110.999 49.0968C109.619 53.4188 107.012 57.2545 102.034 56.5386C101.989 56.5335 101.983 56.5916 102.022 56.6027C105.757 57.6334 108.737 55.8188 110.979 53.1244C108.771 56.6607 105.461 59.2082 100.791 58.1179C100.756 58.1084 100.738 58.1658 100.772 58.1791C105.914 60.1344 110.691 57.512 113.587 53.1433C115.271 50.6034 116.268 47.7052 117.176 44.8237C117.778 42.9127 118.393 41.0545 119.06 39.217C119.514 38.3347 119.911 37.4392 120.136 36.557C120.16 36.463 120.172 36.3683 120.183 36.2737C120.446 35.6096 120.717 34.9485 121.005 34.2859C121.091 34.0911 121.125 33.9062 121.132 33.7273C121.607 33.3114 122.067 32.8807 122.471 32.4151C122.488 32.3957 122.474 32.3645 122.45 32.3593C122.439 32.3549 122.425 32.3579 122.409 32.3557C122.45 32.3504 122.491 32.345 122.529 32.3345C122.584 32.3261 122.602 32.2597 122.559 32.2256L122.577 32.2367Z" fill="#CE726F"/>
<path d="M96.9493 114.263C96.9172 114.246 96.8839 114.297 96.9145 114.318C99.5513 116.019 102.201 117.949 104.291 120.309C106.795 123.14 107.768 126.546 108.383 130.191C109.544 137.065 110.62 143.991 105.9 149.817C102.025 154.596 96.3447 158.695 90.0291 155.636C89.5947 155.425 89.1855 155.172 88.7971 154.889C89.1188 155.047 89.4539 155.192 89.7867 155.333C92.2662 156.363 93.9511 156.62 96.6255 155.992C96.6449 155.987 96.6426 155.96 96.6209 155.96C95.1779 156.04 93.9538 155.883 92.7432 155.507C93.1404 155.518 93.542 155.517 93.9466 155.487C96.0651 155.511 98.1919 155.11 100.111 154.395C100.127 154.388 100.124 154.361 100.103 154.361C99.1141 154.591 98.1356 154.773 97.1591 154.874C98.994 154.328 100.75 153.491 102.233 152.568C107.48 149.303 109.18 143.291 108.975 137.401C108.766 131.284 107.402 124.921 102.793 120.605C102.762 120.575 102.719 120.627 102.751 120.657C106.331 123.931 107.383 128.75 107.887 133.383C108.443 138.506 108.337 144.23 105.015 148.486C102.298 151.968 96.3354 154.807 91.8514 153.967C89.1672 153.465 87.4191 151.689 87.3356 149.187C88.3328 149.927 89.5575 150.3 90.9084 150.05C96.6611 148.984 96.1963 141.877 91.9344 139.278C87.3491 136.481 83.3474 140.416 82.5115 144.924C81.715 149.2 83.3199 153.876 86.7908 156.554C95.6389 163.374 107.09 155.092 110.315 146.222C112.461 140.314 110.871 133.063 109.194 127.228C107.285 120.576 102.633 117.533 96.9374 114.25L96.9493 114.263Z" fill="#CE726F"/>
<path d="M106.588 136.127C107.84 133.174 106.528 129.491 105.955 126.536C105.946 126.493 105.883 126.499 105.887 126.544C106.084 128.542 106.327 130.706 106.116 132.711C105.815 135.596 103.877 136.576 101.683 138.094C99.8497 139.366 98.5877 141.244 98.4445 143.436C97.9555 143.842 97.793 144.503 98.7531 145.043C101.828 146.771 106.243 145.377 107.147 141.842C107.155 141.811 107.112 141.799 107.091 141.82C106.184 142.726 105.222 143.346 104.207 143.664C104.348 143.569 104.484 143.476 104.61 143.388C105.789 142.556 106.552 141.481 107.291 140.268C107.314 140.234 107.252 140.205 107.228 140.243C106.505 141.48 105.257 142.44 103.957 143.009C103.82 143.071 103.673 143.116 103.527 143.158C105.03 142.022 106.068 140.383 106.892 138.509C106.908 138.468 106.849 138.444 106.829 138.484C105.991 140.206 104.415 141.852 102.615 142.822C102.794 142.665 102.958 142.514 103.094 142.377C103.137 142.334 103.177 142.286 103.221 142.242C103.442 142.097 103.664 141.952 103.875 141.811C104.379 141.475 104.908 141.12 105.302 140.65C105.84 140 106.063 139.152 106.563 138.478C106.583 138.451 106.551 138.412 106.52 138.435C105.941 138.905 105.494 139.422 104.849 139.81C104.985 139.531 105.117 139.243 105.25 138.95C105.266 138.909 105.206 138.885 105.186 138.925C105.039 139.285 104.84 139.625 104.611 139.953C104.506 140.011 104.397 140.067 104.287 140.127C104.474 139.83 104.665 139.534 104.886 139.259C105.617 138.349 106.365 137.441 107.134 136.559C107.149 136.543 107.122 136.524 107.107 136.539C105.858 137.732 104.486 138.798 103.342 140.094C102.911 140.583 102.49 140.938 101.996 141.226C102.51 140.385 103.154 139.622 104.065 138.869C105.114 138.007 106.026 137.427 106.571 136.137L106.588 136.127Z" fill="#CE726F"/>
<path d="M113.337 138.899C113.311 138.79 113.155 138.845 113.155 138.944C113.243 142.427 114.994 145.469 117.901 147.415C121.479 149.812 125.752 149.342 129.835 149.19C133.454 149.053 137.36 149.02 140.956 149.944C138.982 149.698 137.017 149.614 135.329 149.55C130.18 149.353 123.236 151.88 118.799 148.569C118.781 148.558 118.76 148.579 118.779 148.596C122.259 151.394 126.386 150.543 130.529 150.445C132.193 150.405 133.85 150.461 135.504 150.612C132.483 150.632 129.447 151.018 126.407 151.786C126.368 151.796 126.384 151.854 126.421 151.847C130.205 151.447 133.975 151.629 137.63 152.36C135.402 152.198 133.126 152.376 130.704 152.53C124.058 152.953 117.574 150.156 114.244 144.313C114.233 144.296 114.208 144.316 114.218 144.333C116.777 148.856 120.119 151.151 125.168 152.516C127.951 153.269 130.394 153.128 133.228 153.046C134.62 153.006 135.947 153.1 137.246 153.296C135.383 153.347 133.52 153.473 131.681 153.616C123.989 154.207 117.46 150.792 113.03 144.531C113.008 144.501 112.954 144.527 112.974 144.565C115.597 149.644 120.361 153.275 125.902 154.684C129.654 155.64 133.472 155.383 137.288 155.794C137.404 155.806 137.512 155.827 137.623 155.841C137.496 155.846 137.372 155.853 137.249 155.86C134.09 155.947 130.818 155.751 127.682 155.321C121.223 154.432 116.594 151.213 113.047 145.82C113.036 145.803 113.007 145.821 113.021 145.84C116.129 150.537 119.838 154.061 125.435 155.427C128.705 156.226 132.112 156.428 135.455 156.738C136.754 156.86 138.129 157.038 139.499 157.097C139.446 157.102 139.391 157.11 139.341 157.117C135.047 157.474 130.763 156.968 126.602 155.903C126.567 155.893 126.553 155.948 126.583 155.96C128.543 156.918 130.551 157.7 132.608 158.304C130.334 158.063 128.118 157.643 126.176 156.52C126.157 156.512 126.143 156.537 126.16 156.548C127.993 157.848 130.211 158.351 132.365 158.906C132.945 159.054 133.539 159.212 134.135 159.362C133.647 159.298 133.156 159.229 132.673 159.141C124.687 157.708 117.186 152.868 112.654 146.126C112.629 146.09 112.578 146.131 112.599 146.165C117.34 153.451 123.859 158.752 132.364 160.978C136.952 162.178 141.794 162.417 146.47 161.598C148.923 161.167 151.305 160.384 153.766 159.991C155.692 159.683 157.675 160.124 158.88 158.379C159.125 158.022 159.134 157.642 158.907 157.276C158.784 157.076 158.656 156.874 158.534 156.67C158.18 156.094 157.462 155.892 156.831 155.914C156.792 155.915 156.751 155.921 156.711 155.922C156.47 155.714 156.185 155.55 155.842 155.47C154.455 155.145 153.035 153.555 151.878 152.402C151.445 146.283 145.347 143.142 139.769 143.168C132.208 143.199 119.955 149.376 115.158 140.381C115.139 140.343 115.078 140.366 115.097 140.404C117.264 145.013 121.857 146.556 126.619 146.664C125.179 146.802 123.738 146.874 122.321 146.671C118.738 146.162 116.656 143.779 114.834 140.895C114.823 140.878 114.794 140.897 114.808 140.915C117.318 144.952 119.685 147.181 124.625 147.295C127.242 147.356 129.82 147.069 132.423 147.091C129.3 147.446 126.174 148.003 123.078 147.769C117.966 147.38 114.542 143.723 113.336 138.912L113.337 138.899ZM137.307 146.159C137.427 146.172 137.543 146.184 137.66 146.204C137.193 146.175 136.723 146.161 136.254 146.148C136.605 146.144 136.956 146.15 137.303 146.158L137.307 146.159Z" fill="#CE726F"/>
<path d="M160.087 187.2C160.914 187.183 161.442 186.766 161.702 186.208C162.683 185.855 163.417 184.993 163.122 183.767C162.304 180.352 160.624 177.641 158.413 175.445C158.213 167.135 147.188 165.754 140.79 164.333C131.908 162.359 121.561 160.129 116.151 152.026C116.127 151.99 116.076 152.031 116.097 152.065C119.728 157.858 125.476 161.054 131.842 163.179C137.212 164.974 146.641 166.232 151.515 170.705C150.278 170.103 148.995 169.56 147.69 169.074C145.613 168.13 143.501 167.327 141.673 166.625C136.375 164.582 130.68 163.694 125.61 161.064C125.591 161.057 125.577 161.082 125.598 161.094C130.111 163.702 135.162 164.801 139.963 166.703C134.271 165.208 128.507 163.874 123.532 160.556C118.623 157.282 115.106 152.583 112.519 147.337C112.499 147.299 112.444 147.32 112.458 147.36C115.43 156.92 123.153 162.81 132.105 166.46C136.784 168.365 141.721 169.924 146.128 172.136C145.716 171.999 145.314 171.87 144.939 171.738C141.002 170.377 137.007 168.596 132.854 168.043C132.834 168.04 132.83 168.072 132.85 168.076C135.602 168.756 138.241 169.97 140.842 171.195C139.147 170.691 137.458 170.182 135.799 169.641C135.762 169.627 135.731 169.683 135.774 169.705C139.811 171.749 144.001 173.603 147.95 175.806C146.76 175.378 145.644 175.013 144.754 174.678C139.299 172.638 133.45 170.679 129.106 166.632C129.077 166.607 129.034 166.651 129.058 166.677C132.396 170.421 136.351 172.618 140.91 174.631C141.615 174.941 142.323 175.247 143.03 175.553C142.665 175.417 142.3 175.294 141.937 175.154C134.822 172.392 127.667 168.729 123.114 162.363C123.09 162.328 123.039 162.368 123.06 162.402C126.359 167.999 131.216 171.809 136.88 174.878C138.617 175.82 140.401 176.678 142.19 177.521C137.448 176.449 132.66 175.006 129.501 171.07C129.475 171.038 129.423 171.073 129.447 171.109C132.208 175.155 136.17 177.454 140.653 179.234C143.302 180.283 146.016 181.156 148.61 182.343C148.895 182.473 149.167 182.615 149.437 182.761C149.226 182.738 149.015 182.715 148.806 182.688C146.962 182.178 145.081 181.739 143.366 181.112C139.897 179.845 136.571 178.316 133.405 176.415C133.387 176.407 133.372 176.432 133.39 176.443C135.601 177.91 137.851 179.333 140.188 180.603C138.406 179.915 136.702 179.063 135.122 177.997C128.87 173.763 123.732 166.523 119.318 160.484C119.293 160.448 119.243 160.489 119.264 160.523C123.499 167.635 128.575 176.275 135.794 180.745C142.875 185.129 151.8 187.375 160.078 187.201L160.087 187.2Z" fill="#CE726F"/>
<path d="M107.883 152.514C107.911 152.487 107.88 152.435 107.844 152.46C102.67 156.293 98.9858 161.006 97.0251 167.208C96.1004 170.131 95.744 173.188 95.137 176.18C94.6824 177.295 94.1241 178.355 93.5719 179.444C92.5703 181.417 91.8268 183.25 91.7539 185.319C91.545 185.672 91.5718 186.127 91.6692 186.503C91.7114 186.658 91.7499 186.811 91.7922 186.966C91.8013 187.008 91.8245 187.048 91.8529 187.085C91.8553 187.112 91.8576 187.138 91.8599 187.165C91.866 187.215 91.9204 187.219 91.9524 187.193C92.0338 187.26 92.1316 187.307 92.2203 187.312C93.7878 187.463 94.0357 186.706 95.1888 185.691C96.8805 184.199 98.9308 183.436 100.949 182.514C104.038 181.1 106.162 179.14 107.437 175.942C110.581 168.05 110.857 158.954 110.157 150.619C110.154 150.574 110.089 150.583 110.09 150.626C110.146 156.519 109.504 162.717 107.997 168.546C108.607 164.947 109.057 161.327 109.35 157.679C109.35 157.658 109.322 157.651 109.317 157.675C108.747 161.631 108.01 165.616 106.959 169.477C106.426 171.446 105.913 173.513 105.113 175.393C104.803 176.12 104.36 176.726 103.9 177.299C104.767 175.588 105.374 173.666 105.975 171.647C107.908 165.188 108.693 158.532 109.357 151.842C109.361 151.822 109.33 151.814 109.325 151.838C108.3 157.997 107.174 164.241 105.185 170.177C105.123 170.355 105.061 170.543 105.003 170.722C105.491 168.641 105.933 166.546 106.347 164.487C106.353 164.472 106.323 164.46 106.317 164.475C105.066 167.558 104.064 170.739 102.876 173.846C102.612 174.536 102.345 175.263 102.037 175.965C102.725 174.162 103.259 172.293 103.814 170.631C105.535 165.469 106.91 160.243 107.766 154.868C107.771 154.835 107.718 154.814 107.709 154.849C106.368 159.139 104.965 163.422 103.313 167.601C104.285 164.016 105.568 160.536 106.653 156.969C106.659 156.954 106.633 156.944 106.623 156.957C104.588 161.158 102.854 165.568 101.357 169.99C101.158 170.58 100.971 171.171 100.785 171.762C100.902 171.074 101.026 170.412 101.183 169.809C102.475 164.805 104.091 159.187 107.043 154.862C107.066 154.828 107.023 154.794 106.995 154.821C103.86 158.072 102.522 163.05 100.963 167.193C100.739 167.79 100.523 168.391 100.312 168.989C100.764 166.29 101.384 163.669 102.616 161.136C102.622 161.121 102.599 161.103 102.587 161.12C101.473 162.703 100.57 164.383 99.8666 166.158C101.382 161.036 103.843 156.339 107.888 152.512L107.883 152.514Z" fill="#CE726F"/>
<path d="M111.837 196.18C112.134 196.53 112.64 196.713 113.028 196.345C114.346 195.098 114.668 193.555 115.428 191.909C116.362 189.888 117.457 187.944 118.448 185.954C120.152 182.533 121.579 178.976 121.637 175.102C121.781 165.314 114.697 157.605 111.192 148.987C111.178 148.947 111.117 148.97 111.131 149.01C113.535 156.778 118.882 164.2 119.483 172.445C118.521 166.789 115.826 161.587 113.632 156.337C113.623 156.316 113.592 156.33 113.601 156.35C115.623 161.498 117.611 166.787 117.986 172.356C118.109 174.192 118.032 176.022 117.747 177.83C117.795 176.51 117.779 175.265 117.748 174.209C117.565 167.83 115.606 161.651 113.214 155.791C113.205 155.771 113.174 155.784 113.183 155.805C115.087 161.173 116.648 166.746 116.761 172.475C116.814 175.185 116.599 177.927 115.975 180.572C115.856 181.077 115.69 181.585 115.503 182.09C115.908 179.497 116.108 176.878 116.122 174.251C116.157 167.799 114.97 161.567 112.587 155.577C112.571 155.541 112.515 155.562 112.529 155.602C114.556 161.96 115.519 168.734 114.86 175.4C114.74 176.617 114.559 177.827 114.337 179.029C114.467 177.959 114.583 176.883 114.657 175.803C115.001 170.509 114.578 165.27 113.427 160.092C113.421 160.073 113.389 160.078 113.394 160.097C114.086 166.055 114.057 172.056 112.996 177.968C112.96 178.169 112.917 178.363 112.881 178.565C113.094 174.562 113.512 170.575 113.676 166.566C113.676 166.544 113.647 166.542 113.643 166.562C112.76 171.395 112.17 176.272 111.324 181.112C111.223 181.693 111.082 182.354 110.943 183.054C110.941 179.769 111.448 176.517 111.996 173.268C113.162 166.371 114.254 159.061 110.965 152.535C110.95 152.508 110.901 152.51 110.903 152.55C111.489 156.778 111.873 160.681 111.354 164.964C110.913 168.605 110.013 172.163 109.323 175.757C108.038 182.456 107.765 189.767 111.411 195.829C111.505 195.983 111.656 196.104 111.827 196.184L111.837 196.18Z" fill="#CE726F"/>
<path d="M138.83 190.057C137.707 185.21 134.456 181.725 129.77 180.274C128.336 178.347 127.358 176.078 126.122 174.021C124.634 171.546 123.021 169.159 121.414 166.765C121.389 166.73 121.34 166.766 121.359 166.804C123.041 169.805 124.371 172.939 125.388 176.225C125.854 177.739 126.676 179.619 126.448 181.229C126.249 182.626 125.316 183.629 125.925 185.187C126.861 187.586 130.195 188.104 131.815 186.104C133.552 183.965 132.229 181.564 130.108 180.706C130.039 180.619 129.965 180.533 129.898 180.442C132.129 181.455 133.772 183.06 134.85 185.002C134.284 184.35 133.699 183.769 133.176 183.303C133.162 183.293 133.143 183.307 133.152 183.319C133.206 183.431 133.263 183.54 133.319 183.649C133.199 183.506 133.082 183.365 132.964 183.227C132.937 183.195 132.894 183.23 132.915 183.264C132.991 183.398 133.062 183.534 133.139 183.668C133.035 183.549 132.932 183.426 132.825 183.315C132.81 183.3 132.786 183.317 132.8 183.335C133.176 183.825 133.491 184.325 133.768 184.836C133.829 184.955 133.884 185.077 133.945 185.196C134.664 186.659 135.055 188.221 135.335 189.903C135.353 190.009 135.364 190.113 135.378 190.218C134.98 188.804 134.457 187.41 133.806 186.025C133.787 185.987 133.731 186.009 133.745 186.049C134.332 187.606 134.679 189.181 134.859 190.776C134.363 189.086 133.641 187.402 132.766 185.937C132.756 185.92 132.732 185.937 132.739 185.952C133.296 188.033 133.797 190.036 134.028 192.177C133.619 190.703 133.127 189.265 132.586 187.895C132.571 187.858 132.519 187.881 132.529 187.919C132.771 188.857 132.951 189.774 133.094 190.689C132.53 189.594 131.888 188.589 131.342 187.79C131.33 187.777 131.307 187.789 131.314 187.805C131.888 189.375 132.354 190.966 132.631 192.608C132.112 191.392 131.56 190.246 131.031 189.229C131.011 189.191 130.963 189.215 130.973 189.254C131.188 190.008 131.384 190.767 131.565 191.53C131.113 190.535 130.575 189.584 129.923 188.734C129.866 188.66 129.762 188.727 129.789 188.811C130.354 190.774 131.053 192.648 131.458 194.655C130.759 193.097 129.993 191.576 129.117 190.094C129.1 190.061 129.054 190.09 129.062 190.124C129.528 191.496 129.96 192.901 130.303 194.323C130.287 194.287 130.27 194.254 130.254 194.217C129.445 192.339 129.12 190.272 128.278 188.432C128.269 188.411 128.228 188.404 128.222 188.431C127.663 190.213 128.251 192.215 128.921 193.901C128.922 193.91 128.928 193.916 128.929 193.925C127.966 192.042 127.245 190.09 126.627 187.847C126.62 187.823 126.574 187.818 126.568 187.845C125.68 190.752 126.694 193.933 127.755 196.68C127.785 196.757 127.815 196.834 127.843 196.905C127.631 196.579 127.427 196.244 127.251 195.894C125.89 193.175 124.749 189.745 125.935 186.796C125.942 186.777 125.914 186.762 125.905 186.784C124.976 188.704 124.903 191.558 125.504 194.321C124.33 191.642 123.856 188.743 124.994 185.836C125.01 185.795 124.951 185.772 124.934 185.813C123.918 188.129 123.696 190.454 124.115 192.817C122.94 189.801 122.481 186.679 124.694 183.978C124.709 183.963 124.682 183.943 124.667 183.959C122.639 186.039 122.428 190.038 123.334 193.634C121.604 189.491 121.386 184.714 125.08 182.318C125.109 182.3 125.084 182.242 125.046 182.262C120.33 184.688 120.847 190.542 122.406 194.898C123.287 197.349 124.696 199.577 126.591 201.373C127.695 202.422 128.995 203.236 130.134 204.239C131.281 205.246 131.648 206.574 132.621 207.637C133.413 208.503 135.23 208.23 135.222 206.932C135.386 206.682 135.478 206.395 135.478 206.08C137.085 204.157 137.534 201.171 138.165 198.806C138.934 195.929 139.52 193.011 138.837 190.06L138.83 190.057Z" fill="#CE726F"/>
<path d="M35.6343 152.66C35.396 153.817 36.4897 154.445 37.4226 154.214C37.8088 154.285 38.2228 154.199 38.6055 153.876C41.2367 154.12 44.1546 152.539 46.5449 151.604C49.1741 150.578 51.6662 149.343 53.5614 147.206C56.7431 143.62 57.6854 139.029 56.318 134.539C56.7189 132.764 58.836 130.132 59.4446 128.738C60.7402 125.751 61.4942 122.583 62.2273 119.425C62.2369 119.39 62.1757 119.37 62.1661 119.405C61.2135 122.42 59.9564 125.332 58.1029 127.908C57.3894 128.903 54.8638 132.62 53.4151 132.344C50.1806 131.727 48.1995 135.824 50.3695 138.104C52.179 140.008 56.0451 138.975 56.3248 136.363C56.3372 138.064 55.9551 139.682 55.2506 141.155C55.4759 140.347 55.6334 139.524 55.7214 138.649C55.7236 138.632 55.7012 138.623 55.6915 138.637C55.636 138.744 55.582 138.848 55.5264 138.955C55.572 138.775 55.6162 138.598 55.6588 138.425C55.6684 138.39 55.6132 138.377 55.6014 138.407C55.5415 138.547 55.4719 138.679 55.412 138.819C55.4458 138.669 55.4795 138.518 55.5096 138.366C55.5132 138.346 55.4804 138.342 55.4768 138.362C55.3265 138.894 55.1374 139.393 54.9155 139.866C54.7711 140.154 54.623 140.441 54.469 140.72C53.7992 141.866 52.9412 142.878 51.9841 143.888C51.8341 144.049 51.6692 144.204 51.5043 144.358C52.3813 143.234 53.1709 142.036 53.8842 140.748C53.9012 140.716 53.8497 140.682 53.8289 140.713C52.8867 142.165 51.7515 143.429 50.487 144.551C51.606 143.121 52.6967 141.512 53.3439 139.856C53.3513 139.837 53.3267 139.823 53.3156 139.841C51.9595 141.423 50.7778 143.022 49.1923 144.409C49.1536 144.442 49.1135 144.477 49.0711 144.508C50.0268 143.294 50.8886 142.056 51.6461 140.862C51.6684 140.828 51.622 140.793 51.5976 140.822C50.8903 141.681 50.136 142.496 49.3599 143.289C50.0164 142.176 50.5714 141.015 51.0003 139.791C51.0062 139.776 50.983 139.758 50.9719 139.775C49.9976 141.232 48.9292 142.622 47.6852 143.856C48.4028 142.741 49.0554 141.584 49.6535 140.38C49.6668 140.346 49.6213 140.319 49.602 140.346C49.1204 140.963 48.6217 141.568 48.1081 142.167C48.6615 141.217 49.1276 140.214 49.4059 139.185C49.428 139.108 49.3146 139.067 49.2708 139.123C47.9981 140.691 46.9359 142.38 45.5572 143.867C46.4047 142.403 47.1635 140.891 47.8319 139.334C47.8437 139.304 47.8011 139.27 47.7804 139.301C46.9623 140.462 46.0957 141.581 45.1709 142.652C45.199 142.603 45.2249 142.549 45.2568 142.501C45.8014 141.594 46.417 140.716 47.0401 139.862C47.5845 139.12 48.3224 138.51 48.6892 137.671C48.6966 137.653 48.6831 137.621 48.6585 137.629C46.931 137.98 45.4945 140.048 44.6125 141.447C44.6125 141.447 44.6125 141.447 44.611 141.451C45.6077 139.567 46.8002 137.864 48.1948 135.999C48.2141 135.972 48.1879 135.94 48.1559 135.945C45.2891 136.765 43.1985 139.765 41.6707 142.151C41.6137 142.24 41.5566 142.33 41.4958 142.418C41.5859 142.19 41.6761 141.963 41.7812 141.741C43.1072 138.96 45.4586 135.541 48.6365 134.819C48.6559 134.814 48.6513 134.782 48.6319 134.787C45.6806 135.275 43.3859 137.625 41.6806 139.958C43.181 136.965 45.462 134.312 48.8572 133.499C48.8959 133.489 48.8919 133.422 48.8495 133.432C45.9931 134.039 43.7202 135.539 41.9057 137.755C41.9169 137.738 41.9294 137.717 41.9406 137.7C43.7028 135.234 46.905 131.966 50.188 132.166C50.2096 132.166 50.2162 132.139 50.1924 132.134C47.2894 131.704 44.6044 133.873 42.675 135.824C42.1648 136.338 41.6005 136.956 41.0559 137.634C43.3215 133.495 47.3255 129.794 51.7573 131.506C51.7983 131.522 51.822 131.463 51.781 131.446C47.0764 129.061 42.648 132.874 40.0489 136.657C38.5807 138.794 37.5739 141.227 37.2225 143.802C37.0589 145.011 37.1114 146.24 37.0603 147.459C37.0408 147.628 37.0235 147.802 37.0278 147.977C37.0093 148.241 36.9833 148.503 36.9447 148.764C36.7445 150.173 35.9025 151.307 35.6202 152.663L35.6343 152.66Z" fill="#CE726F"/>
<path d="M141.252 100.202C141.223 99.4267 140.838 98.2298 140.198 97.4369C140.524 96.2324 140.555 94.9886 139.724 94.3833C139.569 93.9032 139.31 93.4466 138.964 93.0767C137.95 91.9884 136.545 91.6652 135.132 91.6923C135.018 91.686 134.9 91.6908 134.777 91.7069C134.494 91.7242 134.213 91.7468 133.933 91.7872C132.431 91.9949 130.974 92.2203 130.192 93.6588C129.36 95.1935 129.362 97.0072 129.751 98.6631C129.396 98.0868 129.006 97.5784 128.63 97.1877C127.535 96.0632 125.975 95.0223 124.351 95.0135C123.804 95.0123 123.275 95.1266 122.845 95.362C122.511 95.2126 122.105 95.2028 121.647 95.3146C120.075 95.6976 119.43 97.4665 119.214 98.883C118.704 102.263 120.225 105.244 122.428 107.627C120.753 106.7 118.562 106.523 116.627 106.602C115.446 106.652 113.406 106.638 112.845 107.944C112.76 108.148 112.727 108.342 112.732 108.525C111.066 110.049 111.723 113.154 112.891 114.868C114.28 116.907 116.728 118.028 119.169 118.119C117.887 118.349 116.638 118.994 115.625 119.961C113.851 121.662 111.561 126.266 114.711 127.683C115.505 128.688 116.685 129.488 117.691 129.791C118.974 130.183 120.443 130.079 121.716 129.689C122.01 129.599 122.273 129.47 122.521 129.322C121.458 130.515 120.975 132.257 121.443 133.798C121.673 134.558 122.133 135.172 122.701 135.514C123.211 136.885 124.073 137.87 125.382 137.223C125.408 137.212 125.426 137.189 125.45 137.172C126.677 137.714 128.564 137.331 129.534 136.636C130.484 135.959 131.046 135.008 131.447 133.963C131.541 136.124 132.299 138.263 133.748 138.919C133.986 139.026 134.208 139.023 134.391 138.953C135.711 139.674 137.505 139.155 138.954 138.197C139.968 137.654 140.881 136.811 141.328 136.073C142.952 133.38 141.985 129.98 139.188 128.566C139.148 128.546 139.117 128.602 139.148 128.632C139.865 129.274 140.365 130.029 140.668 130.822C140.103 130.068 139.331 129.455 138.398 129.12C138.372 129.11 138.337 129.144 138.363 129.167C139.178 130.072 139.996 130.763 140.279 132.01C140.424 132.668 140.398 133.322 140.223 133.939C140.344 132.576 139.617 131.403 138.906 130.301C138.895 130.284 138.872 130.3 138.878 130.316C139.151 131.089 139.396 131.864 139.455 132.629C139.374 131.777 139.108 130.934 138.649 130.165C138.641 130.153 138.616 130.161 138.619 130.175C138.936 131.686 138.789 133.047 138.228 134.267C138.792 132.474 138.521 130.52 137.367 129.031C137.351 129.008 137.307 129.02 137.312 129.052C137.62 130.539 137.713 132.026 137.259 133.456C137.386 132.013 137.186 130.492 136.847 129.507C136.844 129.502 136.832 129.501 136.829 129.509C136.78 130.918 136.789 132.246 136.405 133.618C136.396 133.64 136.386 133.666 136.381 133.69C136.55 132.294 136.492 130.925 136.219 129.522C136.205 129.438 136.08 129.428 136.066 129.517C135.799 130.965 135.476 132.412 135.085 133.833C135.083 133.621 135.087 133.415 135.094 133.211C135.164 131.935 135.273 130.657 135.047 129.398C135.046 129.389 135.032 129.392 135.03 129.396C134.886 130.927 134.602 132.394 134.323 133.906C134.296 134.06 134.265 134.216 134.237 134.373C134.221 134.294 134.201 134.212 134.189 134.134C133.953 132.496 133.964 130.834 134.272 129.208C134.278 129.193 134.252 129.183 134.242 129.196C133.811 130.001 133.458 130.815 133.211 131.658C133.255 131.045 133.319 130.436 133.374 129.819C133.377 129.811 133.362 129.805 133.359 129.813C133.094 130.308 132.851 130.911 132.675 131.549C132.723 130.731 132.858 129.912 133.078 129.128C133.1 129.05 132.99 128.989 132.932 129.039C132.146 129.682 131.676 130.946 131.51 132.365C130.965 133.448 130.328 134.478 129.366 135.154C128.975 135.431 128.579 135.602 128.175 135.697C129.428 135.084 130.484 134.129 130.719 132.893C130.722 132.886 130.707 132.88 130.704 132.887C130.208 133.757 129.532 134.275 128.726 134.633C129.835 133.631 130.655 132.268 131.017 130.875C131.025 130.856 130.997 130.85 130.988 130.863C130.377 132.046 129.62 132.954 128.604 133.678C128.832 133.428 129.053 133.165 129.269 132.893C130.182 131.731 130.854 130.34 131.809 129.225C131.834 129.196 131.795 129.163 131.766 129.182C130.609 129.902 129.681 131.002 128.627 131.866C127.757 132.579 126.871 133.281 125.983 133.974C126.028 133.784 126.086 133.605 126.153 133.437C126.444 133.116 126.724 132.791 127.016 132.467C127.995 131.391 129.177 130.629 130.119 129.492C130.122 129.485 130.118 129.474 130.111 129.48C129.373 130.124 128.531 130.581 127.723 131.085C128.443 130.313 129.291 129.656 130.208 129.117C130.365 129.024 130.218 128.797 130.06 128.847C128.41 129.372 127.046 130.333 125.937 131.659C126.591 130.446 127.351 129.323 128.58 128.671C128.591 128.666 128.586 128.656 128.573 128.655C127.669 128.966 126.855 129.658 126.133 130.382C126.82 129.312 127.811 128.422 128.947 127.81C128.964 127.8 128.956 127.775 128.933 127.779C127.119 128.23 125.379 129.267 124.323 130.735C124.373 130.574 124.433 130.412 124.504 130.254C125.112 128.885 126.404 127.735 127.835 127.305C127.844 127.304 127.841 127.29 127.832 127.291C126.971 127.123 125.974 127.612 125.188 128.255C125.867 127.337 126.637 127.06 127.872 126.983C127.951 126.98 127.961 126.867 127.897 126.833C126.606 126.223 125.389 126.582 124.404 127.392C124.039 127.571 123.712 127.787 123.314 128.018C121.891 128.844 119.812 129.254 118.203 128.63C117.964 128.536 117.752 128.43 117.558 128.31C119.177 128.917 121.218 128.767 122.647 128.112C122.657 128.107 122.654 128.093 122.64 128.096C121.406 128.531 120.133 128.553 118.93 128.158C119.451 128.27 119.979 128.332 120.496 128.321C122.573 128.277 123.969 126.572 125.961 126.468C125.97 126.467 125.969 126.449 125.96 126.45C124.607 126.432 123.745 127.148 122.506 127.542C122.076 127.678 121.663 127.752 121.256 127.776C122.79 127.37 123.963 126.466 125.671 125.762C125.687 125.755 125.684 125.728 125.663 125.728C123.683 126.084 121.966 126.944 119.89 126.648C119.702 126.621 119.517 126.578 119.328 126.521C121.435 126.574 123.529 125.492 125.675 125.371C125.683 125.374 125.681 125.356 125.677 125.354C124.38 125.164 123.194 125.523 121.914 125.659C123.203 125.194 124.465 124.667 125.873 124.698C125.907 124.698 125.908 124.652 125.884 124.637C124.413 123.96 123.091 124.528 121.567 124.801C120.549 124.985 119.63 124.953 118.718 124.824C118.994 124.739 119.271 124.659 119.556 124.595C120.666 124.353 121.762 124.2 122.897 124.136C122.904 124.139 122.903 124.121 122.899 124.12C122.419 124.025 121.923 123.979 121.422 123.958C122.246 123.861 123.076 123.793 123.901 123.736C123.919 123.734 123.922 123.705 123.902 123.701C122.96 123.596 120.91 123.138 119.134 123.155C119.292 123.071 119.453 122.992 119.614 122.922C121.381 122.198 123.134 123.091 124.913 122.63C124.975 122.616 124.958 122.518 124.9 122.513C122.797 122.219 121.042 121.278 118.938 122.015C118.488 122.17 117.974 122.346 117.46 122.552C117.839 122.262 118.233 121.986 118.713 121.819C120.239 121.279 121.921 121.436 123.496 121.599C123.504 121.601 123.51 121.587 123.502 121.584C122.2 121.232 120.857 120.928 119.515 121.005C120.937 120.498 122.446 120.479 123.976 120.977C123.991 120.983 124.007 120.963 123.991 120.949C122.149 119.684 120.115 119.456 118.072 120.158C118.409 119.928 118.76 119.74 119.152 119.632C120.235 119.34 122.044 119.12 123.038 119.66C123.053 119.666 123.07 119.647 123.054 119.632C122.508 119.213 121.661 118.998 120.795 118.918C121.873 118.897 122.982 119.172 124.029 119.677C124.047 119.685 124.056 119.662 124.044 119.649C123.057 118.632 121.86 118.123 120.625 118.027C120.672 118.019 120.72 118.017 120.77 118.011C120.788 118.009 120.789 117.984 120.769 117.98C118.376 117.507 115.846 117.018 114.28 114.935C113.915 114.449 113.626 113.895 113.423 113.318C114.058 114.415 115.12 115.397 115.952 115.955C117.935 117.289 120.329 117.664 122.653 117.941C122.661 117.944 122.667 117.929 122.659 117.926C120.569 117.418 118.319 116.962 116.535 115.681C116.091 115.363 115.696 114.999 115.344 114.601C115.41 114.653 115.476 114.705 115.536 114.75C117.807 116.501 120.327 116.7 122.9 117.732C122.919 117.74 122.929 117.714 122.912 117.703C121.175 116.726 119.314 116.238 117.66 115.173C118.768 115.742 120.098 115.971 121.274 116.238C121.289 116.244 121.299 116.218 121.285 116.208C120.053 115.668 118.597 115.303 117.54 114.44C119.474 115.409 121.623 115.889 123.439 117.135C123.466 117.154 123.51 117.119 123.482 117.091C122.102 115.53 120.173 114.887 118.439 113.816C117.836 113.443 117.28 113.016 116.769 112.541C117.366 112.942 118.027 113.277 118.6 113.616C119.976 114.425 121.378 115.157 122.848 115.783C122.859 115.787 122.864 115.776 122.854 115.768C121.497 114.954 120.14 114.131 118.835 113.23C118.466 112.976 118.099 112.68 117.726 112.381C118.025 112.487 118.326 112.597 118.614 112.733C120.107 113.419 121.495 114.327 122.799 115.319C122.812 115.328 122.832 115.31 122.82 115.297C122.086 114.264 121.246 113.344 120.322 112.507C121.311 112.973 122.188 113.57 122.871 114.462C122.877 114.469 122.888 114.461 122.882 114.454C122.514 113.881 122.099 113.371 121.61 112.927C122.392 113.414 123.132 113.966 123.769 114.602C123.781 114.616 123.802 114.594 123.79 114.581C122.606 112.907 121.159 111.656 119.432 110.635C120.364 111.026 121.435 111.351 122.127 112.1C122.133 112.107 122.145 112.099 122.139 112.092C121.543 111.277 120.578 110.857 119.708 110.395C119.555 110.313 119.394 110.219 119.227 110.118C119.434 110.183 119.638 110.255 119.837 110.343C121.401 111.036 122.679 112.09 123.712 113.449C123.755 113.505 123.834 113.446 123.798 113.384C122.951 111.939 121.744 110.835 120.271 110.031C120.114 109.948 119.95 109.861 119.778 109.771C120.441 110.06 121.089 110.364 121.663 110.82C121.686 110.838 121.712 110.805 121.691 110.784C121.131 110.225 120.483 109.822 119.777 109.481C119.959 109.545 120.138 109.616 120.312 109.689C120.573 109.814 120.837 109.932 121.097 110.061C121.097 110.061 121.097 110.061 121.102 110.058C122.248 110.663 123.245 111.49 124.06 112.56C124.072 112.573 124.094 112.56 124.088 112.545C123.68 111.645 123.138 110.813 122.473 110.105C123.013 110.561 123.518 111.063 123.988 111.599C123.994 111.605 124.006 111.597 124 111.59C123.262 110.543 122.421 109.562 121.395 108.785C121.106 108.566 120.764 108.319 120.397 108.1C120.976 108.338 121.5 108.671 122.01 109.041C123.002 109.762 123.868 110.649 124.559 111.661C124.565 111.667 124.577 111.659 124.571 111.653C123.756 110.32 122.79 109.087 121.508 108.173C121.49 108.162 121.47 108.15 121.454 108.135C122.704 108.41 123.788 109.029 124.704 110.259C124.716 110.273 124.738 110.26 124.731 110.244C124.411 109.397 123.914 108.734 123.302 108.219C121.882 106.345 120.449 103.459 120.331 101C120.468 101.732 120.659 102.438 120.856 103.051C121.607 105.394 123.035 107.315 124.859 108.931C124.871 108.944 124.892 108.923 124.88 108.909C124.142 107.918 123.528 106.833 123.038 105.694C123.475 106.432 123.961 107.112 124.445 107.688C124.457 107.701 124.481 107.685 124.47 107.668C123.629 106.402 122.981 105.019 122.602 103.548C123.44 105.486 124.638 107.178 126.106 108.735C126.146 108.776 126.216 108.731 126.181 108.678C124.877 106.664 123.886 104.424 123.348 102.079C124.384 104.159 125.868 106.219 126.455 107.811C126.468 107.842 126.52 107.832 126.517 107.797C126.273 106.297 125.821 104.879 125.315 103.466C125.87 104.558 126.329 105.711 126.675 107.005C126.676 107.014 126.694 107.012 126.689 107.002C126.438 105.534 125.955 103.483 125.074 101.851C126.109 103.423 126.89 105.1 127.509 106.916C127.514 106.936 127.538 106.928 127.537 106.91C127.529 105.263 127.081 103.704 126.426 102.219C127.047 103.276 127.483 104.399 127.798 105.62C127.803 105.639 127.828 105.631 127.826 105.613C127.758 104.641 127.485 103.566 127.068 102.516C127.385 103.078 127.693 103.64 128.017 104.196C128.023 104.202 128.033 104.198 128.028 104.187C127.622 103.077 127.163 101.993 126.611 100.945C126.654 101.001 126.699 101.05 126.737 101.108C127.699 102.503 128.21 103.97 128.71 105.571C128.713 105.585 128.737 105.581 128.741 105.57C128.93 104.286 128.781 102.91 128.356 101.607C128.561 102.102 128.759 102.604 128.986 103.099C128.993 103.115 129.016 103.111 129.014 103.093C129.001 101.655 128.202 99.7286 127.057 98.2608C127.32 98.5028 127.572 98.771 127.798 99.072C128.968 100.649 129.505 102.541 129.607 104.485C129.604 104.492 129.622 104.491 129.623 104.487C129.752 102.984 129.624 101.5 129.1 100.11C129.934 101.524 130.457 103.255 129.999 104.791C129.995 104.802 130.016 104.815 130.028 104.807C131.623 103.307 130.96 100.722 129.837 98.8052C129.782 97.169 130.105 95.5018 131.059 94.4249C130.457 95.5632 130.167 96.8943 130.212 98.1422C130.213 98.1512 130.227 98.1481 130.228 98.1444C130.639 96.5849 131.153 95.1876 132.421 94.1446C132.324 94.2485 132.228 94.3487 132.15 94.4473C131.056 95.7706 130.498 97.496 130.777 99.1992C130.784 99.2364 130.831 99.2377 130.837 99.2012C131.164 97.7642 131.805 96.5721 132.843 95.7058C131.883 97.1814 131.341 99.008 131.266 100.709C131.264 100.717 131.278 100.723 131.281 100.715C131.932 99.1603 132.424 97.5596 133.651 96.3581C132.646 97.7727 132.035 99.499 131.65 101.211C131.643 101.23 131.674 101.238 131.68 101.223C132.285 99.9348 133.135 98.6831 134.232 97.7451C133.766 98.3547 133.395 99.0407 133.194 99.7552C133.188 99.7701 133.21 99.779 133.22 99.7655C133.556 99.3978 133.873 99.0227 134.198 98.6595C133.538 99.8137 132.814 100.921 132.153 102.079C132.145 102.098 132.168 102.107 132.181 102.095C133.062 101.222 134.052 100.488 134.903 99.5819C135.44 99.0093 135.984 98.4218 136.601 97.9414C135.546 99.8323 133.814 101.261 132.261 102.83C132.258 102.837 132.266 102.849 132.273 102.843C133.498 101.865 134.93 101.039 136.168 100.049C135.678 100.687 135.098 101.247 134.371 101.676C134.364 101.682 134.365 101.691 134.378 101.692C135.131 101.576 135.854 101.124 136.487 100.594C135.304 101.946 133.334 102.703 131.899 103.701C131.882 103.711 131.899 103.731 131.914 103.728C134.445 103.091 137.21 102.494 138.824 100.35C138.557 101.862 137.278 102.901 135.491 103.359C135.482 103.359 135.485 103.373 135.494 103.373C137.44 103.125 139.534 102.12 140.113 100.157C140.453 101.88 138.956 102.914 137.493 103.612C137.482 103.616 137.487 103.627 137.5 103.628C139.287 103.157 141.322 102.401 141.242 100.207L141.252 100.202ZM123.093 128.936C122.64 129.667 122.315 130.475 122.166 131.223C122.077 131.675 122.078 132.5 122.198 133.407C122.119 133.224 122.057 133.023 122.012 132.798C121.705 131.329 122.29 130.146 123.051 128.966C123.064 128.954 123.081 128.944 123.093 128.936ZM115.377 113.047C115.455 113.178 115.542 113.307 115.63 113.433C115.465 113.251 115.304 113.057 115.152 112.863C115.226 112.927 115.302 112.987 115.376 113.051L115.377 113.047Z" fill="#CE726F"/>
<path d="M142.515 126.53C143.583 125.947 144.487 125.222 145.197 124.226C145.752 123.444 145.914 122.188 146.602 121.562C146.81 121.373 146.909 121.145 146.939 120.919C147.263 120.961 147.586 121.093 147.871 121.202C147.882 121.206 147.894 121.198 147.895 121.186C147.535 119.567 145.8 119.195 144.335 119.624C142.618 118.478 140.274 119.668 138.188 119.844C134.033 120.191 129.466 119.669 127.127 115.756C127.121 115.74 127.093 115.755 127.1 115.771C128.275 118.524 130.663 119.992 133.418 120.816C133.043 120.805 132.662 120.775 132.273 120.699C130.303 120.311 128.676 119.265 127.485 117.654C127.468 117.63 127.433 117.655 127.448 117.682C128.401 119.329 130.11 120.692 132.007 121.349C129.95 120.952 128.001 119.956 126.952 118.051C126.947 118.041 126.933 118.044 126.936 118.058C127.865 120.333 130.012 121.603 132.329 122.193C132.812 122.315 133.389 122.427 134.006 122.503C130.547 122.877 127.434 122.019 125.899 117.517C125.892 117.502 125.865 117.504 125.865 117.526C126.769 122.217 130.306 124.063 134.303 124.291C131.683 124.729 128.935 124.538 127.306 122.059C127.294 122.045 127.272 122.058 127.279 122.074C128.408 124.3 130.569 125.143 132.976 125.276C133.251 125.29 133.553 125.302 133.871 125.307C132.689 125.62 131.495 125.781 130.264 125.445C130.245 125.437 130.242 125.466 130.252 125.474C131.789 126.399 133.742 126.132 135.455 125.938C129.537 127.88 126.467 123.241 125.132 117.917C125.126 117.898 125.098 117.904 125.098 117.925C125.875 122.523 127.71 127.696 133.2 127.773C134.273 127.788 135.687 127.64 137.186 127.332C133.024 128.545 128.221 127.898 126.32 123.394C126.315 123.384 126.301 123.387 126.304 123.401C127.776 127.683 132.099 129.137 136.325 128.493C138.41 128.175 140.653 127.558 142.504 126.547L142.515 126.53Z" fill="#CE726F"/>
<path d="M134.263 104.214C134.263 104.214 134.246 104.246 134.268 104.246C139.088 104.14 143.095 106.008 146.565 109.126C145.407 108.465 144.275 107.792 143.178 107.293C140.357 106.002 136.873 104.186 133.66 104.735C129.411 105.46 124.769 111.174 124.986 115.464C124.987 115.482 125.016 115.485 125.02 115.465C125.353 112.303 128.171 109.263 130.758 107.56C133.539 105.727 136.211 106.76 138.839 108.047C138.013 107.845 137.211 107.7 136.486 107.624C132.98 107.258 129.928 107.65 127.995 110.743C127.991 110.754 128 110.763 128.009 110.753C131.173 106.982 136.444 108.112 140.256 110.235C138.455 109.638 136.643 109.037 134.734 108.941C131.044 108.757 127.94 110.73 125.927 113.709C125.916 113.726 125.937 113.748 125.954 113.728C127.988 111.176 130.531 110.203 133.232 110.194C131.278 110.278 129.604 111.139 127.882 112.205C127.876 112.211 127.88 112.221 127.891 112.217C129.638 111.433 131.382 110.747 133.355 110.855C134.681 110.927 135.985 111.547 137.214 112.16C135.861 111.99 134.496 111.821 133.095 111.684C130.243 111.4 127.475 112.492 125.738 114.873C125.727 114.89 125.746 114.906 125.761 114.891C129.13 111.659 133.177 112.697 137.161 113.623C135.749 113.526 134.345 113.388 132.928 113.371C130.728 113.345 127.862 113.03 126.451 115.056C126.446 115.067 126.456 115.075 126.464 115.066C128.647 112.486 134.801 114.372 137.588 115.018C137.722 115.05 137.857 115.081 137.995 115.114C134.802 115.352 130.314 113.28 127.375 114.87C127.358 114.88 127.368 114.91 127.388 114.901C129.414 114.025 131.982 115.322 133.944 115.849C134.549 116.011 135.153 116.142 135.759 116.257C133.151 116.303 130.657 115.812 128.174 115.031C128.163 115.026 128.157 115.041 128.168 115.046C129.974 115.968 132.373 116.884 134.792 117.294C132.133 117.272 129.525 116.71 127.078 115.184C127.059 115.176 127.039 115.194 127.059 115.21C131.041 118.536 135.922 119.127 140.961 118.685C143.948 118.422 150.146 118.15 152.847 115.625C154.079 115.185 155.025 114.407 156.143 113.689C156.162 113.675 156.161 113.644 156.138 113.635C156.097 113.619 156.056 113.615 156.013 113.603C156.012 113.594 156.006 113.587 156.006 113.578C156.351 112.947 155.969 111.885 155 111.933C154.742 111.701 154.397 111.56 153.955 111.596C153.576 111.627 153.202 111.613 152.83 111.582C149.606 110.448 146.641 106.873 143.734 105.519C140.699 104.105 137.569 103.638 134.277 104.202L134.263 104.214ZM139.938 111.745C139.442 111.635 138.948 111.508 138.458 111.353C137.235 110.964 136.013 110.497 134.739 110.29C136.348 110.478 137.99 110.952 139.594 111.6C139.706 111.645 139.82 111.694 139.934 111.744L139.938 111.745Z" fill="#CE726F"/>
<path d="M108.196 91.0264C107.523 91.1568 106.732 91.3442 105.912 91.5936C105.336 91.7192 104.785 91.911 104.267 92.1847C103.038 92.7037 101.895 93.3901 101.157 94.2934C99.2932 95.3376 97.7935 96.7807 96.6797 98.601C95.8933 99.8779 95.3331 101.27 94.5961 102.575C92.6997 105.924 89.8615 106.846 86.0932 106.596C86.0515 106.592 86.039 106.656 86.0808 106.66C88.391 106.984 90.7626 107.349 92.8761 106.089C95.0751 104.776 96.1776 102.222 97.5672 100.196C97.7637 99.9067 97.9782 99.6377 98.1949 99.3739C97.8129 100.12 97.5255 100.878 97.3543 101.605C97.3389 101.676 97.4418 101.7 97.4729 101.643C98.4048 99.7592 99.4635 98.1544 101.178 96.8871C101.451 96.6888 101.728 96.5135 102.007 96.3524C102.024 96.3419 102.044 96.3366 102.063 96.3313C101.442 96.7238 100.863 97.2153 100.325 97.8438C98.2537 100.26 97.0906 103.196 94.573 105.281C92.1394 107.295 89.0915 108.103 86.2419 107.168C78.0863 102.686 74.9188 92.6393 75.7154 83.6883C75.8474 83.4859 75.9756 83.2821 76.1061 83.0834C76.1283 83.0491 76.0797 83.0082 76.0538 83.0411C75.9365 83.1846 75.8252 83.3347 75.708 83.4782C75.6893 83.4708 75.6692 83.4671 75.6626 83.4947C75.6567 83.5097 75.6582 83.5275 75.656 83.5439C72.0578 88.0402 68.6097 92.6477 65.025 97.1536C64.5961 97.6915 64.1575 98.2429 63.6966 98.7854C61.8906 99.956 59.8614 100.589 57.8408 97.9546C57.1687 97.0799 56.7929 95.675 56.4564 94.618C55.9616 93.0668 55.5749 91.4936 54.8427 90.0296C53.3904 87.115 51.0018 84.7229 48.3081 82.9263C45.3044 80.9207 42.0061 79.6918 38.5108 78.851C36.1893 78.2939 32.2469 76.5336 30.779 79.2366C30.6657 79.4464 30.621 79.679 30.6218 79.9167C29.982 80.889 29.8754 82.2366 30.9741 83.2329C34.9338 86.8128 35.7766 92.8784 38.715 97.2277C41.5441 101.417 46.5726 104.402 51.4373 105.643C56.4272 106.916 60.6119 104.655 63.8251 100.912C64.6758 99.9199 65.4868 98.886 66.2858 97.8386C65.5513 99.6927 65.0169 101.652 64.4469 103.679C63.9468 105.454 63.3965 107.355 62.7621 109.283C61.8389 110.622 60.7757 111.781 58.9361 112.066C56.3697 112.465 53.9276 111.036 51.6186 110.186C47.7204 108.75 44.7783 109.345 41.0505 110.954C37.0392 112.68 33.0836 114.57 29.2629 116.687C27.0353 117.919 22.742 119.55 21.5323 122.135C19.6832 123.142 19.9642 126.965 22.8961 126.69C33.6959 125.685 46.5696 133.936 56.1626 125.223C60.2032 121.55 62.3565 115.035 64.0082 110.005C65.1464 106.533 65.6821 102.718 66.7178 99.1233C66.6464 99.8374 66.6048 100.563 66.5961 101.294C65.9419 105.778 65.3422 110.288 65.1822 114.821C64.1865 119.045 62.4913 123.052 61.2541 127.232C59.8401 132.011 59.2535 137.109 59.3967 142.086C59.5399 147.041 60.4365 152.023 62.1554 156.683C63.6525 160.738 65.8722 165.877 69.6513 168.268C70.9932 169.119 72.5057 167.97 72.557 166.816C73.0831 166.382 73.3737 165.681 73.0721 164.862C70.9172 159.037 74.6094 153.464 76.1768 147.982C77.5859 143.063 76.8989 138.587 74.4555 134.089C71.4123 128.489 67.0713 124.292 66.704 117.582C66.5128 114.109 66.6233 110.584 66.7628 107.061C67.2702 113.08 69.5364 118.756 73.8609 123.343C79.9231 129.776 88.2156 132.181 96.8564 131.767C97.4055 131.743 97.8056 131.517 98.0802 131.194C98.7481 131.023 99.1838 130.315 99.1703 129.619C99.1252 127.478 97.2886 125.74 96.4424 123.812C95.9394 122.663 95.5129 121.484 94.9913 120.35C95.5653 116.166 92.6808 112.335 88.7872 110.702C86.6024 109.789 84.0969 109.478 81.7524 109.404C78.0204 109.281 68.6466 111.567 69.0028 104.85C69.0064 104.808 68.9423 104.795 68.9387 104.837C68.5112 108.923 72.3769 110.692 75.8786 111.005C79.2894 111.307 82.5945 111.222 85.8697 112.433C86.3032 112.592 86.6935 112.773 87.06 112.97C86.5318 112.756 85.9976 112.557 85.4523 112.397C81.6946 111.271 78.3843 111.838 74.5783 111.901C67.9037 112.015 67.2399 102.861 67.3063 97.289C67.5278 96.6646 67.7776 96.0557 68.0446 95.458C70.7071 91.6787 73.1475 87.6863 75.6221 83.8585C74.3349 92.9475 76.5366 102.512 84.4922 108.012C88.1921 110.569 92.5327 111.499 96.9299 112.002C99.486 112.294 102.055 112.444 104.608 112.765C106.546 113.006 108.399 113.939 110.056 112.687C110.331 112.482 110.345 112.142 110.184 111.862C108.738 109.347 103.707 110.095 101.162 110.002C100.745 109.987 100.324 109.972 99.9067 109.957C102.442 109.015 104.346 106.847 104.805 104.185C106.259 104.588 107.842 104.352 109.229 103.573C110.073 103.1 110.749 102.483 111.346 101.791C109.972 103.604 108.165 104.92 105.425 105.104C105.417 105.101 105.417 105.122 105.422 105.12C108.775 105.287 111.363 103.067 113.247 100.49C114.577 98.6689 115.658 96.6713 116.944 94.8198C117.267 94.3523 118.017 93.6046 117.475 92.9887C117.212 92.6945 116.876 92.5831 116.564 92.6408C114.409 91.2389 110.687 90.5672 108.202 91.0546L108.196 91.0264ZM54.2058 99.2424C50.772 96.514 48.7881 92.8277 46.7533 89.0737C46.87 89.2149 46.9867 89.3561 47.0997 89.4958C49.5974 92.626 51.8735 95.8799 54.7033 98.7274C54.7347 98.7571 54.7755 98.7085 54.7456 98.6751C52.2857 96.1468 50.6214 93.1137 48.8566 90.127C50.0169 91.7305 51.201 93.3174 52.4378 94.8259C52.452 94.8445 52.4772 94.8243 52.463 94.8057C51.2232 93.0327 50.2942 91.085 49.3065 89.1658C49.882 89.9247 50.4204 90.712 50.9342 91.5068C53.0036 94.6832 54.7693 97.9723 57.2446 100.865C57.2603 100.88 57.2841 100.863 57.2699 100.845C54.6155 97.4237 53.1393 93.3601 50.9214 89.6761C50.5153 89.0016 50.0365 88.2163 49.4937 87.4402C51.2899 88.92 52.7677 90.7571 53.7403 93.0414C54.8277 95.5914 55.6022 99.0187 58.1669 100.574C58.9561 101.055 59.7084 101.194 60.4183 101.112C53.6074 103.041 48.7234 94.8651 45.8128 89.6938C46.2865 90.3174 46.7573 90.9485 47.208 91.5975C49.2333 94.5147 51.2319 97.227 54.1857 99.2604C54.2029 99.2715 54.2207 99.2483 54.2035 99.2372L54.2058 99.2424ZM58.5895 103.081C55.3301 104.587 51.993 103.597 48.9376 102.136C46.4083 100.927 43.688 99.4265 41.9525 97.1722C41.0432 95.992 40.4671 94.6243 40.0235 93.2056C40.9595 94.569 41.9971 95.7958 42.9191 96.7696C46.7051 100.777 51.9196 103.913 57.558 102.776C57.5774 102.771 57.5713 102.742 57.5534 102.744C51.7956 103.376 46.2525 100.024 42.896 95.4441C42.1445 94.4213 41.5015 93.3206 40.9485 92.1779C41.8561 93.5259 42.7913 94.8588 43.8215 96.1042C46.6869 99.57 50.203 101.96 54.7789 102.176C54.8206 102.179 54.8331 102.115 54.7913 102.112C49.5357 101.618 46.1419 97.4593 43.7794 93.1051C43.9501 93.3281 44.1222 93.5474 44.2906 93.7651C46.4735 96.5678 49.0281 98.8789 51.9104 100.94C51.9276 100.951 51.9491 100.929 51.9297 100.913C48.983 98.546 46.4243 95.6678 44.5639 92.3671C44.351 91.9893 44.1582 91.5935 43.9743 91.1969C45.2726 93.0838 46.4825 95.0305 48.0842 96.6965C51.4026 100.152 57.5733 104.448 62.0572 100.549C62.0602 100.541 62.0616 100.537 62.0609 100.528C62.0951 100.507 62.133 100.488 62.1672 100.467C61.1082 101.528 59.9354 102.462 58.5895 103.081ZM56.8514 121.284C53.2863 125.664 47.5124 126.609 42.1709 126.06C43.751 125.961 45.3121 125.746 46.887 125.421C48.9943 124.982 51.4236 124.581 53.3794 123.642C55.5153 122.619 55.6098 120.55 57.4552 119.335C57.4723 119.324 57.4521 119.299 57.435 119.31C56.7529 119.691 56.629 120.069 56.0733 120.579C54.8744 121.688 53.9375 122.723 52.2434 123.295C49.8281 124.108 47.0127 124.482 44.4691 124.562C42.4857 124.622 40.0764 124.091 37.7172 123.825C40.8285 123.707 43.936 123.794 47.0229 123.29C51.2076 122.609 55.9524 121.178 58.1195 117.233C58.1366 117.201 58.0873 117.173 58.068 117.199C55.8951 119.873 52.3404 120.882 48.6784 121.193C48.8928 121.152 49.1058 121.116 49.3166 121.074C52.1523 120.54 54.5765 119.519 56.5665 117.394C56.5798 117.382 56.5596 117.357 56.5448 117.373C53.844 119.713 50.6349 120.012 47.3346 119.987C52.5028 118.849 57.4133 117.044 61.2891 113.361C60.1081 116.277 58.674 119.058 56.8574 121.291L56.8514 121.284ZM61.5595 112.657C54.9922 117.915 46.6664 118.263 38.4837 119.057C42.9559 117.683 47.446 116.513 52.2593 116.435C52.2772 116.433 52.2801 116.404 52.2599 116.401C48.683 115.886 45.1282 116.187 41.5877 116.735C45.675 115.449 49.9551 114.81 54.2321 115.442C54.2724 115.45 54.2848 115.386 54.2446 115.378C49.3985 114.352 44.7372 114.439 39.8929 115.511C39.808 115.529 39.7179 115.55 39.633 115.568C40.4595 115.17 41.3206 114.838 42.1899 114.539C45.2809 113.48 48.3478 112.995 51.5407 113.88C51.5743 113.893 51.589 113.834 51.5591 113.822C51.2136 113.66 50.7951 113.507 50.3251 113.364C51.8692 113.617 53.4249 114.026 55.0297 114.628C55.067 114.642 55.0914 114.592 55.0519 114.572C53.591 113.781 51.098 112.513 48.5665 111.778C52.0929 112.105 55.427 114.431 59.1077 113.671C60.2261 113.44 61.0442 112.966 61.6799 112.342C61.6385 112.446 61.5957 112.554 61.558 112.66L61.5595 112.657ZM70.6129 132.338C72.5055 135.655 74.2113 139.292 73.9352 143.214C73.9195 143.428 73.8889 143.636 73.8658 143.847C73.2382 137.979 70.0498 131.951 67.1834 127.518C67.1714 127.504 67.1491 127.517 67.1559 127.533C69.2203 131.441 71.215 135.481 71.8877 139.895C71.9585 140.359 71.9966 140.819 72.0205 141.281C71.5337 139.198 70.854 137.155 70.0283 135.11C70.0103 135.068 69.9567 135.095 69.9673 135.133C70.8677 138.58 71.1693 142.101 70.9768 145.616C70.9259 145.09 70.872 144.573 70.8151 144.063C70.3349 139.707 69.2932 135.44 67.9016 131.294C67.8896 131.259 67.8315 131.275 67.8398 131.308C68.7075 134.98 69.2622 138.678 69.4655 142.436C68.8622 137.825 67.9619 133.299 66.7755 128.776C66.7589 128.709 66.648 128.738 66.6557 128.806C67.1627 132.952 67.5455 137.139 67.7785 141.323C67.5037 139.337 67.2496 137.341 67.0053 135.354C67 135.313 66.9448 135.321 66.9427 135.359C66.8877 137.863 66.681 140.672 66.6376 143.517C65.824 137.29 65.6302 131.003 66.0199 124.735C66.022 124.697 65.9668 124.683 65.9595 124.724C64.8938 131.609 64.5413 138.534 65.0503 145.486C65.1798 147.251 65.3578 149.014 65.5895 150.771C65.2649 149.292 64.9864 147.805 64.7326 146.31C63.6062 139.675 64.4532 133.549 65.1799 126.91C65.1836 126.889 65.1522 126.881 65.1471 126.905C63.8841 133.613 62.9018 139.611 63.581 146.428C63.7721 148.321 63.9453 150.215 64.2169 152.101C62.9769 147.833 62.4576 143.38 62.4905 138.939C62.5388 132.618 64.3835 126.49 65.3613 120.296C66.049 124.738 68.2887 128.258 70.6122 132.329L70.6129 132.338ZM68.649 110.264C70.5325 113.561 73.6527 113.627 77.1016 113.539C79.9195 113.464 82.9946 113.884 85.669 115.043C82.7526 114.397 79.6574 114.202 77.8182 113.909C77.7981 113.906 77.7937 113.939 77.8138 113.942C79.8721 114.455 82.0279 114.93 84.0608 115.649C81.481 114.937 78.8061 114.542 76.1058 114.332C76.064 114.328 76.0531 114.388 76.0933 114.396C80.4388 115.237 84.8559 117.008 88.4799 119.583C88.5472 119.631 88.6092 119.682 88.6749 119.734C83.4466 117.373 77.1122 115.822 75.0221 115.378C74.9781 115.37 74.9709 115.432 75.0096 115.443C78.088 116.377 80.9587 117.847 83.7404 119.454C79.688 118.004 73.3116 117.256 71.3281 113.471C71.3176 113.453 71.2878 113.463 71.2968 113.484C73.0018 116.883 77.1381 117.555 80.3329 119.002C81.7523 119.646 83.1584 120.345 84.5187 121.117C79.5527 119.228 73.392 117.478 70.3815 113.191C70.3568 113.155 70.3063 113.195 70.3273 113.229C72.7363 117.041 76.5225 118.869 80.3914 120.924C81.0468 121.274 81.7052 121.617 82.3546 121.96C80.1954 121.571 78.1413 120.982 76.5472 119.569C76.5338 119.56 76.5137 119.578 76.5257 119.591C78.0913 121.424 80.2772 122.204 82.4196 123.147C79.3346 121.99 76.4189 120.438 74.1025 118.027C74.0748 117.999 74.0317 118.042 74.0542 118.072C75.5562 120.044 77.2711 121.686 79.1834 123.113C76.8076 121.701 74.7189 119.881 73.0548 117.577C73.0406 117.559 73.0153 117.579 73.0295 117.597C74.9012 120.467 77.4312 122.992 80.3274 124.986C73.7294 121.246 68.7723 114.616 67.3052 107.021C67.6256 108.163 68.0645 109.256 68.6416 110.261L68.649 110.264ZM99.3029 107.647C99.6647 107.332 100.015 107.005 100.351 106.668C100.048 107.052 99.6954 107.375 99.3029 107.647ZM99.61 106.348C100.148 105.862 100.736 105.336 101.283 104.784C101.25 104.9 101.218 105.013 101.183 105.124C101.028 105.33 100.869 105.535 100.704 105.733C100.118 106.437 99.5023 107.121 98.8719 107.787C98.834 107.828 98.8491 107.877 98.8827 107.912C96.7772 109.098 93.7592 109.046 90.9975 108.979C90.4695 108.852 89.9452 108.704 89.4245 108.537C91.499 108.552 93.6493 107.82 95.4509 106.66C94.8387 107.432 94.0854 108.113 92.9784 108.641C92.9405 108.661 92.963 108.713 93.0017 108.703C94.9405 108.232 96.558 107.504 98.0318 106.137C98.5318 105.671 99.009 105.109 99.5815 104.71C99.0392 105.457 98.3339 106.214 98.0037 107.08C98.0007 107.088 98.0104 107.096 98.0171 107.09C98.7881 106.571 99.3672 105.708 99.9714 105.011C100.17 104.783 100.405 104.548 100.634 104.298C100.664 104.297 100.693 104.3 100.722 104.303C100.448 104.69 100.194 105.082 99.9384 105.378C98.7812 106.741 97.4962 107.958 95.7972 108.597C95.7867 108.602 95.7898 108.616 95.8039 108.613C97.2644 108.151 98.4778 107.376 99.6137 106.35L99.61 106.348ZM107.963 98.3578C106.448 98.9575 105.047 99.4338 103.739 100.435C103.704 100.46 103.744 100.51 103.778 100.489C104.435 100.085 105.885 99.8781 107.409 99.5929C107.033 99.7804 106.656 99.959 106.286 100.162C105.899 100.376 104.914 101.328 104.473 101.373C104.458 101.376 104.453 101.391 104.462 101.399C104.511 101.44 104.563 101.482 104.612 101.523C104.637 101.546 104.679 101.55 104.709 101.54C105.465 101.188 106.145 100.715 106.939 100.421C107.566 100.19 108.218 100.025 108.842 99.7893C107.819 100.782 106.598 101.619 105.259 102.069C105.219 102.083 105.242 102.144 105.282 102.13C106.02 101.913 106.734 101.678 107.421 101.393C106.799 101.941 106.155 102.454 105.464 102.935C105.355 103.013 105.451 103.185 105.573 103.138C106.445 102.811 107.282 102.365 108.058 101.835C107.211 102.795 106.175 103.429 104.812 103.394C104.693 102.768 104.227 102.342 103.673 102.161C103.579 101.887 103.415 101.645 103.159 101.474C102.45 100.999 101.705 100.82 100.98 100.874C101.399 100.384 101.831 99.9035 102.301 99.4467C102.941 98.8328 103.654 98.4594 104.411 98.2154C103.562 98.9105 102.922 99.7963 102.662 100.811C102.656 100.826 102.679 100.835 102.688 100.822C103.855 99.2597 105.079 98.5448 107.007 98.2552C107.503 98.1798 108.001 98.1528 108.503 98.1273C108.319 98.2009 108.134 98.2745 107.95 98.3482L107.963 98.3578ZM101.998 93.88C101.91 93.9183 101.821 93.9566 101.737 93.9964C101.902 93.8721 102.078 93.7561 102.261 93.6429C102.17 93.7192 102.083 93.797 101.998 93.88Z" fill="#CE726F"/>
<path d="M85.2029 64.5324C85.3181 64.2199 85.113 63.953 84.8606 63.784C84.3864 63.4666 83.6296 63.5466 83.2712 64.0046C82.8498 64.5455 82.9576 65.145 83.3274 65.6713C83.7325 66.2504 84.4258 66.3524 85.0799 66.3137C85.0889 66.313 85.0873 66.2951 85.0784 66.2959C84.2456 66.3717 83.3028 65.8644 83.404 64.9334C83.4365 64.6225 83.5952 64.4178 83.8848 64.3297C83.9779 64.3018 84.0956 64.288 84.2051 64.3055C84.0494 64.5244 84.099 64.8677 84.4561 64.9358C84.7693 64.9951 85.0944 64.8391 85.2066 64.5339L85.2029 64.5324Z" fill="#CE726F"/>
<path d="M82.0052 60.2058C82.0052 60.2058 81.997 60.1939 81.9903 60.1999C81.52 60.8423 81.5867 61.8398 82.1125 62.4409C82.5666 62.9617 83.4852 63.1487 83.9952 62.5911C84.4511 62.0941 84.2823 61.082 83.5287 60.9906C82.6222 60.8819 82.6357 62.2425 83.3437 62.5143C82.9986 62.7099 82.5823 62.5407 82.3101 62.2689C81.7405 61.7022 81.7907 60.9107 82.003 60.2006L82.0052 60.2058ZM83.6314 61.8643C83.642 61.903 83.6451 61.9388 83.6504 61.9798C83.5554 61.8601 83.5545 61.6008 83.6314 61.8643Z" fill="#CE726F"/>
<path d="M88.1543 65.624C87.4338 65.645 86.775 66.2947 86.7551 67.0206C86.7415 67.6324 87.2284 68.1792 87.8505 68.1667C87.8684 68.1651 87.8661 68.1383 87.8497 68.1361C87.3232 68.0053 87.0098 67.4236 87.3062 66.9368C87.3551 66.8569 87.4189 66.7829 87.4947 66.7223C87.4972 66.7923 87.4982 66.8661 87.5283 66.9427C87.6943 67.3624 88.1784 67.5024 88.578 67.3327C89.5363 66.9182 89.1445 65.5976 88.1543 65.624ZM88.0837 66.5758C88.1188 66.6069 88.1158 66.6144 88.0711 66.5967C88.074 66.5892 88.077 66.5818 88.0799 66.5743L88.0837 66.5758Z" fill="#CE726F"/>
<path d="M90.0303 68.0248C89.8486 68.0477 89.6463 68.1661 89.5828 68.3481C89.4987 68.5824 89.4779 68.8202 89.5949 69.0478C89.6421 69.1356 89.6982 69.201 89.7625 69.2566C89.7156 69.2769 89.6672 69.3009 89.6173 69.307C89.2881 69.3536 89.0577 69.0637 88.9859 68.7763C88.9497 68.6282 88.6987 68.6626 88.688 68.8094C88.6112 69.6896 89.4745 70.2777 90.2895 69.9963C90.7405 69.8383 91.0842 69.4392 91.0744 68.952C91.0621 68.3946 90.5942 67.9633 90.0326 68.03L90.0303 68.0248ZM90.6179 68.5898C90.6179 68.5898 90.612 68.6048 90.6128 68.6137C90.6083 68.6033 90.6052 68.5891 90.6007 68.5787C90.5498 68.4895 90.5557 68.4962 90.6194 68.5861L90.6179 68.5898Z" fill="#CE726F"/>
<path d="M87.5929 64.4048C87.8365 64.389 88.0109 64.1992 88.0049 63.9421C88.0056 63.9295 87.9996 63.9228 88.0003 63.9101C88.1897 63.519 88.1378 63.1273 87.9301 62.7472C87.7697 62.4549 87.2974 62.4922 87.1178 62.7275C86.8685 63.0517 86.7705 63.6042 86.9335 63.9882C86.9268 63.9942 86.9187 64.0039 86.9134 64.0061C86.4864 64.2125 86.0846 63.6907 86.0863 63.3159C86.0854 63.2854 86.0362 63.2788 86.0259 63.3049C85.7903 63.954 86.3814 64.6629 87.063 64.6092C87.2597 64.5921 87.4405 64.517 87.5966 64.4062L87.5929 64.4048Z" fill="#CE726F"/>
<path d="M85.1953 60.248C84.8889 60.1827 84.6665 59.8615 84.7437 59.5468C84.801 59.3149 85.0203 59.1644 85.2407 59.0877C85.2733 59.2559 85.3893 59.4098 85.5393 59.4995C85.602 59.5373 85.7305 59.8341 85.8104 59.9047C85.9457 60.0316 86.107 60.1257 86.2919 60.1601C86.7236 60.2362 87.1131 59.9502 87.2235 59.5408C87.3685 59.0113 87.0792 58.4996 86.6372 58.2425C86.681 58.1864 86.7143 58.1133 86.6813 58.0441C86.6197 57.9162 86.5158 57.7973 86.4171 57.6978C86.3872 57.6643 86.3595 57.6361 86.3281 57.6064C86.4553 57.3072 86.4324 56.9399 86.1925 56.7067C85.9779 56.4966 85.6427 56.5148 85.4467 56.748C85.2671 56.9617 85.2385 57.3172 85.3079 57.5778C85.3064 57.5815 85.3124 57.5882 85.3147 57.5934C85.2251 57.5579 85.1385 57.515 85.0907 57.4615C85.0525 57.4162 84.9736 57.441 84.979 57.5036C85.0071 57.8686 85.3036 58.0897 85.6263 58.0923C85.636 58.1005 85.6442 58.1124 85.654 58.1206C85.0822 58.2782 84.5294 58.7584 84.4561 59.3466C84.4003 59.8036 84.688 60.2974 85.1858 60.283C85.2036 60.2815 85.205 60.2562 85.1849 60.2525L85.1953 60.248ZM86.1015 59.1481C86.1068 59.1675 86.1135 59.1831 86.1151 59.201C86.0763 59.1899 86.0747 59.1721 86.0978 59.1466L86.1015 59.1481Z" fill="#CE726F"/>
<path d="M81.9356 58.1152C81.9902 58.6202 82.3347 59.1235 82.8446 59.209C83.2979 59.285 83.7522 58.9772 83.8468 58.5313C83.9445 58.0995 83.7402 57.6345 83.3847 57.3771C83.2136 57.2533 83.0078 57.1846 82.7998 57.154C82.7004 57.0888 82.5722 57.0639 82.4405 57.1239C82.4197 57.133 82.4034 57.1524 82.3862 57.1629C82.0832 57.2198 81.8087 57.3787 81.6443 57.6631C81.3338 58.1962 81.5703 58.9502 82.1545 59.1643C82.1694 59.1703 82.1857 59.1508 82.17 59.136C81.8518 58.8934 81.7638 58.4183 81.9371 58.1114L81.9356 58.1152ZM82.858 58.0965C82.8385 58.0585 82.825 58.0273 82.819 57.999C82.8616 58.0547 82.8991 58.1127 82.9366 58.1923C82.9052 58.1626 82.8776 58.1344 82.8543 58.095L82.858 58.0965Z" fill="#CE726F"/>
<path d="M91.6111 63.6528C91.2868 63.3819 90.7935 63.385 90.5332 63.748C90.2469 64.1439 90.4401 64.6477 90.6552 65.0308C90.5339 65.0647 90.4057 65.0614 90.2886 65.0193C90.1319 64.9572 90.0442 64.8189 89.8921 64.7673C89.8212 64.7392 89.7595 64.7752 89.7388 64.849C89.6675 65.1272 89.9814 65.4026 90.1956 65.5263C90.5084 65.7064 90.8893 65.7364 91.2264 65.5937C91.9459 65.2917 92.2575 64.1894 91.6111 63.6528ZM91.0401 64.484C91.0593 64.4139 90.9626 64.4836 91.0401 64.484Z" fill="#CE726F"/>
<path d="M92.9008 66.0629C92.7188 66.021 92.4935 66.1433 92.424 66.3186C92.2555 66.7439 92.1155 67.2063 92.3032 67.6476C92.3708 67.8038 92.4875 67.945 92.625 68.0556C92.5149 68.094 92.4024 68.1055 92.2838 68.0672C92.0727 68.0008 91.8917 67.8039 91.7102 67.6846C91.6953 67.6787 91.6797 67.6854 91.685 67.7048C91.9476 68.4692 92.7366 68.6782 93.3491 68.2216C93.5046 68.1667 93.5982 68.0613 93.632 67.9323C94.1372 67.2346 93.78 66.2731 92.903 66.0681L92.9008 66.0629Z" fill="#CE726F"/>
<path d="M91.958 55.4991C91.3908 54.7954 90.1823 55.046 89.701 55.7272C89.4266 56.1149 89.4411 57.1133 90.1115 57.0552C90.1346 57.0514 90.1501 57.023 90.1307 57.0067C89.7716 56.5623 89.9512 56.1198 90.3866 55.9902C90.3785 56.0215 90.3705 56.0528 90.3661 56.0856C90.3138 56.5009 90.5491 56.8875 90.94 57.0338C91.8853 57.3823 92.5402 56.2304 91.9528 55.5014L91.958 55.4991Z" fill="#CE726F"/>
<path d="M86.6944 55.0368C86.6886 55.0949 86.6843 55.1493 86.6927 55.2044C86.729 55.5814 87.0139 55.8971 87.3934 55.9525C87.7639 56.0086 88.1798 55.8194 88.291 55.4405C88.4207 55.0042 88.1437 54.5923 87.7741 54.3812C87.1963 54.053 86.2659 54.1463 86.0089 54.8386C85.8494 55.2631 86.0491 55.9465 86.5767 55.9656C86.6058 55.9685 86.628 55.9341 86.5989 55.9096C86.2947 55.6424 86.3281 55.155 86.6906 55.0353L86.6944 55.0368Z" fill="#CE726F"/>
<path d="M84.5841 55.9401C85.4274 55.6526 85.1676 54.6088 84.4974 54.2958C83.9474 54.0391 83.1633 54.199 82.9395 54.8182C82.7816 55.2606 82.9972 55.7948 83.4618 55.9185C83.5394 55.9406 83.5837 55.8287 83.524 55.7834C83.2192 55.5504 83.3005 55.1381 83.5996 55.0149C83.5104 55.5234 84.014 56.1372 84.5878 55.9416L84.5841 55.9401Z" fill="#CE726F"/>
<path d="M90.3684 60.3509C90.0526 59.6992 89.1328 59.3953 88.5089 59.7826C87.9549 60.1242 87.7815 60.8453 88.1246 61.3956C88.1935 61.5049 88.378 61.4313 88.3582 61.3069C88.3073 61.0105 88.4812 60.6478 88.7214 60.4883C88.5481 61.0455 88.7182 61.7603 89.303 61.9401C90.2227 62.2224 90.7031 61.0532 90.3632 60.3532L90.3684 60.3509Z" fill="#CE726F"/>
<path d="M94.0312 62.5009C93.7534 62.516 93.6052 62.781 93.603 63.0262C93.6033 63.5485 93.7626 64.4101 94.3562 64.5244C94.2911 64.6669 94.1864 64.7895 94.0294 64.8481C93.8307 64.9248 93.6612 64.8188 93.463 64.818C93.416 64.8166 93.3708 64.8764 93.3798 64.9188C93.4435 65.2376 93.8521 65.3174 94.1359 65.2874C94.5769 65.242 94.9178 64.9152 95.0909 64.522C95.4643 63.6772 95.1168 62.4519 94.0312 62.5009Z" fill="#CE726F"/>
<path d="M97.0994 57.2726C96.8772 56.9947 96.4877 56.8447 96.1378 56.9435C95.6666 57.0762 95.6479 57.5047 95.6575 57.9272C95.6655 58.3101 95.7994 58.6912 96.1072 58.9383C96.152 58.9777 96.2051 59.0073 96.2581 59.0369C96.0695 59.2514 95.7853 59.3805 95.5122 59.2637C95.4973 59.2578 95.4861 59.2749 95.4944 59.2868C95.809 59.7783 96.4593 59.7382 96.8418 59.3502C97.3186 58.8657 97.5625 57.8359 97.1046 57.2703L97.0994 57.2726Z" fill="#CE726F"/>
<path d="M94.4502 60.1033C94.5556 59.9897 94.5939 59.8495 94.5704 59.7236C94.6489 59.1332 94.2079 58.4924 93.5868 58.3931C93.3237 58.3493 93.0821 58.5341 93.0323 58.7906C92.9406 59.2291 93.0048 59.7206 93.3375 60.0467C93.3652 60.0749 93.3958 60.0957 93.4287 60.1216C93.3877 60.127 93.3467 60.1323 93.311 60.1354C93.1352 60.1435 93.0021 60.0217 92.8359 60.0163C92.8285 60.0133 92.8218 60.0193 92.8174 60.0305C92.7452 60.2997 93.1692 60.5152 93.3713 60.5607C93.7076 60.6378 94.0902 60.5218 94.3204 60.2677C94.3515 60.2326 94.3678 60.1915 94.3967 60.1512C94.4153 60.137 94.4339 60.1227 94.4525 60.1085L94.4502 60.1033Z" fill="#CE726F"/>
<path d="M95.0766 54.1967C94.8764 53.8195 94.5359 53.3825 94.054 53.4333C93.6346 53.4787 93.4079 53.855 93.3838 54.2425C93.3512 54.7389 93.6538 55.4458 94.1271 55.7109C93.7516 55.929 93.6191 55.5442 93.3393 55.4334C93.3207 55.426 93.2976 55.4298 93.2828 55.4455C93.1135 55.6331 93.3156 55.9074 93.4695 56.0417C93.7169 56.2563 94.0584 56.3311 94.3711 56.2392C95.2391 55.9874 95.4613 54.9144 95.0729 54.1952L95.0766 54.1967Z" fill="#CE726F"/>
<path d="M90.6044 52.2048C90.3571 52.4694 90.3602 52.9411 90.4797 53.2604C90.5361 53.4122 90.6349 53.5549 90.7524 53.6834C90.6697 53.6852 90.5884 53.6832 90.5273 53.6633C90.5161 53.6589 90.5049 53.6761 90.5132 53.6879C90.6794 53.9221 90.8318 54.0386 91.1291 54.0398C91.2014 54.0426 91.2744 54.0327 91.3436 54.0212C91.7447 54.0765 92.1524 53.8971 92.192 53.4596C92.1984 53.3888 92.1817 53.3001 92.113 53.2557C92.113 53.2557 92.1093 53.2542 92.1056 53.2527C92.1794 52.8158 91.9736 52.3329 91.5661 52.1196C91.2623 51.9605 90.8516 51.9402 90.6029 52.2086L90.6044 52.2048Z" fill="#CE726F"/>
<path d="M97.9359 62.0797C97.8213 61.6933 97.4963 61.4135 97.1018 61.3306C96.3204 61.1678 95.6614 61.7527 95.6438 62.5269C95.6352 62.8429 95.7118 63.2488 95.9332 63.4962C96.0828 63.6633 96.3557 63.7153 96.4592 63.4758C96.4651 63.4609 96.4457 63.4445 96.4308 63.4602C96.1762 63.5147 96.0455 63.4414 96.0381 63.2313C96.0275 63.171 96.0221 63.1084 96.0204 63.0473C96.0154 62.9072 96.0284 62.7656 96.0689 62.6306C96.0999 62.5306 96.1502 62.4254 96.2125 62.3336C96.2707 62.8184 96.7325 63.1999 97.2189 63.1595C97.7344 63.1221 98.0746 62.5576 97.9336 62.0745L97.9359 62.0797Z" fill="#CE726F"/>
<path d="M96.6823 66.4862C96.9962 66.7616 97.4526 66.6662 97.7012 66.3547C98.2548 65.6546 97.5817 64.7061 96.7785 64.7289C96.1154 64.7467 95.4689 65.2891 95.4362 65.971C95.4125 66.4666 95.8497 67.0628 96.3907 66.8627C96.4153 66.8552 96.4174 66.8172 96.3913 66.8069C95.9675 66.6347 95.7363 66.1287 96.1338 65.7899C96.1843 65.7494 96.2461 65.7135 96.31 65.6827C96.3289 65.9837 96.4506 66.2866 96.6771 66.4885L96.6823 66.4862Z" fill="#CE726F"/>
<path d="M96.4249 68.8572C96.9368 68.1752 96.3008 67.3837 95.5454 67.4168C95.1579 67.436 94.8091 67.6301 94.5089 67.8651C94.2071 68.1038 94.0712 68.2399 94.1791 68.6322C94.2402 68.8593 94.3802 69.0615 94.638 69.0644C94.8057 69.066 94.9388 68.9806 94.9733 68.8173C94.9836 68.7696 94.9201 68.7445 94.8927 68.7811C94.8309 68.7955 94.7728 68.8113 94.7095 68.8294C94.6229 68.7649 94.5839 68.689 94.5955 68.5943C94.5901 68.5534 94.5975 68.5131 94.601 68.4713C94.7565 68.3948 94.9128 68.3272 95.078 68.2805C95.0246 69.0146 95.9346 69.5176 96.4235 68.861L96.4249 68.8572Z" fill="#CE726F"/>
<path d="M87.6799 51.1544C86.8395 51.4127 86.6217 52.2674 86.9498 52.9973C86.9566 53.0129 86.9871 53.0121 86.9833 52.989C86.8752 52.5318 87.2765 51.9657 87.7366 51.8717C87.6703 52.1044 87.6712 52.3637 87.7591 52.5669C88.0032 53.1599 88.7095 53.3491 89.2751 53.1416C89.5125 53.0543 89.6012 52.8305 89.6064 52.5995C89.6135 52.0585 89.2744 51.5745 88.8137 51.31C88.7846 51.2856 88.7488 51.267 88.7167 51.25C88.6906 51.2397 88.6644 51.2293 88.6383 51.219C88.6383 51.219 88.6383 51.219 88.6346 51.2175C88.3354 51.0903 88.0044 51.0542 87.6851 51.1521L87.6799 51.1544Z" fill="#CE726F"/>
<path d="M94.3549 51.606C93.9237 51.2453 93.17 51.3611 92.7261 51.6427C92.5023 51.7828 92.3458 51.9927 92.4108 52.2645C92.4531 52.4409 92.5803 52.5992 92.771 52.5971C92.8016 52.5962 92.8194 52.5731 92.832 52.5522C92.8349 52.5447 92.8416 52.5387 92.8409 52.5298C92.8195 52.3875 92.7366 52.3245 92.8763 52.2115C92.9097 52.1816 92.9649 52.1732 93.014 52.1581C92.9892 52.5367 93.2469 52.9539 93.68 53.0263C94.4808 53.1622 94.9818 52.1262 94.3526 51.6008L94.3549 51.606Z" fill="#CE726F"/>
<path d="M97.6435 56.1932C97.6993 56.1721 97.7522 56.1586 97.8087 56.1248C98.0035 56.0035 98.0115 55.7218 97.8992 55.5478C97.8827 55.524 97.864 55.495 97.8452 55.466C97.8628 55.3564 97.8699 55.2513 97.8763 55.1589C97.8869 54.7833 97.7031 54.4084 97.2976 54.3427C96.892 54.277 96.6047 54.5991 96.5396 54.9704C96.4672 55.3819 96.6692 55.8634 96.9956 56.0962C96.9427 56.2954 96.8464 56.473 96.6501 56.3694C96.4933 56.2857 96.4209 56.0326 96.2804 55.9079C96.273 55.9049 96.2603 55.9042 96.2573 55.9117C96.0694 56.3206 96.4379 56.8939 96.9072 56.8424C97.2551 56.8033 97.4904 56.5253 97.6412 56.188L97.6435 56.1932Z" fill="#CE726F"/>
<path d="M99.1876 61.1642C99.1876 61.1642 99.1921 61.153 99.1935 61.1493C99.4415 61.1008 99.5664 60.7964 99.4882 60.5798C99.4762 60.5448 99.456 60.5195 99.4373 60.4905C99.4482 60.4301 99.4592 60.3698 99.4687 60.3131C99.5213 59.9843 99.5022 59.6401 99.3447 59.3403C99.1895 59.0458 98.8684 58.8323 98.5268 58.9645C98.2009 59.0901 98.0545 59.4378 98.0504 59.7642C98.0462 60.0906 98.1382 60.4032 98.312 60.6835C98.3585 60.7624 98.4093 60.83 98.4632 60.8902C98.4505 60.8895 98.4453 60.8917 98.4312 60.8948C98.3 60.8989 98.1712 60.9083 98.0415 60.9087C97.9536 60.9128 97.8907 61.0389 97.9542 61.1072C98.2818 61.4571 98.8478 61.608 99.1862 61.168L99.1876 61.1642Z" fill="#CE726F"/>
<path d="M92.5874 62.572C93.0326 62.2434 93.0438 61.5832 92.67 61.1977C92.332 60.8524 91.7613 60.855 91.4885 61.2821C91.3788 61.4501 91.3548 61.6522 91.3771 61.8466C91.2001 61.9448 91.0942 62.1575 91.1761 62.3539C91.3924 62.8756 92.183 62.8737 92.5874 62.572Z" fill="#CE726F"/>
<path d="M91.1181 59.4825C91.1799 59.4681 91.2035 59.4084 91.1922 59.3608C91.5586 59.3074 91.8741 58.936 91.8474 58.5457C91.8121 58.0138 91.2352 57.7377 90.7648 57.901C89.8769 58.2139 90.1344 59.6885 91.1181 59.4825Z" fill="#CE726F"/>
<path d="M86.3793 60.8983C85.8913 60.692 85.3544 61.0015 85.292 61.5293C85.2768 61.6657 85.2966 61.7901 85.3372 61.9054C85.4203 62.4692 86.0747 62.7241 86.5682 62.3499C87.0922 61.9532 86.9763 61.1563 86.3816 60.9035L86.3793 60.8983Z" fill="#CE726F"/>
<path d="M85.4911 66.4853C85.3832 66.7576 85.4201 67.1003 85.7513 67.2013C85.7662 67.2072 85.7811 67.2131 85.7961 67.219C86.0795 67.3097 86.2872 67.2539 86.4967 67.052C87.2498 66.3274 86.0976 64.6711 85.3486 65.5484C85.1148 65.8226 85.1321 66.3129 85.4874 66.4838L85.4911 66.4853Z" fill="#CE726F"/>
<path d="M82.4289 60.3565C82.5228 61.2525 83.9135 61.1086 83.8196 60.2125C83.7257 59.3164 82.3351 59.4604 82.4289 60.3565Z" fill="#CE726F"/>
<path d="M81.4498 56.5415C81.5437 57.4376 82.9344 57.2936 82.8405 56.3975C82.7466 55.5015 81.3559 55.6454 81.4498 56.5415Z" fill="#CE726F"/>
<path d="M92.1319 70.0958C92.2204 70.951 93.5485 70.8124 93.46 69.9573C93.3715 69.1022 92.0433 69.2407 92.1319 70.0958Z" fill="#CE726F"/>
<path d="M90.1228 67.1376C90.2044 67.9339 91.4416 67.8069 91.36 67.0106C91.2784 66.2143 90.0411 66.3414 90.1228 67.1376Z" fill="#CE726F"/>
<path d="M99.3198 64.1428C99.215 63.1216 97.6239 63.2811 97.7309 64.3076C97.8357 65.3288 99.4268 65.1692 99.3198 64.1428Z" fill="#CE726F"/>
<path d="M88.2699 56.7139C88.1187 56.736 87.9625 56.8252 87.9071 56.9759C87.7224 57.4639 87.6282 58.0178 87.9419 58.4788C87.9502 58.4906 87.9621 58.504 87.9704 58.5159C87.7139 58.4877 87.4446 58.3724 87.3877 58.0909C87.3839 58.0678 87.3504 58.0761 87.3542 58.0992C87.4531 58.4923 87.6797 58.7158 88.072 58.8367C88.2958 58.9038 88.568 58.9685 88.8205 58.952C88.8473 58.9497 88.8727 58.9511 88.8972 58.9435C89.0753 58.9191 89.2367 58.8493 89.3569 58.6983C89.9899 57.9176 89.2582 56.5832 88.2684 56.7176L88.2699 56.7139ZM88.8007 57.9126C88.7671 57.8993 88.7417 57.8763 88.7215 57.851C88.693 57.8138 88.6765 57.7684 88.6718 57.7148C88.7272 57.7712 88.7706 57.8359 88.8007 57.9126Z" fill="#CE726F"/>
<path d="M88.7922 54.6982C88.8599 55.3336 89.8491 55.2334 89.7829 54.5943C89.7152 53.9589 88.726 54.0591 88.7922 54.6982Z" fill="#CE726F"/>
<path d="M93.7771 57.3464C93.704 56.6484 92.6239 56.7601 92.697 57.458C92.7701 58.156 93.8502 58.0443 93.7771 57.3464Z" fill="#CE726F"/>
<path d="M90.1861 63.1315C90.096 62.2585 88.7336 62.3964 88.8274 63.2709C88.9175 64.1439 90.2799 64.006 90.1861 63.1315Z" fill="#CE726F"/>
<path d="M95.3169 61.6852C95.2337 60.871 93.9659 60.9989 94.0513 61.8183C94.1345 62.6325 95.4023 62.5045 95.3169 61.6852Z" fill="#CE726F"/>
<path d="M95.3983 57.928C95.3167 57.1534 94.1115 57.2759 94.1916 58.0543C94.2731 58.8289 95.4783 58.7065 95.3983 57.928Z" fill="#CE726F"/>
<path d="M99.0597 57.8808C99.0546 57.7191 99.0013 57.5814 98.9018 57.4513C98.559 57.0091 97.8254 57.107 97.6648 57.6649C97.5167 58.1802 97.9526 58.6162 98.4479 58.5534C98.7981 58.5411 99.0752 58.2883 99.0597 57.8808Z" fill="#CE726F"/>
<path d="M91.4587 51.0069C91.3633 50.093 89.942 50.2378 90.036 51.1555C90.1314 52.0694 91.5527 51.9246 91.4587 51.0069Z" fill="#CE726F"/>
<path d="M84.6397 53.3811C84.742 54.3539 86.2541 54.1976 86.1518 53.2248C86.0494 52.252 84.5373 52.4083 84.6397 53.3811Z" fill="#CE726F"/>
</svg>
