<svg width="213" height="216" viewBox="0 0 213 216" fill="none" xmlns="http://www.w3.org/2000/svg">
<path d="M111.209 154.753C111.168 154.769 111.143 154.706 111.185 154.693C117.571 152.215 124.716 150.183 131.476 152.495C135.919 154.015 139.235 157.449 139.271 162.355C139.309 167.42 132.544 176.492 127.47 170.384C123.205 165.249 131.785 158.821 135.472 163.541C135.733 162.708 135.718 161.755 135.236 160.483C134.442 159.361 133.658 158.32 132.764 157.401C131.605 156.535 130.243 155.897 128.981 155.447C124.3 153.775 119.023 154.204 114.277 155.385C114.235 155.397 114.225 155.328 114.265 155.321C118.358 154.29 122.772 153.47 126.954 154.057C123.277 152.989 118.99 152.823 115.385 153.789C115.374 153.794 115.371 153.777 115.379 153.774C118.873 152.714 124.313 152.566 128.929 153.922C127.789 153.278 126.513 152.812 124.993 152.637C124.984 152.636 124.986 152.619 124.995 152.619C127.521 152.698 129.894 153.678 131.976 155.119C132.49 155.382 132.98 155.671 133.443 155.989C132.652 155.201 131.745 154.559 130.777 153.846C130.77 153.84 130.771 153.832 130.784 153.831C131.096 153.901 131.434 154.013 131.788 154.154C125.557 150.869 117.447 152.394 111.206 154.746L111.209 154.753Z" fill="#CE726F"/>
<path d="M140.008 136.879C140.194 137.219 140.17 137.691 139.84 138.003C139.824 138.018 139.803 138.03 139.789 138.049C141.369 141.199 136.111 146.131 133.876 147.724C129.452 150.884 123.943 151.348 118.674 151.481C118.656 151.479 118.653 151.45 118.673 151.446C123.413 150.773 128.336 150.191 132.172 147.148C131.906 147.283 131.643 147.414 131.399 147.54C128.66 148.927 125.822 149.75 122.772 150.069C122.761 150.073 122.757 150.053 122.766 150.054C125.683 149.464 128.505 148.449 131.019 146.841C131.07 146.807 131.115 146.768 131.166 146.735C127.98 148.519 124.427 149.366 120.892 150.248C120.873 150.255 120.865 150.224 120.88 150.218C124.55 148.989 128.355 147.646 131.441 145.249C132.167 144.685 132.844 144.063 133.48 143.401C132.877 143.916 132.282 144.376 131.77 144.761C129.423 146.528 126.803 147.803 123.988 148.629C123.981 148.632 123.975 148.617 123.982 148.614C126.656 147.585 129.117 146.148 131.258 144.242C130.315 144.901 129.326 145.487 128.272 145.943C128.257 145.949 128.241 145.93 128.256 145.915C129.511 145.008 130.704 144.052 131.774 142.942C131.101 143.454 130.436 143.986 129.759 144.521C126.807 146.865 123.406 149.153 119.81 150.34C119.751 150.363 119.682 150.278 119.747 150.235C123.045 147.936 126.224 145.84 129.167 143.124C127.165 144.401 125.1 145.616 123.408 147.296C123.377 147.326 123.329 147.28 123.353 147.244C123.711 146.71 124.139 146.208 124.604 145.726C123.775 146.456 122.957 147.203 122.17 147.972C122.158 147.986 122.133 147.965 122.148 147.951C123.169 146.791 126.414 142.627 129.563 140.093C129.293 140.208 129.028 140.335 128.763 140.483C127.146 141.391 125.949 142.651 124.813 144.098C124.807 144.105 124.797 144.1 124.801 144.09C125.605 142.239 127.083 140.631 128.771 139.544C128.918 139.446 129.078 139.349 129.244 139.244C126.74 140.322 125.257 142.8 123.568 145.455C120.787 149.832 116.823 152.507 111.701 153.371C111.681 153.375 111.677 153.342 111.697 153.338C115.225 152.657 118.482 150.875 120.819 148.114C122.574 146.038 123.459 143.435 124.875 141.16C124.658 141.376 124.44 141.587 124.255 141.829C123.773 142.452 123.412 143.143 123.066 143.849C123.059 143.865 123.032 143.863 123.038 143.843C123.204 143.108 123.56 142.186 124.059 141.41C122.609 143.141 121.748 146.668 120.652 147.909C118.812 149.997 115.72 151.563 113.074 152.27C113.066 152.273 113.061 152.258 113.068 152.256C114.954 151.612 116.995 150.51 118.537 149.26C120.766 147.458 121.174 145.337 122.153 142.808C122.919 140.83 124.426 138.783 126.751 138.781C126.751 138.781 126.751 138.781 126.755 138.78C127.718 137.855 128.847 137.153 130.191 136.831C132.928 136.179 135.819 137.386 138.387 135.98C139.185 135.543 139.874 136.16 140.01 136.874L140.008 136.879ZM128.857 142.246C128.778 142.307 128.697 142.374 128.616 142.432C128.998 142.155 129.372 141.878 129.732 141.61C129.838 141.529 129.952 141.445 130.065 141.362C129.649 141.651 129.245 141.95 128.857 142.246Z" fill="#CE726F"/>
<path d="M146.891 145.745C147.027 145.903 147.092 146.101 147.107 146.303C147.746 146.792 148.338 147.351 148.873 147.916C149.971 149.074 150.87 150.397 152.027 151.497C153.092 152.508 154.29 153.004 155.548 153.719C156.322 154.159 156.333 155.069 155.952 155.751C156.008 156.307 155.774 156.905 155.086 157.303C151.354 159.463 147.282 159.229 143.299 157.859C139.876 156.681 135.395 155.349 133.242 152.214C133.231 152.197 133.254 152.179 133.269 152.195C134.3 153.271 135.676 154.064 137.169 154.663C136.304 154.082 135.529 153.423 134.913 152.652C134.911 152.645 134.917 152.638 134.922 152.64C136.63 153.923 138.478 154.71 140.491 155.389C140.72 155.467 140.949 155.544 141.177 155.618C138.924 154.594 136.82 153.326 135.132 152.298C135.125 152.292 135.133 152.28 135.138 152.283C137.344 153.243 139.532 154.288 141.809 155.078C140.502 154.383 139.334 153.56 138.445 152.686C138.442 152.679 138.45 152.667 138.457 152.673C140.768 154.368 143.261 155.267 146.087 155.637C146.292 155.663 146.498 155.681 146.707 155.697C144.846 155.205 143.024 154.571 141.261 153.759C139.581 152.983 138.013 152.163 136.14 151.946C134.339 151.736 132.895 151.959 131.197 151.246C131.181 151.239 131.184 151.212 131.205 151.212C134.297 151.947 137.201 150.93 140.337 151.962C140.963 152.168 141.585 152.366 142.201 152.558C141.637 152.259 141.089 151.941 140.591 151.556C140.588 151.548 140.585 151.541 140.597 151.54C141.452 151.693 142.463 151.967 143.491 152.34C143.365 152.274 143.24 152.198 143.112 152.136C139.977 150.672 136.79 151.538 133.515 150.941C133.477 150.934 133.481 150.876 133.52 150.878C136.96 151.108 140.037 150.169 143.281 151.375C141.473 150.46 139.559 149.987 137.41 150.183C137.402 150.186 137.396 150.171 137.404 150.168C137.92 150.033 138.445 149.954 138.98 149.919C137.694 149.941 136.369 150.203 134.987 150.616C134.969 150.623 134.961 150.592 134.976 150.586C138.733 148.554 142.457 149.012 146.083 150.351C145.967 150.233 145.852 150.119 145.732 150.011C143.511 148.741 140.998 148.313 138.235 148.747C138.227 148.75 138.222 148.735 138.229 148.732C139.921 148.209 141.609 148.101 143.264 148.334C142.73 148.067 142.174 147.817 141.576 147.561C141.561 147.555 141.565 147.531 141.577 147.531C143.245 147.284 145.008 148.14 146.339 149.158C146.426 149.192 146.518 149.238 146.606 149.276C144.827 147.542 142.624 146.555 139.822 147.851C139.774 147.87 139.748 147.806 139.794 147.78C141.419 146.795 143.074 146.679 144.646 147.105C144.579 147.058 144.517 147.009 144.451 146.962C143.834 146.68 143.14 146.519 142.335 146.544C139.526 146.634 137.968 148.879 135.528 149.987C133.436 150.937 131.278 151.015 129.051 150.654C129.028 150.651 129.036 150.617 129.055 150.622C133.399 151.03 135.785 148.807 138.921 146.403C137.318 147.194 135.825 148.286 134.28 149.191C134.273 149.194 134.265 149.184 134.275 149.176C134.931 148.666 135.906 147.878 137.009 147.113C136.79 147.256 136.571 147.39 136.358 147.518C134.562 148.562 132.724 149.51 130.793 150.279C130.781 150.284 130.775 150.269 130.787 150.265C132.88 149.077 134.986 147.91 136.932 146.483C138.093 145.631 139.276 144.195 140.644 143.662C142.893 142.78 145.437 144.068 146.892 145.749L146.891 145.745ZM137.997 146.459C139.328 145.634 140.764 144.944 142.043 144.839C142.135 144.82 142.229 144.808 142.319 144.794C140.81 144.701 139.344 145.576 137.999 146.462L137.997 146.459Z" fill="#CE726F"/>
<path d="M152.959 176.808C153.717 177.522 153.619 179.149 152.266 179.383C152.169 179.4 152.072 179.417 151.975 179.434C151.478 179.518 151.022 179.337 150.707 179C150.678 179.002 150.645 179.007 150.615 179.006C149.122 178.997 147.571 177.795 146.271 176.79C144.869 176.629 143.425 176.079 142.652 175.544C139.782 173.56 138.763 170.148 138.795 166.808C138.797 166.781 138.837 166.783 138.842 166.807C139.215 169.175 139.886 171.754 141.699 173.409C141.357 172.971 141.087 172.443 140.85 171.734C140.841 171.712 140.87 171.687 140.888 171.711C141.221 172.105 141.454 172.596 141.807 172.974C142.039 173.223 142.303 173.399 142.581 173.543C142.245 173.154 141.927 172.754 141.637 172.338C139.565 169.33 138.752 165.349 140.351 161.966C140.358 161.951 140.381 161.954 140.379 161.972C140.134 164.62 140.445 167.095 141.63 169.28C141.074 168.072 140.608 166.776 140.687 165.484C140.684 165.477 140.701 165.475 140.702 165.478C141.254 166.969 141.856 168.293 142.571 169.619C141.796 167.837 141.248 165.962 141.064 163.963C141.047 163.766 141.344 163.645 141.419 163.856C142.076 165.689 142.827 167.464 143.912 169.071C143.909 169.064 143.905 169.052 143.902 169.045C142.978 166.67 141.981 164.316 140.987 161.969C140.982 161.958 140.997 161.952 141.002 161.963C142.209 164.217 143.421 166.469 144.699 168.682C144.821 168.892 144.947 169.101 145.08 169.316C143.994 166.216 142.608 163.36 141.009 160.424C140.948 160.314 141.115 160.213 141.193 160.312C142.799 162.36 144.363 164.434 145.636 166.7C145.627 166.678 145.62 166.659 145.613 166.641C144.343 163.708 142.12 161.213 140.421 158.525C140.416 158.513 140.426 158.505 140.434 158.515C143.397 162.65 147.479 166.929 148.156 172.06C148.17 172.093 148.187 172.125 148.204 172.157C148.252 172.246 148.307 172.332 148.356 172.421C147.636 168.381 146.34 164.881 143.535 161.516C143.512 161.491 143.548 161.451 143.578 161.473C145.14 162.637 146.606 164.072 147.859 165.686C146.53 162.867 144.16 161.044 141.599 159.331C141.589 159.327 141.601 159.313 141.607 159.319C144.354 160.959 147.034 162.733 148.877 165.391C147.432 161.69 143.834 160.06 140.481 157.979C140.434 157.949 140.479 157.876 140.526 157.896C143.974 159.422 148.005 160.695 150.183 163.993C152.672 167.759 152.115 172.542 152.959 176.817L152.959 176.808Z" fill="#CE726F"/>
<path d="M119.96 156.47C117.103 155.97 114.736 157.991 112.086 156.106C112.079 156.1 112.087 156.088 112.094 156.094C114.999 157.827 117.835 155.378 120.759 155.752C120.137 155.588 119.411 155.531 118.496 155.574C117.177 155.634 115.83 155.905 114.519 156.049C114.508 156.053 114.505 156.037 114.513 156.034C116.769 155.55 119.495 154.522 121.766 155.353C124.118 156.212 125.834 158.42 128.116 159.506C128.813 159.838 128.753 160.69 128.29 161.047C128.211 161.38 127.989 161.658 127.609 161.778C126.718 162.295 125.778 162.495 124.818 162.469C124.226 164.646 121.299 165.983 119.194 165.388C117.794 164.993 116.972 163.951 116.182 162.796C114.731 160.669 113.456 159.064 111.273 157.628C111.237 157.603 111.272 157.538 111.311 157.561C113.241 158.575 114.747 159.653 116.075 161.393C116.445 161.88 116.84 162.376 117.276 162.812C115.425 160.679 114.713 157.53 110.877 157.12C110.869 157.119 110.87 157.101 110.879 157.102C113.253 157.202 114.891 158.383 116.387 160.177C117.335 161.316 118.069 162.679 119.228 163.001C118.259 162.439 117.523 161.497 117.023 160.508C116.976 160.41 117.114 160.334 117.179 160.411C117.855 161.18 118.561 161.819 119.449 162.132C118.285 161.437 117.333 160.428 116.484 159.375C116.466 159.352 116.495 159.327 116.514 159.341C117.723 160.105 118.704 161.145 120.123 161.567C120.172 161.582 120.222 161.588 120.274 161.598C119.338 161.088 118.435 160.302 117.688 159.692C117.656 159.665 117.681 159.608 117.727 159.625C117.844 159.669 117.958 159.719 118.076 159.767C116.882 159.006 115.762 158.228 114.79 157.659C114.783 157.653 114.788 157.643 114.798 157.647C117.288 158.56 119.575 159.911 122.018 160.411C121.997 160.402 121.974 160.389 121.954 160.38C120.072 159.498 118.129 158.615 116.432 157.401C116.425 157.395 116.429 157.385 116.44 157.389C117.858 157.941 119.237 158.578 120.679 159.068C120.011 158.702 119.334 158.345 118.721 157.897C118.643 157.842 118.69 157.698 118.791 157.714C118.988 157.744 119.187 157.786 119.382 157.834C118.779 157.585 118.163 157.359 117.53 157.113C117.49 157.099 117.503 157.033 117.548 157.037C118.985 157.158 120.312 157.578 121.604 158.136C120.94 157.364 120.218 156.73 119.272 156.781C119.162 156.786 119.134 156.641 119.243 156.611C120.298 156.332 121.091 156.885 121.913 157.444C121.398 156.984 120.779 156.62 119.952 156.473L119.96 156.47Z" fill="#CE726F"/>
<path d="M79.1312 158.314C74.7003 159.517 70.2259 161.035 66.123 163.109C66.0327 163.154 65.9543 163.206 65.8639 163.251C68.8851 162.248 72.1858 161.657 74.726 160.094C74.7446 160.087 74.7587 160.111 74.7415 160.122C72.4734 161.686 70.0541 162.497 67.5173 163.524C66.8771 163.782 66.2672 164.105 65.6692 164.459C70.3351 163.392 74.4062 161.248 78.5096 158.815C78.635 158.74 78.7424 158.935 78.6393 159.023C75.6351 161.659 72.1846 163.583 68.6155 165.337C72.6743 164.209 76.5235 162.485 80.0233 159.618C80.0524 159.594 80.094 159.634 80.0716 159.664C76.1897 165.173 69.5002 167.745 63.0939 170.084C63.8604 169.927 64.6277 169.761 65.398 169.581C67.7829 169.021 70.4645 168.61 72.673 167.528C74.7367 166.517 76.5112 164.829 78.109 163.208C78.1404 163.178 78.1812 163.227 78.1513 163.26C75.1777 166.312 72.1675 168.497 68.5526 170.365C69.3076 170.092 70.0208 169.822 70.658 169.578C74.8599 167.983 78.1794 165.325 80.6397 161.567C80.6585 161.538 80.7083 161.566 80.6948 161.597C78.5468 165.991 75.2337 169.198 70.8814 171.406C70.1656 171.767 69.32 172.193 68.3931 172.62C71.3501 172.317 73.9886 170.969 76.0577 168.773C76.0854 168.744 76.1367 168.776 76.112 168.812C75.1197 170.077 73.9989 171.224 72.7527 172.218C76.8572 169.898 79.7805 166.305 83.3201 163.103C83.3493 163.079 83.3856 163.116 83.3684 163.149C80.3431 168.292 75.5029 173.822 69.8072 176.027C63.7518 178.369 57.5164 176.161 51.6066 174.393C50.7997 174.579 49.9603 174.683 49.2005 174.388C49.0646 174.481 48.9287 174.573 48.7883 174.655C48.6442 174.738 48.4817 174.556 48.5388 174.417C48.5433 174.407 48.5492 174.4 48.5538 174.39C48.4862 174.317 48.4485 174.211 48.487 174.079C48.8406 172.826 49.5186 171.508 50.4646 170.508C51.9524 168.097 52.7369 165.24 54.4539 162.928C56.2563 160.505 58.5789 158.48 61.2023 156.996C66.9671 153.746 73.4134 153.73 79.468 156.092C79.5082 156.106 79.4849 156.167 79.4447 156.153C73.1877 154.152 66.0635 155.235 60.8556 159.292C59.8373 160.088 58.8947 160.988 58.0457 161.971C58.2675 161.823 58.4923 161.682 58.7222 161.544C59.6135 160.612 60.7063 159.83 61.6277 159.258C64.8228 157.267 68.3745 156.024 72.0696 155.393C72.0897 155.389 72.0926 155.419 72.0739 155.426C68.6631 156.207 65.3108 157.496 62.4687 159.572C62.8329 159.402 63.1985 159.235 63.5567 159.072C68.1126 157.03 72.8507 155.774 77.8416 156.672C77.9198 156.684 77.9098 156.8 77.8293 156.793C72.2616 156.357 65.504 158.78 60.7388 162.821C66.4238 159.598 73.3713 157.851 79.1166 158.005C79.3036 158.009 79.2826 158.272 79.126 158.312L79.1312 158.314Z" fill="#CE726F"/>
<path d="M116.502 149.104C112.523 153.058 106.251 153.644 101.245 151.436C101.146 151.393 101.187 151.256 101.29 151.254C106.568 151.33 112.773 151.38 115.885 146.237C116.008 146.037 116.107 145.829 116.206 145.621C113.867 148.465 110.538 150.435 107.182 149.883C107.164 149.881 107.161 149.852 107.181 149.848C110.152 149.677 112.007 148.39 113.389 146.604C110.491 148.844 106.988 149.381 103.125 149.448C103.087 149.45 103.09 149.393 103.125 149.383C105.488 148.767 108.332 148.102 110.327 146.6C111.822 145.472 112.57 144.058 113.095 142.473C112.699 142.979 112.275 143.476 111.806 143.938C109.096 146.63 105.761 148.344 101.903 148.301C101.872 148.3 101.865 148.251 101.892 148.241C104.582 147.287 106.857 145.989 108.607 144.1C107.146 145.041 105.543 145.767 103.923 146.232C103.853 146.251 103.826 146.141 103.888 146.112C105.919 145.169 107.775 143.929 109.318 142.321C107.229 143.692 104.955 144.796 102.68 145.861C102.646 145.874 102.621 145.833 102.646 145.81C104.234 144.434 105.878 143.019 107.336 141.457C106.307 142.15 105.242 142.796 104.138 143.354C104.104 143.367 104.079 143.326 104.105 143.303C105.591 141.989 107.108 140.719 108.542 139.348C105.651 141.106 102.898 142.991 101.055 145.866C101.032 145.897 100.982 145.869 100.998 145.832C102.117 143.166 103.952 141.175 105.985 139.377C103.209 140.736 100.843 142.368 98.9271 145.203C98.9046 145.233 98.8638 145.206 98.8721 145.173C99.7576 141.939 102.53 139.697 105.09 137.728C105.59 137.345 106.1 136.975 106.608 136.601C103.881 137.858 101.625 139.744 99.7259 142.076C99.7139 142.09 99.6901 142.073 99.7006 142.056C101.405 139.309 103.649 136.966 106.33 135.148C106.416 135.093 106.5 135.033 106.59 134.976C102.468 136.959 99.3255 140.586 97.2326 144.553C97.2153 144.586 97.1654 144.58 97.1708 144.539C97.5967 141.06 99.9062 137.585 102.69 134.937C102.411 135.104 102.14 135.281 101.898 135.467C100.292 136.729 98.9397 138.283 97.8111 139.978C97.7737 140.036 97.6755 139.984 97.7011 139.918C98.4675 138.224 99.4769 136.719 100.731 135.364C99.1173 136.629 97.7581 138.22 96.7438 140.051C96.7266 140.084 96.6716 140.054 96.6873 140.017C99.0707 134.986 102.734 132.128 107.157 129.806C106.852 129.853 106.547 129.9 106.238 129.971C99.7745 131.5 95.6894 137.149 94.9527 143.57C94.9496 143.606 94.8878 143.613 94.8879 143.57C94.6301 137.755 97.4248 132.465 102.499 129.497C105.172 127.933 107.995 127.389 111.059 127.289C114.285 127.185 118.374 126.035 121.251 127.675C121.797 127.985 121.887 128.757 121.617 129.296C121.64 129.562 121.604 129.862 121.477 130.197C119.161 136.302 121.588 144.029 116.5 149.087L116.502 149.104Z" fill="#CE726F"/>
<path d="M91.7323 143.296C91.6574 143.434 91.4475 143.362 91.5024 143.206C93.1613 138.427 96.0651 132.628 95.39 127.492C95.3769 127.394 95.3563 127.298 95.341 127.205C95.041 131.351 93.6066 135.182 92.0855 139.056C92.0712 139.096 92.0139 139.072 92.0245 139.033C93.0199 135.03 94.039 130.63 93.5759 126.476C93.4695 125.542 93.2706 124.637 93.0016 123.751C93.051 124.78 93.0575 125.745 93.0481 126.56C93.0052 132.062 91.6301 137.743 90.4916 143.106C90.4833 143.139 90.4341 143.146 90.432 143.108C89.8043 138.484 91.1003 133.944 91.2208 129.312C91.2492 128.153 91.2046 127.005 91.0922 125.871C90.5872 130.262 89.8873 134.575 89.8494 139.023C89.8478 139.062 89.7867 139.06 89.7846 139.022C89.2616 135.207 89.1798 131.579 89.279 127.733C89.3194 126.125 89.267 124.609 89.0157 123.103C88.9317 124.405 88.8513 125.706 88.7903 127.012C88.5533 131.97 87.8235 137.417 89.098 142.268C89.1458 142.444 88.8751 142.512 88.8018 142.36C86.6893 137.909 87.0253 132.537 86.7709 127.721C86.7568 127.468 86.7428 127.215 86.7287 126.961C86.4313 129.915 86.2754 132.855 86.6851 135.818C86.6887 135.838 86.6597 135.841 86.6523 135.822C85.8396 132.812 85.6247 129.785 85.6216 126.683C85.623 126.273 85.6072 125.852 85.59 125.427C85.5124 125.906 85.4423 126.383 85.3915 126.865C84.8164 131.961 85.5339 137.357 87.3681 142.151C87.3844 142.192 87.3284 142.214 87.3047 142.176C84.6048 137.104 83.479 131.701 83.7192 126.25C83.5241 126.901 83.3676 127.563 83.2715 128.236C82.6036 132.782 84.0581 137.031 86.0261 141.051C86.0409 141.088 85.9938 141.111 85.9708 141.086C82.8599 137.722 81.3915 133.154 81.3351 128.61C81.3325 128.266 81.333 127.886 81.3418 127.494C80.7182 129.929 80.5416 132.403 81.6396 134.968C81.6455 134.983 81.626 134.999 81.6112 134.983C80.2765 133.238 79.8674 130.56 80.0986 127.809C80.0835 127.859 80.0633 127.905 80.0497 127.958C78.0364 134.872 84.3299 139.34 87.2227 144.867C87.2346 144.897 87.1994 144.928 87.1742 144.908C83.1324 141.351 77.7228 135.954 77.9083 130.157C77.9791 127.907 78.6978 125.788 79.6657 123.786C79.1801 124.608 78.8313 125.515 78.4341 126.419C78.4138 126.466 78.3677 126.458 78.3417 126.425C78.1646 127.035 78.0194 127.671 77.9099 128.331C77.1615 132.87 78.5181 137.439 82.1588 140.386C82.1907 140.412 82.1555 140.465 82.1198 140.44C77.0873 137.052 75.3695 131.746 76.7489 125.869C77.5056 122.647 79.8533 118.006 83.3364 117.243C84.3381 115.599 85.4083 113.997 86.5793 112.518C86.6399 112.443 86.7102 112.38 86.7834 112.325C87.1209 111.652 87.5552 111.027 88.0519 110.45C88.103 110.318 88.1541 110.185 88.209 110.051C88.4575 109.469 89.4994 109.648 89.3451 110.326C89.3187 110.445 89.2997 110.56 89.2769 110.677C89.6514 111.448 89.9372 112.224 90.1595 113.025C93.4118 117.356 97.1404 121.43 97.485 127.137C97.8345 132.933 94.3649 138.382 91.7271 143.294L91.7323 143.296Z" fill="#CE726F"/>
<path d="M81.2083 149.481C81.2351 149.483 81.2491 149.53 81.2192 149.541C78.3629 150.513 74.6591 150.642 71.4871 149.728C73.1165 150.464 74.8077 150.985 76.6286 151.049C76.6629 151.049 76.6649 151.108 76.6307 151.109C73.0174 151.586 67.4644 150.523 65.2261 147.357C64.724 146.645 64.258 145.85 63.8233 145.025C64.1704 145.967 64.6122 146.875 65.2197 147.722C66.9997 150.211 69.7197 151.934 72.7448 152.424C75.8482 152.925 78.4351 151.861 81.3534 151.111C81.4309 151.089 81.4954 151.197 81.4415 151.257C77.4617 155.985 69.3878 154.725 65.0582 151.248C62.7596 149.4 61.1384 146.866 60.3222 144.043C59.7233 141.975 59.4421 139.816 59.0818 137.697C58.9056 136.675 58.6649 135.774 58.6091 134.881C58.5519 134.606 58.5095 134.346 58.4878 134.139C58.406 133.42 58.4857 132.772 58.6594 132.077C58.8881 131.184 59.14 130.937 59.8578 130.428C59.8727 130.422 59.8914 130.415 59.9025 130.432C60.32 131.039 60.4749 131.289 60.5811 132.058C60.5833 132.074 60.5833 132.096 60.5854 132.112C60.7828 131.913 61.0352 131.766 61.3133 131.695C64.0197 131.02 67.0434 131.941 69.6715 132.626C73.0217 133.5 75.7513 135.03 78.3061 137.35C78.338 137.376 78.3028 137.429 78.2672 137.404C77.1609 136.638 75.9566 136.028 74.6952 135.535C74.6967 135.539 74.7056 135.539 74.7108 135.542C79.4005 138.086 81.5455 142.869 85.4147 146.317C85.535 146.425 85.4381 146.67 85.267 146.587C80.6298 144.393 78.1678 139.507 73.3804 137.445C72.5746 137.1 71.7557 136.863 70.9336 136.684C71.6106 137.02 72.2577 137.368 72.8618 137.673C75.539 139.038 77.8052 140.738 79.7006 143.06C79.7251 143.089 79.6855 143.131 79.655 143.109C77.8683 141.714 75.7635 140.977 73.6174 140.343C76.8414 142.652 80.2351 144.769 83.5363 146.957C83.5668 146.98 83.539 147.03 83.5026 147.014C79.4331 145.065 75.4568 142.894 71.3618 141.012C71.3618 141.012 71.3618 141.012 71.3566 141.009C71.4823 141.076 71.6066 141.139 71.73 141.211C72.5577 141.699 73.3016 142.324 74.1225 142.827C75.1569 143.466 76.2854 143.787 77.197 144.596C77.2104 144.608 77.1991 144.634 77.182 144.623C76.2559 144.17 75.2174 144.098 74.2219 143.862C76.0418 144.915 78.1823 145.885 79.6496 145.851C79.6675 145.853 79.6704 145.882 79.6502 145.886C77.7757 146.046 75.3042 145.091 73.295 144.083C76.0067 145.59 79.0348 146.544 81.8464 147.834C81.8776 147.848 81.87 147.894 81.832 147.896C78.094 147.797 74.3833 147.092 71.0843 145.356C72.4686 146.758 74.2913 147.862 76.1743 147.854C76.2086 147.853 76.2091 147.909 76.1763 147.914C73.6586 148.324 71.1044 146.725 69.0416 145.44C71.9226 148.943 76.9923 149.015 81.2172 149.482L81.2083 149.481Z" fill="#CE726F"/>
<path d="M82.684 198.182C82.7032 198.23 82.6783 198.309 82.615 198.313C80.9479 198.386 79.6512 197.76 78.8747 196.639C78.8346 196.603 78.7945 196.568 78.7604 196.525C75.3585 192.59 76.0904 184.479 76.978 179.747C78.0901 173.816 80.7825 168.835 84.7794 164.368C84.8056 164.336 84.8598 164.375 84.8336 164.407C81.1451 168.683 78.9223 174.293 78.3381 179.89C78.2873 180.393 78.2543 180.898 78.2302 181.404C78.4077 180.251 78.6357 179.137 78.8596 178.134C79.7378 174.195 81.3621 170.647 83.5633 167.28C83.5738 167.263 83.6028 167.282 83.5886 167.3C81.3157 170.933 79.8103 175.042 79.3534 179.315C79.3188 179.631 79.3096 179.945 79.2966 180.261C79.3487 180.055 79.3986 179.854 79.4431 179.672C80.6728 174.485 82.3932 169.599 86.0828 165.643C86.1105 165.615 86.1566 165.644 86.1319 165.68C83.2699 170.146 82.3526 175.283 82.0283 180.5C82.018 180.659 82.0093 180.822 81.9991 180.982C82.9328 175.821 84.3838 170.844 87.978 166.472C87.9982 166.447 88.0451 166.467 88.033 166.502C86.449 170.25 85.2861 173.982 84.5123 177.901C86.1661 174.449 87.3435 170.819 88.6018 167.11C88.6138 167.075 88.6592 167.091 88.6636 167.124C88.6975 168.79 88.0645 174.949 86.7169 180.667C86.7491 180.606 86.7851 180.545 86.8211 180.483C89.0384 176.285 89.6859 171.808 90.5045 167.206C90.5114 167.169 90.562 167.166 90.5693 167.206C91.2469 170.279 91.1451 173.552 90.6845 176.725C91.4536 173.775 91.8388 170.661 91.9227 167.365C91.9221 167.331 91.978 167.33 91.9824 167.363C92.4201 169.71 92.7399 172.152 92.8383 174.59C93.0191 172.671 93.0486 170.752 92.8197 168.78C92.816 168.759 92.8473 168.751 92.8525 168.775C93.4521 171.52 93.8406 174.789 93.7316 178C94.4121 174.118 93.9389 170.101 92.9718 166.069C92.9637 166.038 93.0084 166.02 93.0277 166.047C96.9054 171.412 96.8725 179.065 94.099 184.92C92.8135 187.635 90.8883 190.042 88.6202 191.998C87.2572 193.176 85.2548 194.811 83.2564 195.465C83.2283 195.601 83.2003 195.737 83.1641 195.864C82.9259 196.701 82.2883 197.303 82.6876 198.202L82.684 198.182Z" fill="#CE726F"/>
<path d="M122.577 182.927C120.272 185.052 117.007 184.74 114.448 183.229C114.246 183.111 114.035 182.97 113.825 182.82C113.325 182.845 112.805 182.805 112.277 182.704C111.224 182.65 110.379 182.566 110.253 182.53C107.8 181.84 105.565 180.481 103.688 178.773C99.7185 175.158 97.4101 169.995 95.7636 164.989C95.7238 164.867 95.8941 164.73 95.9712 164.859C97.9124 167.962 99.6686 171.328 102.061 174.109C100.241 170.768 98.9446 167.005 97.6391 163.655C97.6228 163.614 97.6788 163.592 97.6988 163.631C99.118 166.189 100.752 169.137 102.764 171.69C101.724 169.348 100.925 166.915 100.23 164.726C100.217 164.692 100.261 164.662 100.285 164.691C101.805 166.303 102.846 168.247 104.068 170.077C103.702 168.936 103.391 167.768 103.083 166.6C103.07 166.545 103.147 166.531 103.172 166.573C103.872 167.72 104.57 168.872 105.3 170.007C103.697 166.723 101.984 163.531 98.8793 161.316C98.8489 161.294 98.8758 161.253 98.9093 161.261C102.259 162.416 104.349 164.631 106.207 167.317C105.974 166.784 105.709 166.255 105.389 165.742C104.636 164.539 103.856 163.518 103.291 162.21C103.283 162.191 103.312 162.176 103.32 162.198C104.846 164.939 107.14 166.753 108.391 169.737C108.709 170.495 109.148 171.375 109.569 172.296C109.487 172.035 109.405 171.773 109.32 171.514C107.778 166.773 106.127 161.285 100.825 159.57C100.79 159.558 100.802 159.501 100.839 159.508C104.256 159.907 106.732 161.658 108.7 164.284C108.236 163.177 107.675 162.109 107.083 161.083C107.075 161.065 107.098 161.056 107.111 161.068C108.598 162.611 109.832 164.297 110.999 166.067C109.619 161.745 107.012 157.909 102.034 158.625C101.989 158.63 101.983 158.572 102.022 158.561C105.757 157.53 108.737 159.345 110.979 162.039C108.771 158.503 105.461 155.955 100.791 157.045C100.756 157.055 100.738 156.998 100.772 156.984C105.914 155.029 110.691 157.651 113.587 162.02C115.271 164.56 116.268 167.458 117.176 170.34C117.778 172.251 118.393 174.109 119.06 175.946C119.514 176.829 119.911 177.724 120.136 178.606C120.16 178.7 120.172 178.795 120.183 178.89C120.446 179.554 120.717 180.215 121.005 180.877C121.091 181.072 121.125 181.257 121.132 181.436C121.607 181.852 122.067 182.283 122.471 182.748C122.488 182.768 122.474 182.799 122.45 182.804C122.439 182.808 122.425 182.805 122.409 182.808C122.45 182.813 122.491 182.818 122.529 182.829C122.584 182.837 122.602 182.904 122.559 182.938L122.577 182.927Z" fill="#CE726F"/>
<path d="M96.9494 100.9C96.9173 100.917 96.8839 100.866 96.9146 100.845C99.5513 99.1446 102.201 97.2145 104.291 94.8542C106.795 92.0235 107.768 88.617 108.383 84.9723C109.544 78.0985 110.62 71.1723 105.9 65.3467C102.025 60.5672 96.3447 56.4686 90.0292 59.5273C89.5948 59.7382 89.1856 59.9909 88.7972 60.2743C89.1189 60.1166 89.4539 59.9709 89.7867 59.8305C92.2663 58.8007 93.9511 58.5433 96.6256 59.1714C96.6449 59.1767 96.6426 59.2035 96.621 59.2035C95.1779 59.1234 93.9539 59.2803 92.7433 59.6563C93.1405 59.6457 93.5421 59.6463 93.9466 59.6759C96.0651 59.6524 98.1919 60.0529 100.111 60.7687C100.127 60.7755 100.125 60.8023 100.103 60.8022C99.1142 60.5724 98.1357 60.3903 97.1591 60.2894C98.9941 60.8358 100.75 61.6724 102.233 62.5954C107.48 65.8602 109.18 71.8724 108.976 77.7628C108.766 83.8797 107.402 90.2424 102.793 94.5586C102.762 94.5883 102.719 94.536 102.751 94.5063C106.331 91.2321 107.383 86.4131 107.887 81.7807C108.443 76.6575 108.337 70.933 105.015 66.6769C102.298 63.1955 96.3355 60.3567 91.8514 61.1965C89.1673 61.6987 87.4192 63.4745 87.3356 65.9764C88.3328 65.2361 89.5576 64.8631 90.9085 65.1135C96.6611 66.1796 96.1963 73.2867 91.9344 75.8857C87.3492 78.6819 83.3475 74.7469 82.5115 70.2397C81.7151 65.9629 83.32 61.2873 86.7909 58.6089C95.639 51.789 107.09 60.0714 110.315 68.9411C112.461 74.8498 110.871 82.1007 109.194 87.9355C107.285 94.5877 102.633 97.6303 96.9374 100.914L96.9494 100.9Z" fill="#CE726F"/>
<path d="M106.588 79.0366C107.84 81.9893 106.528 85.6726 105.955 88.6274C105.946 88.6699 105.883 88.6644 105.887 88.6197C106.084 86.6212 106.327 84.4574 106.116 82.4522C105.815 79.5675 103.877 78.5872 101.683 77.0695C99.8497 75.7974 98.5877 73.9191 98.4445 71.7272C97.9555 71.321 97.793 70.6602 98.7531 70.1202C101.828 68.3928 106.243 69.786 107.147 73.321C107.155 73.3523 107.112 73.3648 107.091 73.3431C106.184 72.4377 105.222 71.8176 104.207 71.499C104.348 71.5941 104.484 71.6869 104.61 71.7753C105.789 72.6071 106.552 73.6819 107.291 74.8952C107.314 74.9295 107.252 74.9584 107.228 74.9203C106.505 73.6832 105.257 72.723 103.957 72.1546C103.82 72.0923 103.673 72.0471 103.527 72.0057C105.03 73.141 106.068 74.7801 106.892 76.6546C106.908 76.6957 106.849 76.7193 106.829 76.6797C105.991 74.9572 104.415 73.3111 102.615 72.3409C102.794 72.4987 102.958 72.6498 103.094 72.7859C103.137 72.8292 103.177 72.8778 103.221 72.9212C103.442 73.0665 103.664 73.2118 103.875 73.3525C104.379 73.688 104.908 74.0437 105.302 74.5138C105.84 75.1638 106.063 76.0118 106.563 76.6856C106.583 76.7125 106.551 76.7511 106.52 76.7286C105.941 76.2588 105.494 75.7409 104.849 75.3535C104.985 75.6319 105.117 75.9207 105.25 76.2133C105.266 76.2543 105.206 76.2779 105.186 76.2384C105.039 75.878 104.84 75.5383 104.611 75.2104C104.506 75.1527 104.397 75.0964 104.287 75.0364C104.474 75.3336 104.665 75.6293 104.886 75.9043C105.617 76.8143 106.365 77.7221 107.134 78.6047C107.149 78.6204 107.122 78.6397 107.107 78.624C105.858 77.4313 104.486 76.3649 103.342 75.0698C102.911 74.5803 102.49 74.225 101.996 73.9372C102.51 74.7779 103.154 75.5416 104.065 76.2942C105.114 77.1561 106.026 77.7359 106.571 79.0261L106.588 79.0366Z" fill="#CE726F"/>
<path d="M113.337 76.2639C113.311 76.3733 113.155 76.3184 113.155 76.2193C113.243 72.7361 114.994 69.6943 117.901 67.7487C121.479 65.3516 125.752 65.8211 129.835 65.9733C133.454 66.1105 137.36 66.1429 140.956 65.219C138.982 65.4657 137.017 65.5494 135.329 65.6138C130.18 65.8105 123.236 63.283 118.799 66.5945C118.781 66.6056 118.76 66.5839 118.779 66.5676C122.259 63.7693 126.386 64.6205 130.529 64.7185C132.193 64.7584 133.85 64.702 135.504 64.5518C132.483 64.5313 129.447 64.1457 126.407 63.3777C126.368 63.3672 126.384 63.3091 126.421 63.3159C130.205 63.716 133.975 63.5348 137.63 62.8033C135.402 62.9651 133.126 62.7876 130.704 62.6335C124.058 62.2105 117.574 65.0077 114.244 70.8505C114.233 70.8676 114.208 70.8474 114.218 70.8303C116.777 66.3076 120.119 64.0125 125.168 62.6471C127.951 61.8941 130.394 62.0356 133.228 62.1173C134.62 62.157 135.947 62.063 137.246 61.8676C135.383 61.816 133.52 61.6906 131.681 61.5473C123.989 60.9562 117.46 64.371 113.03 70.6318C113.008 70.6623 112.954 70.6361 112.974 70.5981C115.597 65.519 120.361 61.8882 125.902 60.4789C129.654 59.5235 133.472 59.7806 137.288 59.3693C137.404 59.3578 137.512 59.3365 137.623 59.3227C137.496 59.3171 137.372 59.31 137.249 59.3029C134.09 59.2164 130.818 59.4119 127.682 59.8426C121.223 60.7309 116.594 63.9501 113.047 69.3436C113.036 69.3607 113.007 69.3419 113.021 69.3233C116.129 64.6266 119.838 61.1025 125.435 59.736C128.705 58.9369 132.112 58.7351 135.455 58.4251C136.754 58.3035 138.129 58.1255 139.499 58.066C139.446 58.0613 139.391 58.0529 139.341 58.0468C135.047 57.689 130.763 58.1949 126.602 59.2607C126.567 59.2703 126.553 59.2151 126.583 59.2033C128.543 58.2456 130.551 57.4632 132.608 56.8598C130.334 57.1003 128.118 57.5207 126.176 58.6438C126.157 58.6512 126.143 58.6266 126.16 58.6154C127.993 57.3153 130.211 56.8123 132.365 56.2569C132.945 56.109 133.539 55.9515 134.135 55.8015C133.647 55.8655 133.156 55.9346 132.673 56.0224C124.687 57.4556 117.186 62.2956 112.654 69.0375C112.629 69.0732 112.578 69.0328 112.599 68.9986C117.34 61.7127 123.859 56.4111 132.364 54.1854C136.952 52.9853 141.794 52.7459 146.47 53.5654C148.923 53.9961 151.305 54.779 153.766 55.1724C155.692 55.4799 157.675 55.0394 158.88 56.7848C159.125 57.141 159.134 57.5218 158.907 57.8877C158.784 58.0877 158.656 58.2892 158.534 58.493C158.18 59.0693 157.462 59.2718 156.831 59.2496C156.792 59.248 156.751 59.2426 156.711 59.241C156.47 59.4488 156.185 59.6133 155.842 59.6934C154.455 60.0181 153.035 61.608 151.878 62.7613C151.445 68.8805 145.347 72.0211 139.769 71.9951C132.208 71.9647 119.955 65.7869 115.158 74.7827C115.139 74.8206 115.078 74.7973 115.097 74.7594C117.264 70.1504 121.857 68.6069 126.619 68.499C125.179 68.3616 123.738 68.289 122.321 68.4922C118.738 69.0011 116.656 71.3838 114.834 74.2682C114.823 74.2853 114.794 74.2666 114.808 74.248C117.318 70.211 119.685 67.9827 124.625 67.8687C127.242 67.8074 129.82 68.0939 132.423 68.0728C129.3 67.7174 126.174 67.16 123.078 67.3941C117.966 67.7832 114.542 71.4401 113.336 76.2512L113.337 76.2639ZM137.307 69.0041C137.427 68.991 137.543 68.9795 137.66 68.959C137.193 68.9888 136.723 69.0021 136.254 69.0155C136.605 69.0189 136.956 69.0133 137.303 69.0055L137.307 69.0041Z" fill="#CE726F"/>
<path d="M160.087 27.9631C160.914 27.9807 161.442 28.3975 161.702 28.955C162.683 29.3085 163.417 30.1701 163.122 31.3963C162.304 34.8108 160.624 37.522 158.413 39.7188C158.213 48.0287 147.188 49.4092 140.79 50.8305C131.908 52.8039 121.561 55.0339 116.151 63.1372C116.127 63.1729 116.076 63.1325 116.097 63.0983C119.728 57.305 125.476 54.1088 131.842 51.984C137.212 50.189 146.641 48.9313 151.515 44.458C150.278 45.0604 148.995 45.6031 147.69 46.0898C145.613 47.0337 143.501 47.8359 141.673 48.5384C136.375 50.5811 130.68 51.469 125.61 54.0988C125.591 54.1062 125.577 54.0816 125.598 54.069C130.111 51.4611 135.162 50.3625 139.963 48.4605C134.271 49.9556 128.507 51.2896 123.532 54.6068C118.623 57.881 115.106 62.5801 112.519 67.8262C112.499 67.8642 112.444 67.8431 112.458 67.8029C115.43 58.2437 123.153 52.353 132.105 48.7033C136.784 46.7979 141.721 45.2391 146.128 43.0273C145.716 43.1645 145.314 43.2936 144.939 43.425C141.002 44.7859 137.007 46.5669 132.854 47.1201C132.834 47.1238 132.83 47.091 132.85 47.0873C135.602 46.4072 138.241 45.1933 140.842 43.9687C139.147 44.472 137.458 44.9813 135.799 45.5219C135.762 45.5367 135.731 45.48 135.774 45.4585C139.811 43.4146 144.001 41.5605 147.95 39.3576C146.76 39.7858 145.644 40.1502 144.754 40.4855C139.299 42.5254 133.45 44.4843 129.106 48.5316C129.077 48.5561 129.034 48.5128 129.058 48.486C132.396 44.7424 136.351 42.5454 140.91 40.5323C141.615 40.2225 142.323 39.9163 143.03 39.6102C142.665 39.7461 142.3 39.8693 141.937 40.0089C134.822 42.7713 127.667 46.4345 123.114 52.8C123.09 52.8356 123.039 52.7952 123.06 52.761C126.359 47.1641 131.216 43.354 136.88 40.2857C138.617 39.3429 140.401 38.4852 142.19 37.6425C137.448 38.7138 132.66 40.1576 129.501 44.0934C129.475 44.1254 129.423 44.0901 129.447 44.0545C132.208 40.0086 136.17 37.7096 140.653 35.9295C143.302 34.8802 146.016 34.0077 148.61 32.8204C148.895 32.6902 149.167 32.5481 149.437 32.4022C149.226 32.4253 149.015 32.4485 148.806 32.4753C146.962 32.9856 145.081 33.4242 143.366 34.0518C139.897 35.3182 136.571 36.8473 133.405 38.7488C133.387 38.7562 133.372 38.7316 133.39 38.7205C135.601 37.2532 137.851 35.8308 140.188 34.5599C138.406 35.2484 136.702 36.1004 135.122 37.1666C128.87 41.3998 123.732 48.6404 119.318 54.6792C119.293 54.7149 119.243 54.6745 119.264 54.6403C123.499 47.5286 128.575 38.8885 135.794 34.4186C142.875 30.0339 151.8 27.7887 160.078 27.9623L160.087 27.9631Z" fill="#CE726F"/>
<path d="M107.883 62.6491C107.911 62.6767 107.88 62.728 107.844 62.7033C102.67 58.8702 98.9858 54.1576 97.0251 47.9553C96.1004 45.0327 95.744 41.9757 95.137 38.9834C94.6824 37.8687 94.1241 36.808 93.5719 35.719C92.5703 33.7462 91.8268 31.9129 91.7539 29.8442C91.545 29.491 91.5718 29.0358 91.6692 28.6606C91.7114 28.5058 91.7499 28.3524 91.7922 28.1976C91.8013 28.1551 91.8245 28.1157 91.8529 28.0785C91.8553 28.0517 91.8576 28.0249 91.8599 27.9981C91.866 27.9482 91.9204 27.9439 91.9524 27.9701C92.0338 27.9033 92.1316 27.8559 92.2203 27.851C93.7878 27.7005 94.0357 28.4569 95.1888 29.4719C96.8805 30.9641 98.9308 31.7272 100.949 32.6497C104.038 34.0631 106.162 36.0232 107.437 39.2211C110.581 47.1129 110.857 56.2098 110.157 64.5448C110.154 64.5895 110.089 64.5804 110.09 64.5371C110.146 58.6448 109.504 52.4468 107.997 46.617C108.607 50.2166 109.057 53.8365 109.35 57.4842C109.35 57.5058 109.322 57.5124 109.317 57.4885C108.747 53.5322 108.01 49.5469 106.959 45.6858C106.426 43.7176 105.913 41.6504 105.113 39.7707C104.803 39.0432 104.36 38.4374 103.9 37.8643C104.767 39.5751 105.374 41.4973 105.975 43.5164C107.908 49.9758 108.693 56.631 109.357 63.3209C109.361 63.341 109.33 63.3491 109.325 63.3252C108.3 57.1662 107.174 50.9227 105.185 44.9862C105.123 44.8079 105.061 44.6207 105.003 44.4409C105.491 46.5222 105.933 48.6175 106.347 50.6762C106.353 50.6912 106.323 50.703 106.317 50.6881C105.066 47.6057 104.064 44.4244 102.876 41.3169C102.612 40.6275 102.345 39.9001 102.037 39.1979C102.725 41.0012 103.259 42.8703 103.814 44.5323C105.535 49.6944 106.91 54.9202 107.766 60.2955C107.771 60.3283 107.718 60.349 107.709 60.314C106.368 56.0242 104.965 51.7417 103.313 47.5619C104.285 51.1478 105.568 54.6274 106.653 58.1942C106.659 58.2092 106.633 58.2195 106.623 58.2061C104.588 54.0056 102.854 49.5953 101.357 45.1732C101.158 44.5831 100.971 43.9923 100.785 43.4015C100.902 44.0889 101.026 44.7518 101.183 45.3544C102.475 50.3586 104.091 55.9764 107.043 60.3013C107.066 60.3357 107.023 60.3698 106.995 60.3421C103.86 57.0911 102.522 52.1136 100.963 47.9706C100.739 47.373 100.523 46.7724 100.312 46.1741C100.764 48.8738 101.384 51.4943 102.616 54.0274C102.622 54.0423 102.599 54.0601 102.587 54.0429C101.473 52.4603 100.57 50.7807 99.8666 49.0049C101.382 54.1276 103.843 58.8242 107.888 62.6513L107.883 62.6491Z" fill="#CE726F"/>
<path d="M111.837 18.9837C112.134 18.633 112.64 18.4498 113.028 18.8185C114.346 20.0658 114.668 21.6085 115.428 23.2541C116.362 25.2751 117.457 27.2198 118.448 29.2096C120.152 32.6303 121.579 36.1871 121.637 40.0613C121.781 49.8492 114.697 57.5587 111.192 66.1765C111.178 66.2167 111.117 66.1934 111.131 66.1532C113.535 58.3857 118.882 50.9632 119.483 42.7188C118.521 48.3742 115.826 53.5767 113.632 58.8264C113.623 58.8472 113.592 58.8337 113.601 58.8129C115.623 53.6655 117.611 48.3764 117.986 42.8069C118.109 40.9713 118.032 39.1417 117.747 37.3338C117.795 38.6529 117.779 39.898 117.748 40.9545C117.565 47.333 115.606 53.5126 113.214 59.3719C113.205 59.3928 113.174 59.3792 113.183 59.3584C115.087 53.99 116.648 48.4171 116.761 42.6881C116.814 39.9782 116.599 37.2361 115.975 34.5918C115.856 34.0862 115.69 33.5782 115.503 33.0738C115.908 35.6668 116.108 38.2851 116.122 40.9125C116.157 47.3641 114.97 53.5962 112.587 59.5859C112.571 59.6224 112.515 59.6013 112.529 59.5611C114.556 53.2036 115.519 46.4298 114.86 39.7638C114.74 38.5466 114.559 37.3366 114.337 36.134C114.467 37.2044 114.583 38.2808 114.657 39.3607C115.001 44.6539 114.578 49.8931 113.427 55.0709C113.421 55.0903 113.389 55.0857 113.394 55.0664C114.086 49.1083 114.057 43.1076 112.996 37.1958C112.96 36.9945 112.917 36.7999 112.881 36.5986C113.094 40.6014 113.512 44.5878 113.676 48.5972C113.676 48.6188 113.647 48.6217 113.643 48.6016C112.76 43.7679 112.17 38.8912 111.324 34.0517C111.223 33.4701 111.082 32.8095 110.943 32.1093C110.941 35.3947 111.448 38.6467 111.996 41.8951C113.162 48.7922 114.254 56.1027 110.965 62.6282C110.95 62.6557 110.901 62.6533 110.903 62.6138C111.489 58.3848 111.873 54.4823 111.354 50.199C110.913 46.5583 110.013 43.0002 109.323 39.4063C108.038 32.7077 107.765 25.3962 111.411 19.334C111.505 19.18 111.656 19.0598 111.827 18.9792L111.837 18.9837Z" fill="#CE726F"/>
<path d="M138.83 25.106C137.707 29.9532 134.456 33.4378 129.77 34.8886C128.336 36.816 127.358 39.0854 126.122 41.1416C124.634 43.6173 123.021 46.0045 121.414 48.3978C121.389 48.4335 121.34 48.3968 121.359 48.3589C123.041 45.3578 124.371 42.2237 125.388 38.938C125.854 37.424 126.676 35.5445 126.448 33.9342C126.249 32.5372 125.316 31.5341 125.925 29.9765C126.861 27.5773 130.195 27.0593 131.815 29.0587C133.552 31.1979 132.229 33.5995 130.108 34.4568C130.039 34.5445 129.965 34.63 129.898 34.7214C132.129 33.708 133.772 32.1032 134.85 30.1612C134.284 30.8128 133.699 31.3943 133.176 31.8605C133.162 31.8702 133.143 31.856 133.152 31.8441C133.206 31.7317 133.263 31.6231 133.319 31.5145C133.199 31.6572 133.082 31.7984 132.964 31.9358C132.937 31.9678 132.894 31.9334 132.915 31.8992C132.991 31.7653 133.062 31.6292 133.139 31.4953C133.035 31.6142 132.932 31.7368 132.825 31.8482C132.81 31.863 132.786 31.8466 132.8 31.828C133.176 31.3382 133.491 30.8378 133.768 30.3268C133.829 30.2077 133.884 30.0865 133.945 29.9675C134.664 28.5042 135.055 26.9422 135.335 25.2606C135.353 25.1541 135.364 25.0505 135.378 24.9455C134.98 26.3592 134.457 27.7531 133.806 29.1376C133.787 29.1756 133.731 29.1545 133.745 29.1143C134.332 27.5567 134.679 25.9819 134.859 24.3872C134.363 26.077 133.641 27.7616 132.766 29.2258C132.756 29.2429 132.732 29.2265 132.739 29.2108C133.296 27.13 133.797 25.1273 134.028 22.9858C133.619 24.4598 133.127 25.8977 132.586 27.2685C132.571 27.305 132.519 27.2824 132.529 27.2437C132.771 26.3064 132.951 25.389 133.094 24.4737C132.53 25.5686 131.888 26.5739 131.342 27.3731C131.33 27.3865 131.307 27.3738 131.314 27.3582C131.888 25.7886 132.354 24.197 132.631 22.5549C132.112 23.7707 131.56 24.9171 131.031 25.934C131.011 25.9719 130.963 25.9479 130.973 25.9092C131.188 25.1551 131.384 24.3957 131.565 23.6333C131.113 24.628 130.575 25.5793 129.923 26.4288C129.866 26.5031 129.762 26.4365 129.789 26.3524C130.354 24.3893 131.053 22.5154 131.458 20.5078C130.759 22.0665 129.993 23.5871 129.117 25.0692C129.1 25.1019 129.054 25.0727 129.062 25.0392C129.528 23.6675 129.96 22.2621 130.303 20.84C130.287 20.8765 130.27 20.9092 130.254 20.9457C129.445 22.8245 129.12 24.8911 128.278 26.7311C128.269 26.7519 128.228 26.7592 128.222 26.7316C127.663 24.9504 128.251 22.9479 128.921 21.2624C128.922 21.2534 128.928 21.2468 128.929 21.2378C127.966 23.1213 127.245 25.0727 126.627 27.3157C126.62 27.3403 126.574 27.3454 126.568 27.3178C125.68 24.411 126.694 21.2296 127.755 18.4829C127.785 18.4062 127.815 18.3295 127.843 18.2581C127.631 18.5838 127.427 18.9192 127.251 19.2695C125.89 21.9885 124.749 25.4183 125.935 28.367C125.942 28.3857 125.914 28.4013 125.905 28.3789C124.976 26.4593 124.903 23.6051 125.504 20.8419C124.33 23.5213 123.856 26.4198 124.994 29.3266C125.01 29.3677 124.951 29.3913 124.934 29.3503C123.918 27.034 123.696 24.7091 124.115 22.3462C122.94 25.3624 122.481 28.4837 124.694 31.1848C124.709 31.2005 124.682 31.2198 124.667 31.2041C122.639 29.1243 122.428 25.1252 123.334 21.5292C121.604 25.6716 121.386 30.4495 125.08 32.8447C125.109 32.8635 125.084 32.9208 125.046 32.9013C120.33 30.475 120.847 24.6207 122.406 20.2653C123.287 17.8145 124.696 15.586 126.591 13.7906C127.695 12.7406 128.995 11.9275 130.134 10.9239C131.281 9.91727 131.648 8.58916 132.621 7.5261C133.413 6.65991 135.23 6.93271 135.222 8.23072C135.386 8.48089 135.478 8.76808 135.478 9.08327C137.085 11.0059 137.534 13.9917 138.165 16.3573C138.934 19.2339 139.52 22.1523 138.837 25.1031L138.83 25.106Z" fill="#CE726F"/>
<path d="M35.6343 62.5031C35.396 61.3459 36.4897 60.7184 37.4226 60.9487C37.8088 60.8777 38.2228 60.9641 38.6055 61.2872C41.2367 61.0434 44.1546 62.6239 46.5449 63.5588C49.1741 64.5847 51.6662 65.8202 53.5614 67.9569C56.7431 71.5434 57.6854 76.1336 56.318 80.6245C56.7189 82.3993 58.836 85.0307 59.4446 86.4254C60.7402 89.4125 61.4942 92.5796 62.2273 95.7378C62.2369 95.7728 62.1757 95.7927 62.1661 95.7577C61.2135 92.7426 59.9564 89.8309 58.1029 87.2548C57.3894 86.2599 54.8638 82.5429 53.4151 82.819C50.1806 83.4356 48.1995 79.3389 50.3695 77.0593C52.179 75.1555 56.0451 76.1878 56.3248 78.8004C56.3372 77.0993 55.9551 75.4811 55.2506 74.0078C55.4759 74.8163 55.6334 75.6387 55.7214 76.5146C55.7236 76.531 55.7012 76.5398 55.6915 76.5264C55.636 76.4189 55.582 76.3151 55.5264 76.2076C55.572 76.3881 55.6162 76.5649 55.6588 76.7379C55.6684 76.7729 55.6132 76.7862 55.6014 76.7563C55.5415 76.616 55.4719 76.4839 55.412 76.3436C55.4458 76.4943 55.4795 76.6449 55.5096 76.797C55.5132 76.8171 55.4804 76.8215 55.4768 76.8014C55.3265 76.2696 55.1374 75.7705 54.9155 75.2973C54.7711 75.0092 54.623 74.7226 54.469 74.4426C53.7992 73.2966 52.9412 72.2856 51.9841 71.2749C51.8341 71.1142 51.6692 70.9594 51.5043 70.8047C52.3813 71.929 53.1709 73.1269 53.8842 74.4153C53.9012 74.4474 53.8497 74.4808 53.8289 74.4502C52.8867 72.9977 51.7515 71.7339 50.487 70.612C51.606 72.0419 52.6967 73.6513 53.3439 75.307C53.3513 75.3256 53.3267 75.3397 53.3156 75.3225C51.9595 73.7405 50.7778 72.1413 49.1923 70.7537C49.1536 70.7216 49.1135 70.6857 49.0711 70.655C50.0268 71.869 50.8886 73.1073 51.6461 74.3006C51.6684 74.3349 51.622 74.3705 51.5976 74.3414C50.8903 73.4821 50.136 72.6674 49.3599 71.8742C50.0164 72.9867 50.5714 74.148 51.0003 75.3722C51.0062 75.3871 50.983 75.4049 50.9719 75.3877C49.9976 73.9307 48.9292 72.5412 47.6852 71.3076C48.4028 72.4217 49.0554 73.5789 49.6535 74.7835C49.6668 74.8171 49.6213 74.8438 49.602 74.8169C49.1204 74.2005 48.6217 73.5953 48.1081 72.996C48.6615 73.9464 49.1276 74.9487 49.4059 75.9779C49.428 76.0555 49.3146 76.0961 49.2708 76.04C47.9981 74.4725 46.9359 72.7827 45.5572 71.296C46.4047 72.7601 47.1635 74.2723 47.8319 75.8288C47.8437 75.8587 47.8011 75.8928 47.7804 75.8622C46.9623 74.7015 46.0957 73.5817 45.1709 72.5108C45.199 72.5601 45.2249 72.6146 45.2568 72.6624C45.8014 73.5688 46.417 74.4471 47.0401 75.3009C47.5845 76.0434 48.3224 76.6531 48.6892 77.4919C48.6966 77.5105 48.6831 77.5418 48.6585 77.5342C46.931 77.1827 45.4945 75.1147 44.6125 73.7161C44.6125 73.7161 44.6125 73.7161 44.611 73.7123C45.6077 75.5964 46.8002 77.2993 48.1948 79.1638C48.2141 79.1907 48.1879 79.2227 48.1559 79.2181C45.2891 78.3986 43.1985 75.3984 41.6707 73.0126C41.6137 72.923 41.5566 72.8333 41.4958 72.7452C41.5859 72.9728 41.6761 73.2004 41.7812 73.422C43.1072 76.2028 45.4586 79.6219 48.6365 80.3441C48.6559 80.3494 48.6513 80.3814 48.6319 80.3761C45.6806 79.8879 43.3859 77.5383 41.6806 75.2055C43.181 78.1978 45.462 80.8507 48.8572 81.6637C48.8959 81.6743 48.8919 81.7406 48.8495 81.7315C45.9931 81.1237 43.7202 79.6243 41.9057 77.4082C41.9169 77.4254 41.9294 77.4463 41.9406 77.4634C43.7028 79.929 46.905 83.1967 50.188 82.9967C50.2096 82.9968 50.2162 83.0244 50.1924 83.0295C47.2894 83.4588 44.6044 81.2897 42.675 79.3392C42.1648 78.8248 41.6005 78.2067 41.0559 77.5291C43.3215 81.6684 47.3255 85.3694 51.7573 83.6569C51.7983 83.6407 51.822 83.7004 51.781 83.7166C47.0764 86.1026 42.648 82.2891 40.0489 78.5063C38.5807 76.3688 37.5739 73.9363 37.2225 71.3607C37.0589 70.1523 37.1114 68.923 37.0603 67.7045C37.0408 67.5353 37.0235 67.3608 37.0278 67.1865C37.0093 66.9219 36.9833 66.6603 36.9447 66.3994C36.7445 64.9896 35.9025 63.8557 35.6202 62.5001L35.6343 62.5031Z" fill="#CE726F"/>
<path d="M141.252 114.961C141.223 115.737 140.838 116.934 140.198 117.726C140.524 118.931 140.555 120.175 139.724 120.78C139.569 121.26 139.31 121.717 138.964 122.087C137.95 123.175 136.545 123.498 135.132 123.471C135.018 123.477 134.9 123.473 134.777 123.456C134.494 123.439 134.213 123.417 133.933 123.376C132.431 123.168 130.974 122.943 130.192 121.505C129.36 119.97 129.362 118.156 129.751 116.5C129.396 117.077 129.006 117.585 128.63 117.976C127.535 119.1 125.975 120.141 124.351 120.15C123.804 120.151 123.275 120.037 122.845 119.801C122.511 119.951 122.105 119.961 121.647 119.849C120.075 119.466 119.43 117.697 119.214 116.28C118.704 112.9 120.225 109.919 122.428 107.536C120.753 108.463 118.562 108.64 116.627 108.561C115.446 108.511 113.406 108.525 112.845 107.219C112.76 107.015 112.727 106.822 112.732 106.638C111.066 105.114 111.723 102.01 112.891 100.295C114.28 98.2561 116.728 97.1354 119.169 97.0444C117.887 96.8143 116.638 96.1694 115.625 95.2025C113.851 93.5014 111.561 88.897 114.711 87.4806C115.505 86.4758 116.685 85.6757 117.691 85.372C118.974 84.9806 120.443 85.0846 121.716 85.4741C122.01 85.5645 122.273 85.6936 122.521 85.8412C121.458 84.6484 120.975 82.9061 121.443 81.3652C121.673 80.6052 122.133 79.9913 122.701 79.6496C123.211 78.278 124.073 77.2936 125.382 77.9403C125.408 77.9515 125.426 77.9747 125.45 77.9912C126.677 77.4491 128.564 77.8324 129.534 78.5271C130.484 79.2039 131.046 80.1551 131.447 81.2003C131.541 79.0397 132.299 76.9007 133.748 76.2446C133.986 76.1374 134.208 76.1403 134.391 76.2102C135.711 75.4889 137.505 76.0082 138.954 76.9661C139.968 77.5097 140.881 78.3525 141.328 79.0902C142.952 81.7833 141.985 85.1832 139.188 86.5978C139.148 86.6178 139.117 86.5611 139.148 86.5314C139.865 85.8892 140.365 85.1346 140.668 84.3413C140.103 85.0957 139.331 85.7079 138.398 86.043C138.372 86.0534 138.337 86.0198 138.363 85.9967C139.178 85.0911 139.996 84.4001 140.279 83.1529C140.424 82.4955 140.398 81.8412 140.223 81.2243C140.344 82.5876 139.617 83.7603 138.906 84.8622C138.895 84.8793 138.872 84.8628 138.878 84.8472C139.151 84.0747 139.396 83.2998 139.455 82.534C139.374 83.3861 139.108 84.2295 138.649 84.9984C138.641 85.0103 138.616 85.0028 138.619 84.9887C138.936 83.4778 138.789 82.116 138.228 80.8965C138.792 82.689 138.521 84.6433 137.367 86.132C137.351 86.1558 137.307 86.143 137.312 86.111C137.62 84.6247 137.713 83.1377 137.259 81.7078C137.386 83.1508 137.186 84.6717 136.847 85.6564C136.844 85.6616 136.832 85.6623 136.829 85.6548C136.78 84.2456 136.789 82.917 136.405 81.5454C136.396 81.5231 136.386 81.497 136.381 81.4731C136.55 82.8693 136.492 84.2387 136.219 85.6416C136.205 85.725 136.08 85.7358 136.066 85.6463C135.799 84.1984 135.476 82.751 135.085 81.3302C135.083 81.5425 135.087 81.7482 135.094 81.9524C135.164 83.2283 135.273 84.5058 135.047 85.7651C135.046 85.7741 135.032 85.771 135.03 85.7673C134.886 84.2363 134.602 82.7689 134.323 81.2569C134.296 81.1033 134.265 80.9474 134.237 80.7901C134.221 80.8698 134.201 80.9509 134.189 81.0291C133.953 82.6677 133.964 84.3294 134.272 85.9555C134.278 85.9705 134.252 85.9808 134.242 85.9674C133.811 85.1627 133.458 84.3485 133.211 83.5057C133.255 84.1184 133.319 84.7274 133.374 85.3445C133.377 85.352 133.362 85.3579 133.359 85.3504C133.094 84.8555 132.851 84.2526 132.675 83.6142C132.723 84.4325 132.858 85.2511 133.078 86.0358C133.1 86.1133 132.99 86.1741 132.932 86.124C132.146 85.4813 131.676 84.2174 131.51 82.7981C130.965 81.7151 130.328 80.6854 129.366 80.0094C128.975 79.7324 128.579 79.5612 128.175 79.4667C129.428 80.0796 130.484 81.0339 130.719 82.2702C130.722 82.2776 130.707 82.2835 130.704 82.2761C130.208 81.4063 129.532 80.8885 128.726 80.5303C129.835 81.5325 130.655 82.8951 131.017 84.2883C131.025 84.3069 130.997 84.3135 130.988 84.3001C130.377 83.1177 129.62 82.2091 128.604 81.4852C128.832 81.7356 129.053 81.9979 129.269 82.2706C130.182 83.4323 130.854 84.8235 131.809 85.9384C131.834 85.9676 131.795 86.0002 131.766 85.9815C130.609 85.2615 129.681 84.1616 128.627 83.2975C127.757 82.5844 126.871 81.8826 125.983 81.1896C126.028 81.379 126.086 81.5588 126.153 81.7267C126.444 82.0473 126.724 82.3724 127.016 82.6967C127.995 83.7722 129.177 84.534 130.119 85.6712C130.122 85.6787 130.118 85.6891 130.111 85.6831C129.373 85.0391 128.531 84.5825 127.723 84.0783C128.443 84.8505 129.291 85.5075 130.208 86.0463C130.365 86.1393 130.218 86.366 130.06 86.3163C128.41 85.7915 127.046 84.8302 125.937 83.5039C126.591 84.7169 127.351 85.8401 128.58 86.4925C128.591 86.497 128.586 86.5074 128.573 86.5081C127.669 86.1973 126.855 85.5054 126.133 84.7817C126.82 85.8518 127.811 86.741 128.947 87.3528C128.964 87.3633 128.956 87.3879 128.933 87.3841C127.119 86.9332 125.379 85.8961 124.323 84.4284C124.373 84.5895 124.433 84.7514 124.504 84.9089C125.112 86.2782 126.404 87.4278 127.835 87.8581C127.844 87.8588 127.841 87.873 127.832 87.8722C126.971 88.0407 125.974 87.5508 125.188 86.9081C125.867 87.8262 126.637 88.1037 127.872 88.1801C127.951 88.1833 127.961 88.2959 127.897 88.3299C126.606 88.9404 125.389 88.5809 124.404 87.7714C124.039 87.5921 123.712 87.3764 123.314 87.1456C121.891 86.3197 119.812 85.9089 118.203 86.5332C117.964 86.6278 117.752 86.7336 117.558 86.8537C119.177 86.2466 121.218 86.3964 122.647 87.0517C122.657 87.0562 122.654 87.0703 122.64 87.0673C121.406 86.6325 120.133 86.6104 118.93 87.005C119.451 86.8935 119.979 86.8312 120.496 86.8419C122.573 86.8868 123.969 88.5911 125.961 88.6953C125.97 88.6961 125.969 88.714 125.96 88.7132C124.607 88.7311 123.745 88.0151 122.506 87.6213C122.076 87.485 121.663 87.4113 121.256 87.3868C122.79 87.7936 123.963 88.6969 125.671 89.4015C125.687 89.4083 125.684 89.4351 125.663 89.435C123.683 89.0797 121.966 88.2193 119.89 88.5149C119.702 88.5419 119.517 88.5852 119.328 88.6427C121.435 88.5894 123.529 89.6716 125.675 89.7927C125.683 89.7898 125.681 89.8076 125.677 89.8091C124.38 89.9993 123.194 89.6406 121.914 89.5045C123.203 89.9693 124.465 90.4966 125.873 90.4655C125.907 90.4649 125.908 90.5118 125.884 90.5259C124.413 91.2035 123.091 90.6351 121.567 90.3625C120.549 90.1788 119.63 90.2107 118.718 90.3388C118.994 90.424 119.271 90.5039 119.556 90.5682C120.666 90.8103 121.762 90.963 122.897 91.0271C122.904 91.0242 122.903 91.042 122.899 91.0435C122.419 91.1388 121.923 91.1841 121.422 91.2055C122.246 91.3021 123.076 91.3705 123.901 91.4276C123.919 91.4292 123.922 91.4582 123.902 91.4619C122.96 91.5675 120.91 92.0257 119.134 92.0086C119.292 92.0926 119.453 92.1714 119.614 92.2412C121.381 92.9654 123.134 92.0726 124.913 92.533C124.975 92.5474 124.958 92.645 124.9 92.6507C122.797 92.944 121.042 93.8853 118.938 93.148C118.488 92.9938 117.974 92.8177 117.46 92.6111C117.839 92.9014 118.233 93.177 118.713 93.3447C120.239 93.8841 121.921 93.7272 123.496 93.5648C123.504 93.5619 123.51 93.5768 123.502 93.5797C122.2 93.9316 120.857 94.2349 119.515 94.1581C120.937 94.6651 122.446 94.6843 123.976 94.1864C123.991 94.1805 124.007 94.1999 123.991 94.2147C122.149 95.4798 120.115 95.707 118.072 95.0058C118.409 95.2349 118.76 95.4238 119.152 95.5317C120.235 95.8237 122.044 96.0435 123.038 95.5029C123.053 95.497 123.07 95.5164 123.054 95.5313C122.508 95.9504 121.661 96.1652 120.795 96.245C121.873 96.2665 122.982 95.9915 124.029 95.4861C124.047 95.4787 124.056 95.5011 124.044 95.5144C123.057 96.5313 121.86 97.0399 120.625 97.1364C120.672 97.144 120.72 97.1464 120.77 97.1525C120.788 97.1541 120.789 97.1794 120.769 97.1831C118.376 97.6565 115.846 98.1451 114.28 100.228C113.915 100.714 113.626 101.269 113.423 101.846C114.058 100.748 115.12 99.7663 115.952 99.208C117.935 97.8741 120.329 97.4998 122.653 97.2221C122.661 97.2192 122.667 97.2341 122.659 97.2371C120.569 97.7458 118.319 98.201 116.535 99.4819C116.091 99.8001 115.696 100.164 115.344 100.562C115.41 100.51 115.476 100.458 115.536 100.413C117.807 98.6628 120.327 98.4633 122.9 97.4309C122.919 97.4235 122.929 97.4496 122.912 97.4607C121.175 98.4378 119.314 98.9248 117.66 99.9901C118.768 99.4215 120.098 99.1927 121.274 98.9254C121.289 98.9195 121.299 98.9456 121.285 98.9553C120.053 99.4951 118.597 99.8606 117.54 100.724C119.474 99.7547 121.623 99.2746 123.439 98.0288C123.466 98.0095 123.51 98.0439 123.482 98.0721C122.102 99.6331 120.173 100.276 118.439 101.347C117.836 101.72 117.28 102.148 116.769 102.622C117.366 102.222 118.027 101.886 118.6 101.547C119.976 100.738 121.378 100.006 122.848 99.3807C122.859 99.3763 122.864 99.3875 122.854 99.3956C121.497 100.209 120.14 101.032 118.835 101.933C118.466 102.187 118.099 102.483 117.726 102.782C118.025 102.677 118.326 102.566 118.614 102.431C120.107 101.744 121.495 100.836 122.799 99.8448C122.812 99.8351 122.832 99.8531 122.82 99.8665C122.086 100.9 121.246 101.819 120.322 102.656C121.311 102.191 122.188 101.593 122.871 100.701C122.877 100.695 122.888 100.703 122.882 100.709C122.514 101.283 122.099 101.792 121.61 102.236C122.392 101.75 123.132 101.198 123.769 100.561C123.781 100.548 123.802 100.569 123.79 100.583C122.606 102.256 121.159 103.507 119.432 104.528C120.364 104.137 121.435 103.812 122.127 103.063C122.133 103.056 122.145 103.065 122.139 103.071C121.543 103.886 120.578 104.307 119.708 104.768C119.555 104.85 119.394 104.944 119.227 105.045C119.434 104.98 119.638 104.908 119.837 104.821C121.401 104.128 122.679 103.073 123.712 101.714C123.755 101.659 123.834 101.718 123.798 101.78C122.951 103.224 121.744 104.329 120.271 105.132C120.114 105.216 119.95 105.302 119.778 105.392C120.441 105.104 121.089 104.799 121.663 104.343C121.686 104.325 121.712 104.358 121.691 104.38C121.131 104.938 120.483 105.341 119.777 105.682C119.959 105.618 120.138 105.547 120.312 105.474C120.573 105.349 120.837 105.232 121.097 105.103C121.097 105.103 121.097 105.103 121.102 105.105C122.248 104.5 123.245 103.673 124.06 102.604C124.072 102.59 124.094 102.603 124.088 102.619C123.68 103.518 123.138 104.35 122.473 105.058C123.013 104.602 123.518 104.1 123.988 103.565C123.994 103.558 124.006 103.566 124 103.573C123.262 104.62 122.421 105.601 121.395 106.379C121.106 106.597 120.764 106.845 120.397 107.063C120.976 106.825 121.5 106.492 122.01 106.122C123.002 105.401 123.868 104.514 124.559 103.503C124.565 103.496 124.577 103.504 124.571 103.511C123.756 104.843 122.79 106.076 121.508 106.99C121.49 107.001 121.47 107.014 121.454 107.029C122.704 106.753 123.788 106.134 124.704 104.904C124.716 104.891 124.738 104.903 124.731 104.919C124.411 105.767 123.914 106.43 123.302 106.944C121.882 108.818 120.449 111.704 120.331 114.163C120.468 113.431 120.659 112.726 120.856 112.112C121.607 109.769 123.035 107.848 124.859 106.232C124.871 106.219 124.892 106.241 124.88 106.254C124.142 107.246 123.528 108.331 123.038 109.47C123.475 108.731 123.961 108.051 124.445 107.475C124.457 107.462 124.481 107.478 124.47 107.495C123.629 108.761 122.981 110.144 122.602 111.615C123.44 109.678 124.638 107.986 126.106 106.429C126.146 106.387 126.216 106.433 126.181 106.486C124.877 108.5 123.886 110.739 123.348 113.085C124.384 111.004 125.868 108.944 126.455 107.352C126.468 107.321 126.52 107.331 126.517 107.367C126.273 108.866 125.821 110.284 125.315 111.697C125.87 110.605 126.329 109.452 126.675 108.159C126.676 108.15 126.694 108.151 126.689 108.162C126.438 109.629 125.955 111.681 125.074 113.312C126.109 111.741 126.89 110.063 127.509 108.247C127.514 108.228 127.538 108.235 127.537 108.253C127.529 109.901 127.081 111.459 126.426 112.945C127.047 111.887 127.483 110.765 127.798 109.544C127.803 109.524 127.828 109.532 127.826 109.55C127.758 110.522 127.485 111.597 127.068 112.647C127.385 112.086 127.693 111.523 128.017 110.968C128.023 110.961 128.033 110.966 128.028 110.976C127.622 112.086 127.163 113.171 126.611 114.218C126.654 114.162 126.699 114.114 126.737 114.056C127.699 112.66 128.21 111.193 128.71 109.592C128.713 109.578 128.737 109.582 128.741 109.593C128.93 110.878 128.781 112.253 128.356 113.557C128.561 113.061 128.759 112.56 128.986 112.064C128.993 112.048 129.016 112.052 129.014 112.07C129.001 113.508 128.202 115.435 127.057 116.903C127.32 116.661 127.572 116.392 127.798 116.091C128.968 114.514 129.505 112.622 129.607 110.679C129.604 110.671 129.622 110.673 129.623 110.677C129.752 112.179 129.624 113.663 129.1 115.053C129.934 113.639 130.457 111.909 129.999 110.372C129.995 110.361 130.016 110.348 130.028 110.357C131.623 111.857 130.96 114.442 129.837 116.358C129.782 117.994 130.105 119.662 131.059 120.738C130.457 119.6 130.167 118.269 130.212 117.021C130.213 117.012 130.227 117.015 130.228 117.019C130.639 118.578 131.153 119.976 132.421 121.019C132.324 120.915 132.228 120.815 132.15 120.716C131.056 119.393 130.498 117.667 130.777 115.964C130.784 115.927 130.831 115.926 130.837 115.962C131.164 117.399 131.805 118.591 132.843 119.458C131.883 117.982 131.341 116.155 131.266 114.454C131.264 114.446 131.278 114.441 131.281 114.448C131.932 116.003 132.424 117.604 133.651 118.805C132.646 117.391 132.035 115.664 131.65 113.952C131.643 113.934 131.674 113.925 131.68 113.94C132.285 115.229 133.135 116.48 134.232 117.418C133.766 116.809 133.395 116.123 133.194 115.408C133.188 115.393 133.21 115.384 133.22 115.398C133.556 115.766 133.873 116.141 134.198 116.504C133.538 115.35 132.814 114.242 132.153 113.084C132.145 113.066 132.168 113.057 132.181 113.069C133.062 113.941 134.052 114.676 134.903 115.581C135.44 116.154 135.984 116.742 136.601 117.222C135.546 115.331 133.814 113.902 132.261 112.334C132.258 112.326 132.266 112.314 132.273 112.32C133.498 113.298 134.93 114.125 136.168 115.115C135.678 114.476 135.098 113.916 134.371 113.487C134.364 113.481 134.365 113.472 134.378 113.472C135.131 113.587 135.854 114.039 136.487 114.57C135.304 113.217 133.334 112.461 131.899 111.463C131.882 111.452 131.899 111.432 131.914 111.435C134.445 112.073 137.21 112.669 138.824 114.814C138.557 113.301 137.278 112.262 135.491 111.805C135.482 111.804 135.485 111.79 135.494 111.791C137.44 112.039 139.534 113.043 140.113 115.006C140.453 113.283 138.956 112.249 137.493 111.551C137.482 111.547 137.487 111.537 137.5 111.536C139.287 112.006 141.322 112.762 141.242 114.957L141.252 114.961ZM123.093 86.2276C122.64 85.4966 122.315 84.6885 122.166 83.9406C122.077 83.488 122.078 82.6632 122.198 81.7567C122.119 81.939 122.057 82.1407 122.012 82.3656C121.705 83.834 122.29 85.0178 123.051 86.1969C123.064 86.2088 123.081 86.2193 123.093 86.2276ZM115.377 102.116C115.455 101.986 115.542 101.856 115.63 101.731C115.465 101.913 115.304 102.106 115.152 102.3C115.226 102.236 115.302 102.176 115.376 102.112L115.377 102.116Z" fill="#CE726F"/>
<path d="M142.515 88.6334C143.583 89.2159 144.487 89.9409 145.197 90.9373C145.752 91.7186 145.914 92.9754 146.602 93.6007C146.81 93.7899 146.909 94.0182 146.939 94.2441C147.263 94.202 147.586 94.0697 147.871 93.9611C147.882 93.9566 147.894 93.9649 147.895 93.9775C147.535 95.5963 145.8 95.9683 144.335 95.5387C142.618 96.685 140.274 95.4946 138.188 95.3193C134.033 94.9716 129.466 95.4944 127.127 99.4075C127.121 99.4232 127.093 99.4082 127.1 99.3926C128.275 96.6394 130.663 95.1713 133.418 94.3474C133.043 94.3581 132.662 94.3881 132.273 94.4643C130.303 94.8519 128.676 95.8979 127.485 97.5094C127.468 97.5332 127.433 97.5085 127.448 97.4809C128.401 95.8344 130.11 94.4712 132.007 93.8144C129.95 94.2106 128.001 95.2071 126.952 97.1119C126.947 97.1224 126.933 97.1193 126.936 97.1052C127.865 94.8296 130.012 93.5603 132.329 92.9705C132.812 92.8484 133.389 92.7363 134.006 92.6601C130.547 92.2864 127.434 93.1442 125.899 97.6457C125.892 97.6613 125.865 97.659 125.865 97.6374C126.769 92.946 130.306 91.1001 134.303 90.872C131.683 90.4341 128.935 90.6246 127.306 93.1043C127.294 93.1176 127.272 93.1049 127.279 93.0893C128.408 90.8636 130.569 90.0206 132.976 89.887C133.251 89.873 133.553 89.8613 133.871 89.8564C132.689 89.5433 131.495 89.3821 130.264 89.7185C130.245 89.7259 130.242 89.6968 130.252 89.6886C131.789 88.7646 133.742 89.0311 135.455 89.2246C129.537 87.2832 126.467 91.9219 125.132 97.246C125.126 97.2653 125.098 97.2593 125.098 97.2377C125.875 92.6397 127.71 87.4671 133.2 87.39C134.273 87.375 135.687 87.5227 137.186 87.831C133.024 86.6182 128.221 87.2647 126.32 91.7687C126.315 91.7791 126.301 91.776 126.304 91.7619C127.776 87.48 132.099 86.0265 136.325 86.6702C138.41 86.9878 140.653 87.6056 142.504 88.6162L142.515 88.6334Z" fill="#CE726F"/>
<path d="M134.263 110.949C134.263 110.949 134.246 110.917 134.268 110.917C139.088 111.023 143.095 109.155 146.565 106.037C145.407 106.699 144.275 107.371 143.178 107.871C140.357 109.161 136.873 110.977 133.66 110.428C129.41 109.703 124.769 103.989 124.986 99.6994C124.987 99.6815 125.016 99.6786 125.02 99.6987C125.353 102.86 128.171 105.9 130.758 107.603C133.539 109.436 136.211 108.403 138.839 107.116C138.013 107.319 137.211 107.463 136.486 107.539C132.98 107.905 129.928 107.513 127.995 104.42C127.991 104.409 128 104.401 128.009 104.411C131.173 108.181 136.444 107.051 140.255 104.928C138.455 105.525 136.643 106.126 134.734 106.222C131.044 106.406 127.94 104.433 125.927 101.454C125.916 101.437 125.937 101.416 125.954 101.435C127.988 103.987 130.531 104.961 133.232 104.97C131.278 104.885 129.604 104.025 127.882 102.959C127.876 102.953 127.88 102.942 127.891 102.947C129.638 103.73 131.382 104.417 133.355 104.308C134.681 104.236 135.985 103.616 137.214 103.004C135.861 103.173 134.496 103.343 133.095 103.479C130.242 103.763 127.475 102.671 125.738 100.291C125.727 100.273 125.746 100.257 125.761 100.273C129.13 103.504 133.177 102.467 137.161 101.54C135.749 101.638 134.345 101.775 132.928 101.793C130.728 101.818 127.862 102.134 126.451 100.107C126.446 100.096 126.456 100.088 126.464 100.098C128.647 102.677 134.801 100.792 137.588 100.145C137.722 100.114 137.857 100.082 137.995 100.049C134.802 99.8118 130.314 101.883 127.375 100.294C127.358 100.283 127.367 100.253 127.388 100.262C129.414 101.139 131.982 99.8411 133.944 99.3141C134.549 99.1522 135.153 99.0209 135.759 98.9059C133.151 98.8599 130.657 99.3516 128.174 100.132C128.163 100.137 128.157 100.122 128.168 100.118C129.974 99.1951 132.373 98.2791 134.792 97.8691C132.133 97.8908 129.525 98.4537 127.078 99.9798C127.059 99.9872 127.039 99.9692 127.058 99.9529C131.041 96.6272 135.922 96.0361 140.961 96.4784C143.948 96.7409 150.146 97.0134 152.847 99.5388C154.079 99.9788 155.025 100.756 156.143 101.474C156.162 101.489 156.161 101.519 156.138 101.528C156.097 101.544 156.056 101.548 156.013 101.56C156.012 101.569 156.006 101.576 156.005 101.585C156.351 102.217 155.969 103.279 155 103.231C154.742 103.462 154.397 103.603 153.955 103.567C153.576 103.536 153.202 103.55 152.83 103.581C149.606 104.716 146.641 108.29 143.734 109.645C140.699 111.058 137.569 111.526 134.277 110.961L134.263 110.949ZM139.938 103.418C139.442 103.528 138.948 103.655 138.457 103.81C137.235 104.2 136.013 104.667 134.739 104.873C136.348 104.685 137.99 104.211 139.594 103.563C139.706 103.519 139.82 103.469 139.934 103.42L139.938 103.418Z" fill="#CE726F"/>
<path d="M108.196 124.137C107.523 124.007 106.732 123.819 105.912 123.57C105.336 123.444 104.785 123.252 104.267 122.979C103.038 122.46 101.895 121.773 101.157 120.87C99.2932 119.826 97.7935 118.383 96.6797 116.562C95.8933 115.285 95.3331 113.893 94.5961 112.588C92.6997 109.239 89.8615 108.318 86.0932 108.567C86.0515 108.571 86.039 108.507 86.0808 108.503C88.391 108.179 90.7626 107.814 92.8761 109.074C95.0751 110.387 96.1776 112.941 97.5672 114.968C97.7637 115.257 97.9782 115.526 98.1949 115.789C97.8129 115.043 97.5255 114.285 97.3543 113.559C97.3389 113.487 97.4418 113.464 97.4729 113.52C98.4048 115.404 99.4635 117.009 101.178 118.276C101.451 118.475 101.728 118.65 102.007 118.811C102.024 118.821 102.044 118.827 102.063 118.832C101.442 118.439 100.863 117.948 100.325 117.32C98.2537 114.903 97.0906 111.967 94.573 109.883C92.1394 107.869 89.0915 107.06 86.2419 107.995C78.0863 112.477 74.9188 122.524 75.7154 131.475C75.8474 131.677 75.9756 131.881 76.1061 132.08C76.1283 132.114 76.0797 132.155 76.0538 132.122C75.9365 131.979 75.8252 131.829 75.708 131.685C75.6893 131.693 75.6692 131.696 75.6626 131.669C75.6567 131.654 75.6582 131.636 75.656 131.619C72.0578 127.123 68.6097 122.516 65.025 118.01C64.5961 117.472 64.1575 116.92 63.6966 116.378C61.8906 115.207 59.8614 114.574 57.8408 117.209C57.1687 118.083 56.7929 119.488 56.4564 120.545C55.9616 122.097 55.5749 123.67 54.8427 125.134C53.3904 128.048 51.0018 130.44 48.3081 132.237C45.3044 134.243 42.0061 135.472 38.5108 136.312C36.1893 136.869 32.2469 138.63 30.779 135.927C30.6657 135.717 30.621 135.484 30.6218 135.247C29.982 134.274 29.8754 132.927 30.9741 131.93C34.9338 128.351 35.7766 122.285 38.715 117.936C41.5441 113.746 46.5726 110.761 51.4373 109.521C56.4272 108.247 60.6119 110.509 63.8251 114.251C64.6758 115.243 65.4868 116.277 66.2858 117.325C65.5513 115.471 65.0169 113.511 64.4469 111.484C63.9468 109.71 63.3965 107.809 62.7621 105.88C61.8389 104.541 60.7757 103.383 58.9361 103.097C56.3697 102.698 53.9276 104.127 51.6186 104.977C47.7204 106.414 44.7783 105.818 41.0505 104.209C37.0392 102.483 33.0836 100.593 29.2629 98.4768C27.0353 97.2444 22.742 95.6131 21.5323 93.0279C19.6832 92.0211 19.9642 88.1979 22.8961 88.4737C33.6959 89.4783 46.5696 81.2278 56.1626 89.9399C60.2032 93.6135 62.3565 100.128 64.0082 105.158C65.1464 108.63 65.6821 112.445 66.7178 116.04C66.6464 115.326 66.6048 114.6 66.5961 113.87C65.9419 109.386 65.3422 104.875 65.1822 100.342C64.1865 96.1185 62.4913 92.1114 61.2541 87.9315C59.8401 83.1527 59.2535 78.0547 59.3967 73.0777C59.5399 68.1222 60.4365 63.1402 62.1554 58.4798C63.6525 54.4253 65.8722 49.286 69.6513 46.8955C70.9932 46.0445 72.5057 47.1934 72.557 48.347C73.0831 48.7817 73.3737 49.4824 73.0721 50.301C70.9172 56.1268 74.6094 61.6993 76.1768 67.1813C77.5859 72.1002 76.8989 76.5762 74.4555 81.0747C71.4123 86.674 67.0713 90.8711 66.704 97.5814C66.5128 101.054 66.6233 104.579 66.7628 108.102C67.2702 102.083 69.5364 96.4075 73.8609 91.8199C79.9231 85.3872 88.2156 82.9826 96.8564 83.3966C97.4055 83.4208 97.8056 83.6464 98.0802 83.9693C98.7481 84.1406 99.1838 84.8485 99.1703 85.5444C99.1252 87.6858 97.2886 89.4233 96.4424 91.3511C95.9394 92.5 95.5129 93.6788 94.9913 94.8134C95.5653 98.9971 92.6808 102.829 88.7872 104.462C86.6024 105.375 84.0969 105.685 81.7524 105.759C78.0204 105.883 68.6466 103.597 69.0028 110.314C69.0064 110.356 68.9423 110.368 68.9387 110.326C68.5112 106.24 72.3769 104.471 75.8786 104.159C79.2894 103.856 82.5945 103.941 85.8697 102.73C86.3032 102.571 86.6935 102.391 87.06 102.194C86.5318 102.407 85.9976 102.606 85.4523 102.766C81.6946 103.892 78.3843 103.326 74.5783 103.262C67.9037 103.149 67.2399 112.303 67.3063 117.874C67.5278 118.499 67.7776 119.108 68.0446 119.705C70.7071 123.485 73.1475 127.477 75.6221 131.305C74.3349 122.216 76.5366 112.651 84.4922 107.152C88.1921 104.594 92.5327 103.664 96.9299 103.161C99.486 102.869 102.055 102.719 104.608 102.398C106.546 102.157 108.399 101.225 110.056 102.476C110.331 102.682 110.345 103.022 110.184 103.301C108.738 105.817 103.707 105.069 101.162 105.162C100.745 105.176 100.324 105.192 99.9067 105.206C102.442 106.148 104.346 108.316 104.805 110.978C106.259 110.575 107.842 110.811 109.229 111.591C110.073 112.064 110.749 112.681 111.346 113.372C109.972 111.56 108.165 110.243 105.425 110.059C105.417 110.062 105.417 110.041 105.422 110.043C108.775 109.876 111.363 112.096 113.247 114.673C114.577 116.494 115.658 118.492 116.944 120.344C117.267 120.811 118.017 121.559 117.475 122.175C117.212 122.469 116.876 122.58 116.564 122.523C114.409 123.924 110.687 124.596 108.202 124.109L108.196 124.137ZM54.2058 115.921C50.772 118.649 48.7881 122.336 46.7533 126.09C46.87 125.948 46.9867 125.807 47.0997 125.668C49.5974 122.537 51.8735 119.283 54.7033 116.436C54.7347 116.406 54.7755 116.455 54.7456 116.488C52.2857 119.017 50.6214 122.05 48.8566 125.036C50.0169 123.433 51.201 121.846 52.4378 120.337C52.452 120.319 52.4772 120.339 52.463 120.358C51.2232 122.131 50.2942 124.078 49.3065 125.998C49.882 125.239 50.4204 124.451 50.9342 123.656C53.0036 120.48 54.7693 117.191 57.2446 114.298C57.2603 114.284 57.2841 114.3 57.2699 114.319C54.6155 117.74 53.1393 121.803 50.9214 125.487C50.5153 126.162 50.0365 126.947 49.4937 127.723C51.2899 126.243 52.7677 124.406 53.7403 122.122C54.8277 119.572 55.6022 116.145 58.1669 114.589C58.9561 114.108 59.7084 113.97 60.4183 114.051C53.6074 112.122 48.7234 120.298 45.8128 125.47C46.2865 124.846 46.7573 124.215 47.208 123.566C49.2333 120.649 51.2319 117.936 54.1857 115.903C54.2029 115.892 54.2207 115.915 54.2035 115.926L54.2058 115.921ZM58.5895 112.082C55.3301 110.577 51.993 111.566 48.9376 113.027C46.4083 114.236 43.688 115.737 41.9525 117.991C41.0432 119.171 40.4671 120.539 40.0235 121.958C40.9595 120.594 41.9971 119.368 42.9191 118.394C46.7051 114.386 51.9196 111.25 57.558 112.387C57.5774 112.393 57.5713 112.421 57.5534 112.419C51.7956 111.787 46.2525 115.14 42.896 119.719C42.1445 120.742 41.5015 121.843 40.9485 122.985C41.8561 121.637 42.7913 120.305 43.8215 119.059C46.6869 115.593 50.203 113.203 54.7789 112.988C54.8206 112.984 54.8331 113.048 54.7913 113.052C49.5357 113.545 46.1419 117.704 43.7794 122.058C43.9501 121.835 44.1222 121.616 44.2906 121.398C46.4735 118.596 49.0281 116.284 51.9104 114.223C51.9276 114.212 51.9491 114.234 51.9297 114.25C48.983 116.617 46.4243 119.496 44.5639 122.796C44.351 123.174 44.1582 123.57 43.9743 123.966C45.2726 122.08 46.4825 120.133 48.0842 118.467C51.4026 115.011 57.5733 110.715 62.0572 114.615C62.0602 114.622 62.0616 114.626 62.0609 114.635C62.0951 114.656 62.133 114.675 62.1672 114.696C61.1082 113.635 59.9354 112.702 58.5895 112.082ZM56.8514 93.8795C53.2863 89.4996 47.5124 88.5542 42.1709 89.1034C43.751 89.2026 45.3121 89.4172 46.887 89.7428C48.9943 90.1813 51.4236 90.5828 53.3794 91.5215C55.5153 92.5442 55.6098 94.613 57.4552 95.8285C57.4723 95.839 57.4521 95.8643 57.435 95.8538C56.7529 95.4723 56.629 95.0941 56.0733 94.5848C54.8744 93.4757 53.9375 92.4399 52.2434 91.8679C49.8281 91.0551 47.0127 90.6814 44.4691 90.6014C42.4857 90.5411 40.0764 91.0726 37.7172 91.3382C40.8285 91.4566 43.936 91.3693 47.0229 91.8729C51.2076 92.5545 55.9524 93.9853 58.1195 97.9306C58.1366 97.9627 58.0873 97.9908 58.068 97.9639C55.8951 95.2898 52.3404 94.281 48.6784 93.9708C48.8928 94.011 49.1058 94.0474 49.3166 94.0891C52.1523 94.6231 54.5765 95.6439 56.5665 97.7689C56.5798 97.7809 56.5596 97.8061 56.5448 97.7905C53.844 95.4507 50.6349 95.1509 47.3346 95.1764C52.5028 96.3143 57.4133 98.1197 61.2891 101.802C60.1081 98.8865 58.674 96.1053 56.8574 93.8728L56.8514 93.8795ZM61.5595 102.507C54.9922 97.2488 46.6664 96.8999 38.4837 96.1059C42.9559 97.4807 47.446 98.6499 52.2593 98.7285C52.2772 98.73 52.2801 98.7591 52.2599 98.7628C48.683 99.2777 45.1282 98.9767 41.5877 98.4284C45.675 99.714 49.9551 100.353 54.2321 99.7209C54.2724 99.7136 54.2848 99.7777 54.2446 99.785C49.3985 100.811 44.7372 100.724 39.8929 99.6523C39.808 99.6341 39.7179 99.6137 39.633 99.5955C40.4595 99.9932 41.3206 100.325 42.1899 100.624C45.2809 101.683 48.3478 102.168 51.5407 101.283C51.5743 101.27 51.589 101.329 51.5591 101.341C51.2136 101.504 50.7951 101.656 50.3251 101.799C51.8692 101.546 53.4249 101.137 55.0297 100.536C55.067 100.521 55.0914 100.572 55.0519 100.592C53.591 101.382 51.098 102.65 48.5665 103.385C52.0929 103.059 55.427 100.732 59.1077 101.493C60.2261 101.723 61.0442 102.197 61.6799 102.822C61.6385 102.717 61.5957 102.609 61.558 102.503L61.5595 102.507ZM70.6129 82.8257C72.5055 79.5079 74.2113 75.8713 73.9352 71.9495C73.9195 71.7356 73.8889 71.5276 73.8658 71.3166C73.2382 77.1848 70.0498 83.2128 67.1834 87.6458C67.1714 87.6591 67.1491 87.6464 67.1559 87.6308C69.2203 83.7227 71.215 79.6824 71.8877 75.2682C71.9585 74.8042 71.9966 74.3446 72.0205 73.882C71.5337 75.9652 70.854 78.0084 70.0283 80.0533C70.0103 80.095 69.9567 80.0687 69.9673 80.03C70.8677 76.583 71.1693 73.0624 70.9768 69.5477C70.9259 70.0729 70.872 70.5906 70.8151 71.1008C70.3349 75.4561 69.2932 79.723 67.9016 83.8695C67.8896 83.9045 67.8315 83.8887 67.8398 83.8552C68.7075 80.1838 69.2622 76.4852 69.4655 72.7274C68.8622 77.3386 67.9619 81.8646 66.7755 86.3873C66.7589 86.4543 66.648 86.4249 66.6557 86.3571C67.1627 82.2114 67.5455 78.0242 67.7785 73.8403C67.5037 75.8266 67.2496 77.822 67.0053 79.8093C67 79.8502 66.9448 79.8418 66.9427 79.8038C66.8877 77.3007 66.681 74.4908 66.6376 71.6465C65.824 77.8732 65.6302 84.1608 66.0199 90.4287C66.022 90.4667 65.9668 90.4799 65.9595 90.4397C64.8938 83.5548 64.5413 76.629 65.0503 69.677C65.1798 67.9122 65.3578 66.1498 65.5895 64.392C65.2649 65.8716 64.9864 67.3587 64.7326 68.8533C63.6062 75.4888 64.4532 81.6144 65.1799 88.2538C65.1836 88.274 65.1522 88.282 65.1471 88.2582C63.8841 81.5507 62.9018 75.552 63.581 68.7355C63.7721 66.8427 63.9453 64.9484 64.2169 63.0626C62.9769 67.3304 62.4576 71.7831 62.4905 76.2243C62.5388 82.5455 64.3835 88.6729 65.3613 94.8676C66.049 90.4258 68.2887 86.9058 70.6122 82.8346L70.6129 82.8257ZM68.649 104.899C70.5325 101.602 73.6527 101.536 77.1016 101.624C79.9195 101.699 82.9946 101.279 85.669 100.121C82.7526 100.767 79.6574 100.961 77.8182 101.254C77.7981 101.258 77.7937 101.225 77.8138 101.221C79.8721 100.708 82.0279 100.234 84.0608 99.5147C81.481 100.226 78.8061 100.621 76.1058 100.832C76.064 100.835 76.0531 100.775 76.0933 100.768C80.4388 99.9266 84.8559 98.1552 88.4799 95.5801C88.5472 95.5319 88.6092 95.4815 88.6749 95.4295C83.4466 97.7899 77.1122 99.341 75.0221 99.7849C74.9781 99.7937 74.9709 99.7318 75.0096 99.7207C78.088 98.7861 80.9587 97.3166 83.7404 95.7097C79.688 97.1596 73.3116 97.9074 71.3281 101.693C71.3176 101.71 71.2878 101.7 71.2968 101.679C73.0018 98.2804 77.1381 97.6086 80.3329 96.1618C81.7523 95.5175 83.1584 94.818 84.5187 94.0461C79.5527 95.9356 73.392 97.6856 70.3815 101.973C70.3568 102.008 70.3063 101.968 70.3273 101.934C72.7363 98.1223 76.5225 96.2944 80.3914 94.2395C81.0468 93.8892 81.7052 93.5464 82.3546 93.2028C80.1954 93.5921 78.1413 94.1814 76.5472 95.5941C76.5338 95.6037 76.5137 95.5857 76.5257 95.5724C78.0913 93.7393 80.2772 92.9597 82.4196 92.0161C79.3346 93.1734 76.4189 94.7255 74.1025 97.1366C74.0748 97.1648 74.0317 97.1214 74.0542 97.0909C75.5562 95.1191 77.2711 93.4773 79.1834 92.0507C76.8076 93.4623 74.7189 95.2825 73.0548 97.5861C73.0406 97.6047 73.0153 97.5845 73.0295 97.5659C74.9012 94.6966 77.4312 92.1708 80.3274 90.1775C73.7294 93.9178 68.7723 100.547 67.3052 108.142C67.6256 107.001 68.0645 105.908 68.6416 104.902L68.649 104.899ZM99.3029 107.517C99.6647 107.831 100.015 108.159 100.351 108.496C100.048 108.111 99.6954 107.789 99.3029 107.517ZM99.61 108.815C100.148 109.301 100.736 109.828 101.283 110.38C101.25 110.263 101.218 110.151 101.183 110.039C101.028 109.833 100.869 109.629 100.704 109.431C100.118 108.726 99.5023 108.042 98.8719 107.377C98.834 107.336 98.8491 107.287 98.8827 107.252C96.7772 106.066 93.7592 106.118 90.9975 106.184C90.4695 106.312 89.9452 106.459 89.4245 106.626C91.499 106.612 93.6493 107.344 95.4509 108.503C94.8387 107.731 94.0854 107.05 92.9784 106.522C92.9405 106.502 92.963 106.45 93.0017 106.461C94.9405 106.932 96.558 107.659 98.0318 109.026C98.5318 109.493 99.009 110.055 99.5815 110.454C99.0392 109.706 98.3339 108.949 98.0037 108.083C98.0007 108.076 98.0104 108.068 98.0171 108.074C98.7881 108.593 99.3672 109.455 99.9714 110.152C100.17 110.38 100.405 110.615 100.634 110.865C100.664 110.866 100.693 110.863 100.722 110.861C100.448 110.473 100.194 110.082 99.9384 109.786C98.7812 108.423 97.4962 107.205 95.7972 106.566C95.7867 106.562 95.7898 106.548 95.8039 106.551C97.2644 107.012 98.4778 107.788 99.6137 108.814L99.61 108.815ZM107.963 116.806C106.448 116.206 105.047 115.729 103.739 114.728C103.704 114.703 103.744 114.653 103.778 114.674C104.435 115.078 105.885 115.285 107.409 115.57C107.033 115.383 106.656 115.204 106.286 115.001C105.899 114.787 104.914 113.836 104.473 113.79C104.458 113.787 104.453 113.772 104.462 113.764C104.511 113.723 104.563 113.681 104.612 113.64C104.637 113.617 104.679 113.614 104.709 113.623C105.465 113.975 106.145 114.449 106.939 114.743C107.566 114.973 108.218 115.138 108.842 115.374C107.819 114.381 106.598 113.544 105.259 113.095C105.219 113.08 105.242 113.019 105.282 113.034C106.02 113.251 106.734 113.486 107.421 113.77C106.799 113.223 106.155 112.709 105.464 112.228C105.355 112.15 105.451 111.978 105.573 112.025C106.445 112.353 107.282 112.798 108.058 113.328C107.211 112.369 106.175 111.735 104.812 111.77C104.693 112.395 104.227 112.821 103.673 113.002C103.579 113.277 103.415 113.518 103.159 113.689C102.45 114.164 101.705 114.343 100.98 114.289C101.399 114.779 101.831 115.26 102.301 115.717C102.941 116.331 103.654 116.704 104.411 116.948C103.562 116.253 102.922 115.367 102.662 114.352C102.656 114.337 102.679 114.328 102.688 114.342C103.855 115.904 105.079 116.619 107.007 116.908C107.503 116.984 108.001 117.011 108.503 117.036C108.319 116.962 108.134 116.889 107.95 116.815L107.963 116.806ZM101.998 121.283C101.91 121.245 101.821 121.207 101.737 121.167C101.902 121.291 102.078 121.407 102.261 121.52C102.17 121.444 102.083 121.366 101.998 121.283Z" fill="#CE726F"/>
<path d="M85.2029 150.631C85.3181 150.943 85.113 151.21 84.8606 151.379C84.3864 151.696 83.6296 151.616 83.2712 151.158C82.8498 150.618 82.9576 150.018 83.3274 149.492C83.7325 148.913 84.4258 148.811 85.0799 148.849C85.0889 148.85 85.0873 148.868 85.0784 148.867C84.2456 148.791 83.3028 149.299 83.404 150.23C83.4365 150.541 83.5952 150.745 83.8848 150.833C83.9779 150.861 84.0956 150.875 84.2051 150.858C84.0494 150.639 84.099 150.295 84.4561 150.227C84.7693 150.168 85.0944 150.324 85.2066 150.629L85.2029 150.631Z" fill="#CE726F"/>
<path d="M82.0052 154.957C82.0052 154.957 81.997 154.969 81.9903 154.963C81.52 154.321 81.5867 153.323 82.1125 152.722C82.5666 152.202 83.4852 152.015 83.9952 152.572C84.4511 153.069 84.2823 154.081 83.5287 154.173C82.6222 154.281 82.6357 152.921 83.3437 152.649C82.9986 152.453 82.5823 152.623 82.3101 152.894C81.7405 153.461 81.7907 154.253 82.003 154.963L82.0052 154.957ZM83.6314 153.299C83.642 153.26 83.6451 153.225 83.6504 153.184C83.5554 153.303 83.5545 153.563 83.6314 153.299Z" fill="#CE726F"/>
<path d="M88.1543 149.539C87.4338 149.518 86.775 148.868 86.7551 148.143C86.7415 147.531 87.2284 146.984 87.8505 146.996C87.8684 146.998 87.8661 147.025 87.8497 147.027C87.3232 147.158 87.0098 147.74 87.3062 148.226C87.3551 148.306 87.4189 148.38 87.4947 148.441C87.4972 148.371 87.4982 148.297 87.5283 148.22C87.6943 147.801 88.1784 147.661 88.578 147.83C89.5363 148.245 89.1445 149.565 88.1543 149.539ZM88.0837 148.587C88.1188 148.556 88.1158 148.549 88.0711 148.566C88.074 148.574 88.077 148.581 88.0799 148.589L88.0837 148.587Z" fill="#CE726F"/>
<path d="M90.0303 147.139C89.8486 147.116 89.6463 146.997 89.5828 146.815C89.4987 146.581 89.4779 146.343 89.5949 146.116C89.6421 146.028 89.6982 145.962 89.7625 145.907C89.7156 145.886 89.6672 145.862 89.6173 145.856C89.2881 145.81 89.0577 146.1 88.9859 146.387C88.9497 146.535 88.6987 146.501 88.688 146.354C88.6112 145.474 89.4745 144.886 90.2895 145.167C90.7405 145.325 91.0842 145.724 91.0744 146.211C91.0621 146.769 90.5942 147.2 90.0326 147.133L90.0303 147.139ZM90.6179 146.573C90.6179 146.573 90.612 146.559 90.6128 146.55C90.6083 146.56 90.6052 146.574 90.6007 146.585C90.5498 146.674 90.5557 146.667 90.6194 146.577L90.6179 146.573Z" fill="#CE726F"/>
<path d="M87.5929 150.759C87.8365 150.774 88.011 150.964 88.0049 151.221C88.0056 151.234 87.9996 151.241 88.0003 151.253C88.1898 151.644 88.1378 152.036 87.9302 152.416C87.7697 152.708 87.2974 152.671 87.1179 152.436C86.8686 152.112 86.7706 151.559 86.9336 151.175C86.9269 151.169 86.9187 151.159 86.9135 151.157C86.4865 150.951 86.0846 151.473 86.0863 151.847C86.0855 151.878 86.0363 151.885 86.0259 151.858C85.7904 151.209 86.3814 150.5 87.0631 150.554C87.2597 150.571 87.4405 150.646 87.5966 150.757L87.5929 150.759Z" fill="#CE726F"/>
<path d="M85.1953 154.915C84.8889 154.98 84.6665 155.302 84.7437 155.616C84.801 155.848 85.0203 155.999 85.2407 156.075C85.2733 155.907 85.3893 155.753 85.5393 155.664C85.602 155.626 85.7305 155.329 85.8104 155.258C85.9457 155.131 86.107 155.037 86.2919 155.003C86.7236 154.927 87.1131 155.213 87.2235 155.622C87.3685 156.152 87.0792 156.664 86.6372 156.921C86.681 156.977 86.7143 157.05 86.6813 157.119C86.6197 157.247 86.5158 157.366 86.4171 157.465C86.3872 157.499 86.3595 157.527 86.3281 157.557C86.4553 157.856 86.4324 158.223 86.1925 158.456C85.9779 158.667 85.6427 158.648 85.4467 158.415C85.2671 158.201 85.2385 157.846 85.3079 157.585C85.3064 157.582 85.3124 157.575 85.3147 157.57C85.2251 157.605 85.1385 157.648 85.0907 157.702C85.0525 157.747 84.9736 157.722 84.979 157.659C85.0071 157.294 85.3036 157.073 85.6263 157.071C85.636 157.063 85.6442 157.051 85.654 157.043C85.0822 156.885 84.5294 156.405 84.4561 155.816C84.4003 155.36 84.688 154.866 85.1858 154.88C85.2036 154.882 85.205 154.907 85.1849 154.911L85.1953 154.915ZM86.1015 156.015C86.1068 155.996 86.1135 155.98 86.1151 155.962C86.0763 155.973 86.0747 155.991 86.0978 156.016L86.1015 156.015Z" fill="#CE726F"/>
<path d="M81.9356 157.048C81.9902 156.543 82.3347 156.04 82.8446 155.954C83.2979 155.878 83.7522 156.186 83.8468 156.632C83.9445 157.064 83.7402 157.529 83.3847 157.786C83.2136 157.91 83.0078 157.979 82.7998 158.009C82.7004 158.075 82.5722 158.099 82.4405 158.039C82.4197 158.03 82.4034 158.011 82.3862 158C82.0832 157.944 81.8087 157.785 81.6443 157.5C81.3338 156.967 81.5703 156.213 82.1545 155.999C82.1694 155.993 82.1857 156.012 82.17 156.027C81.8518 156.27 81.7638 156.745 81.9371 157.052L81.9356 157.048ZM82.858 157.067C82.8385 157.105 82.825 157.136 82.819 157.164C82.8616 157.109 82.8991 157.051 82.9366 156.971C82.9052 157.001 82.8776 157.029 82.8543 157.068L82.858 157.067Z" fill="#CE726F"/>
<path d="M91.6111 151.51C91.2868 151.781 90.7935 151.778 90.5332 151.415C90.2469 151.019 90.4401 150.515 90.6552 150.132C90.5339 150.098 90.4057 150.102 90.2886 150.144C90.1319 150.206 90.0442 150.344 89.8921 150.396C89.8212 150.424 89.7595 150.388 89.7388 150.314C89.6675 150.036 89.9814 149.76 90.1956 149.637C90.5084 149.457 90.8893 149.427 91.2264 149.569C91.9459 149.871 92.2575 150.974 91.6111 151.51ZM91.0401 150.679C91.0593 150.749 90.9626 150.68 91.0401 150.679Z" fill="#CE726F"/>
<path d="M92.9008 149.1C92.7188 149.142 92.4935 149.02 92.424 148.845C92.2555 148.419 92.1155 147.957 92.3032 147.516C92.3708 147.359 92.4875 147.218 92.625 147.108C92.5149 147.069 92.4024 147.058 92.2838 147.096C92.0727 147.163 91.8917 147.359 91.7102 147.479C91.6953 147.485 91.6797 147.478 91.685 147.459C91.9476 146.694 92.7366 146.485 93.3491 146.942C93.5046 146.997 93.5982 147.102 93.632 147.231C94.1372 147.929 93.78 148.89 92.903 149.095L92.9008 149.1Z" fill="#CE726F"/>
<path d="M91.958 159.664C91.3908 160.368 90.1823 160.117 89.701 159.436C89.4266 159.048 89.4411 158.05 90.1115 158.108C90.1346 158.112 90.1501 158.14 90.1307 158.157C89.7716 158.601 89.9512 159.044 90.3866 159.173C90.3785 159.142 90.3705 159.11 90.3661 159.078C90.3138 158.662 90.5491 158.276 90.94 158.13C91.8853 157.781 92.5402 158.933 91.9528 159.662L91.958 159.664Z" fill="#CE726F"/>
<path d="M86.6944 160.127C86.6886 160.068 86.6843 160.014 86.6927 159.959C86.729 159.582 87.0139 159.266 87.3934 159.211C87.7639 159.155 88.1798 159.344 88.291 159.723C88.4207 160.159 88.1437 160.571 87.7741 160.782C87.1963 161.11 86.2659 161.017 86.0089 160.325C85.8494 159.9 86.0491 159.217 86.5767 159.198C86.6058 159.195 86.628 159.229 86.5989 159.254C86.2947 159.521 86.3281 160.008 86.6906 160.128L86.6944 160.127Z" fill="#CE726F"/>
<path d="M84.5841 159.223C85.4274 159.51 85.1676 160.554 84.4974 160.867C83.9474 161.124 83.1633 160.964 82.9395 160.345C82.7816 159.903 82.9972 159.368 83.4618 159.245C83.5394 159.223 83.5837 159.334 83.524 159.38C83.2192 159.613 83.3005 160.025 83.5996 160.148C83.5104 159.64 84.014 159.026 84.5878 159.222L84.5841 159.223Z" fill="#CE726F"/>
<path d="M90.3684 154.812C90.0526 155.464 89.1328 155.768 88.5089 155.381C87.9549 155.039 87.7815 154.318 88.1246 153.768C88.1935 153.658 88.378 153.732 88.3582 153.856C88.3073 154.153 88.4812 154.516 88.7214 154.675C88.5481 154.118 88.7182 153.403 89.303 153.223C90.2227 152.941 90.7031 154.11 90.3632 154.81L90.3684 154.812Z" fill="#CE726F"/>
<path d="M94.0312 152.662C93.7534 152.647 93.6052 152.382 93.603 152.137C93.6033 151.615 93.7626 150.753 94.3562 150.639C94.2911 150.496 94.1864 150.374 94.0294 150.315C93.8307 150.239 93.6612 150.345 93.463 150.345C93.416 150.347 93.3708 150.287 93.3798 150.244C93.4435 149.926 93.8521 149.846 94.1359 149.876C94.5769 149.921 94.9178 150.248 95.0909 150.641C95.4643 151.486 95.1168 152.711 94.0312 152.662Z" fill="#CE726F"/>
<path d="M97.0994 157.891C96.8772 158.169 96.4877 158.319 96.1378 158.22C95.6666 158.087 95.6479 157.659 95.6575 157.236C95.6655 156.853 95.7994 156.472 96.1072 156.225C96.152 156.186 96.2051 156.156 96.2581 156.126C96.0695 155.912 95.7853 155.783 95.5122 155.9C95.4973 155.906 95.4861 155.888 95.4944 155.876C95.809 155.385 96.4593 155.425 96.8418 155.813C97.3186 156.298 97.5625 157.327 97.1046 157.893L97.0994 157.891Z" fill="#CE726F"/>
<path d="M94.4502 155.06C94.5556 155.174 94.5939 155.314 94.5704 155.44C94.6489 156.03 94.2079 156.671 93.5868 156.77C93.3237 156.814 93.0821 156.629 93.0323 156.373C92.9406 155.934 93.0048 155.443 93.3375 155.117C93.3652 155.088 93.3958 155.068 93.4287 155.042C93.3877 155.036 93.3467 155.031 93.311 155.028C93.1352 155.02 93.0021 155.142 92.8359 155.147C92.8285 155.15 92.8218 155.144 92.8174 155.133C92.7452 154.864 93.1692 154.648 93.3713 154.603C93.7076 154.526 94.0902 154.642 94.3204 154.896C94.3515 154.931 94.3678 154.972 94.3967 155.012C94.4153 155.026 94.4339 155.041 94.4525 155.055L94.4502 155.06Z" fill="#CE726F"/>
<path d="M95.0766 160.967C94.8764 161.344 94.5359 161.781 94.054 161.73C93.6346 161.685 93.4079 161.308 93.3838 160.921C93.3512 160.424 93.6538 159.718 94.1271 159.452C93.7516 159.234 93.6191 159.619 93.3393 159.73C93.3207 159.737 93.2976 159.734 93.2828 159.718C93.1135 159.53 93.3156 159.256 93.4695 159.122C93.7169 158.907 94.0584 158.832 94.3711 158.924C95.2391 159.176 95.4613 160.249 95.0729 160.968L95.0766 160.967Z" fill="#CE726F"/>
<path d="M90.6044 162.958C90.3571 162.694 90.3602 162.222 90.4797 161.903C90.5361 161.751 90.6349 161.608 90.7524 161.48C90.6697 161.478 90.5884 161.48 90.5273 161.5C90.5161 161.504 90.5049 161.487 90.5132 161.475C90.6794 161.241 90.8318 161.124 91.1291 161.123C91.2014 161.121 91.2744 161.13 91.3436 161.142C91.7447 161.087 92.1524 161.266 92.192 161.704C92.1984 161.774 92.1817 161.863 92.113 161.907C92.113 161.907 92.1093 161.909 92.1056 161.91C92.1794 162.347 91.9736 162.83 91.5661 163.043C91.2623 163.203 90.8516 163.223 90.6029 162.955L90.6044 162.958Z" fill="#CE726F"/>
<path d="M97.9359 153.084C97.8213 153.47 97.4963 153.75 97.1018 153.833C96.3204 153.996 95.6614 153.411 95.6438 152.636C95.6352 152.32 95.7118 151.915 95.9332 151.667C96.0828 151.5 96.3557 151.448 96.4592 151.688C96.4651 151.702 96.4457 151.719 96.4308 151.703C96.1762 151.649 96.0455 151.722 96.0381 151.932C96.0275 151.992 96.0221 152.055 96.0204 152.116C96.0154 152.256 96.0284 152.398 96.0689 152.533C96.0999 152.633 96.1502 152.738 96.2125 152.83C96.2707 152.345 96.7325 151.963 97.2189 152.004C97.7344 152.041 98.0746 152.606 97.9336 153.089L97.9359 153.084Z" fill="#CE726F"/>
<path d="M96.6823 148.677C96.9962 148.402 97.4526 148.497 97.7012 148.809C98.2548 149.509 97.5817 150.457 96.7785 150.434C96.1154 150.417 95.4689 149.874 95.4362 149.192C95.4125 148.697 95.8497 148.101 96.3907 148.301C96.4153 148.308 96.4174 148.346 96.3913 148.356C95.9675 148.529 95.7363 149.035 96.1338 149.373C96.1843 149.414 96.2461 149.45 96.31 149.481C96.3289 149.18 96.4506 148.877 96.6771 148.675L96.6823 148.677Z" fill="#CE726F"/>
<path d="M96.4249 146.306C96.9368 146.988 96.3008 147.78 95.5454 147.747C95.1579 147.727 94.8091 147.533 94.5089 147.298C94.2071 147.06 94.0712 146.923 94.1791 146.531C94.2402 146.304 94.3802 146.102 94.638 146.099C94.8057 146.097 94.9388 146.183 94.9733 146.346C94.9836 146.394 94.9201 146.419 94.8927 146.382C94.8309 146.368 94.7728 146.352 94.7095 146.334C94.6229 146.398 94.5839 146.474 94.5955 146.569C94.5901 146.61 94.5975 146.65 94.601 146.692C94.7565 146.769 94.9128 146.836 95.078 146.883C95.0246 146.149 95.9346 145.646 96.4235 146.302L96.4249 146.306Z" fill="#CE726F"/>
<path d="M87.6799 164.009C86.8395 163.751 86.6217 162.896 86.9498 162.166C86.9566 162.15 86.9871 162.151 86.9833 162.174C86.8752 162.632 87.2765 163.198 87.7366 163.292C87.6703 163.059 87.6712 162.8 87.7591 162.596C88.0032 162.003 88.7095 161.814 89.2751 162.022C89.5125 162.109 89.6012 162.333 89.6064 162.564C89.6135 163.105 89.2744 163.589 88.8137 163.853C88.7846 163.878 88.7488 163.896 88.7167 163.913C88.6906 163.924 88.6644 163.934 88.6383 163.944C88.6383 163.944 88.6383 163.944 88.6346 163.946C88.3354 164.073 88.0044 164.109 87.6851 164.011L87.6799 164.009Z" fill="#CE726F"/>
<path d="M94.3549 163.557C93.9237 163.918 93.17 163.802 92.7261 163.521C92.5023 163.381 92.3458 163.171 92.4108 162.899C92.4531 162.722 92.5803 162.564 92.771 162.566C92.8016 162.567 92.8194 162.59 92.832 162.611C92.8349 162.619 92.8416 162.625 92.8409 162.634C92.8195 162.776 92.7366 162.839 92.8763 162.952C92.9097 162.982 92.9649 162.99 93.014 163.005C92.9892 162.627 93.2469 162.209 93.68 162.137C94.4808 162.001 94.9818 163.037 94.3526 163.563L94.3549 163.557Z" fill="#CE726F"/>
<path d="M97.6436 158.97C97.6994 158.991 97.7522 159.005 97.8088 159.038C98.0036 159.16 98.0116 159.441 97.8992 159.615C97.8828 159.639 97.864 159.668 97.8453 159.697C97.8628 159.807 97.8699 159.912 97.8763 160.004C97.887 160.38 97.7032 160.755 97.2976 160.82C96.892 160.886 96.6047 160.564 96.5397 160.193C96.4673 159.781 96.6693 159.3 96.9957 159.067C96.9427 158.868 96.8464 158.69 96.6501 158.794C96.4934 158.877 96.421 159.131 96.2805 159.255C96.273 159.258 96.2604 159.259 96.2574 159.251C96.0695 158.842 96.438 158.269 96.9073 158.321C97.2551 158.36 97.4904 158.638 97.6413 158.975L97.6436 158.97Z" fill="#CE726F"/>
<path d="M99.1876 153.999C99.1876 153.999 99.1921 154.01 99.1935 154.014C99.4415 154.063 99.5664 154.367 99.4882 154.584C99.4762 154.619 99.456 154.644 99.4373 154.673C99.4482 154.733 99.4592 154.794 99.4687 154.85C99.5213 155.179 99.5022 155.523 99.3447 155.823C99.1895 156.118 98.8684 156.331 98.5268 156.199C98.2009 156.073 98.0545 155.726 98.0504 155.399C98.0462 155.073 98.1382 154.76 98.312 154.48C98.3585 154.401 98.4093 154.333 98.4632 154.273C98.4505 154.274 98.4453 154.272 98.4312 154.269C98.3 154.264 98.1712 154.255 98.0415 154.255C97.9536 154.251 97.8907 154.124 97.9542 154.056C98.2818 153.706 98.8478 153.555 99.1862 153.995L99.1876 153.999Z" fill="#CE726F"/>
<path d="M92.5874 152.591C93.0326 152.92 93.0438 153.58 92.67 153.965C92.332 154.311 91.7613 154.308 91.4885 153.881C91.3788 153.713 91.3548 153.511 91.3771 153.317C91.2001 153.218 91.0942 153.006 91.1761 152.809C91.3924 152.288 92.183 152.289 92.5874 152.591Z" fill="#CE726F"/>
<path d="M91.1181 155.681C91.1799 155.695 91.2035 155.755 91.1922 155.803C91.5586 155.856 91.8741 156.227 91.8474 156.618C91.8121 157.15 91.2352 157.426 90.7648 157.262C89.8769 156.949 90.1344 155.475 91.1181 155.681Z" fill="#CE726F"/>
<path d="M86.3793 154.265C85.8913 154.471 85.3543 154.162 85.292 153.634C85.2768 153.497 85.2966 153.373 85.3372 153.258C85.4203 152.694 86.0746 152.439 86.5681 152.813C87.0921 153.21 86.9762 154.007 86.3815 154.26L86.3793 154.265Z" fill="#CE726F"/>
<path d="M85.4911 148.678C85.3832 148.405 85.4201 148.063 85.7513 147.962C85.7662 147.956 85.7811 147.95 85.7961 147.944C86.0795 147.853 86.2872 147.909 86.4967 148.111C87.2498 148.836 86.0976 150.492 85.3486 149.615C85.1148 149.34 85.1321 148.85 85.4874 148.679L85.4911 148.678Z" fill="#CE726F"/>
<path d="M82.429 154.807C82.5229 153.911 83.9136 154.055 83.8197 154.951C83.7258 155.847 82.3351 155.703 82.429 154.807Z" fill="#CE726F"/>
<path d="M81.4498 158.622C81.5437 157.726 82.9344 157.87 82.8405 158.766C82.7466 159.662 81.3559 159.518 81.4498 158.622Z" fill="#CE726F"/>
<path d="M92.1319 145.067C92.2204 144.212 93.5485 144.351 93.46 145.206C93.3715 146.061 92.0433 145.923 92.1319 145.067Z" fill="#CE726F"/>
<path d="M90.1228 148.026C90.2044 147.229 91.4416 147.356 91.36 148.153C91.2784 148.949 90.0411 148.822 90.1228 148.026Z" fill="#CE726F"/>
<path d="M99.3198 151.021C99.215 152.042 97.6239 151.882 97.7309 150.856C97.8357 149.835 99.4268 149.994 99.3198 151.021Z" fill="#CE726F"/>
<path d="M88.2699 158.449C88.1187 158.427 87.9625 158.338 87.9071 158.187C87.7224 157.699 87.6282 157.145 87.9419 156.684C87.9502 156.672 87.9621 156.659 87.9704 156.647C87.7139 156.675 87.4446 156.791 87.3877 157.072C87.3839 157.095 87.3504 157.087 87.3542 157.064C87.4531 156.671 87.6797 156.447 88.072 156.326C88.2958 156.259 88.568 156.195 88.8205 156.211C88.8473 156.213 88.8727 156.212 88.8972 156.22C89.0753 156.244 89.2367 156.314 89.3569 156.465C89.9899 157.246 89.2582 158.58 88.2684 158.445L88.2699 158.449ZM88.8007 157.251C88.7671 157.264 88.7417 157.287 88.7215 157.312C88.693 157.349 88.6765 157.395 88.6718 157.448C88.7272 157.392 88.7706 157.327 88.8007 157.251Z" fill="#CE726F"/>
<path d="M88.7922 160.465C88.8599 159.83 89.8491 159.93 89.7829 160.569C89.7152 161.204 88.726 161.104 88.7922 160.465Z" fill="#CE726F"/>
<path d="M93.7771 157.817C93.704 158.515 92.6239 158.403 92.697 157.705C92.7701 157.007 93.8502 157.119 93.7771 157.817Z" fill="#CE726F"/>
<path d="M90.1862 152.032C90.0961 152.905 88.7337 152.767 88.8275 151.892C88.9176 151.019 90.28 151.157 90.1862 152.032Z" fill="#CE726F"/>
<path d="M95.3169 153.478C95.2337 154.292 93.9659 154.164 94.0514 153.345C94.1346 152.531 95.4024 152.659 95.3169 153.478Z" fill="#CE726F"/>
<path d="M95.3983 157.235C95.3167 158.01 94.1115 157.887 94.1916 157.109C94.2731 156.334 95.4783 156.457 95.3983 157.235Z" fill="#CE726F"/>
<path d="M99.0597 157.283C99.0546 157.444 99.0013 157.582 98.9018 157.712C98.559 158.154 97.8254 158.056 97.6648 157.498C97.5167 156.983 97.9526 156.547 98.4479 156.61C98.7981 156.622 99.0752 156.875 99.0597 157.283Z" fill="#CE726F"/>
<path d="M91.4588 164.156C91.3634 165.07 89.9421 164.926 90.0361 164.008C90.1315 163.094 91.5528 163.239 91.4588 164.156Z" fill="#CE726F"/>
<path d="M84.6397 161.782C84.742 160.809 86.2541 160.966 86.1518 161.938C86.0494 162.911 84.5373 162.755 84.6397 161.782Z" fill="#CE726F"/>
</svg>
