<svg width="100" height="100" viewBox="0 0 100 100" fill="none" xmlns="http://www.w3.org/2000/svg">
<g clip-path="url(#clip0_662_630)">
<path d="M50 9.375C60.7744 9.375 71.1075 13.6551 78.7262 21.2738C86.3449 28.8925 90.625 39.2256 90.625 50C90.625 60.7744 86.3449 71.1075 78.7262 78.7262C71.1075 86.3449 60.7744 90.625 50 90.625C39.2256 90.625 28.8925 86.3449 21.2738 78.7262C13.6551 71.1075 9.375 60.7744 9.375 50C9.375 39.2256 13.6551 28.8925 21.2738 21.2738C28.8925 13.6551 39.2256 9.375 50 9.375ZM50 100C63.2608 100 75.9785 94.7322 85.3553 85.3553C94.7322 75.9785 100 63.2608 100 50C100 36.7392 94.7322 24.0215 85.3553 14.6447C75.9785 5.26784 63.2608 0 50 0C36.7392 0 24.0215 5.26784 14.6447 14.6447C5.26784 24.0215 0 36.7392 0 50C0 63.2608 5.26784 75.9785 14.6447 85.3553C24.0215 94.7322 36.7392 100 50 100ZM34.1797 34.1797C32.3438 36.0156 32.3438 38.9844 34.1797 40.8008L43.3594 49.9805L34.1797 59.1602C32.3438 60.9961 32.3438 63.9648 34.1797 65.7812C36.0156 67.5977 38.9844 67.6172 40.8008 65.7812L49.9805 56.6016L59.1602 65.7812C60.9961 67.6172 63.9648 67.6172 65.7812 65.7812C67.5977 63.9453 67.6172 60.9766 65.7812 59.1602L56.6016 49.9805L65.7812 40.8008C67.6172 38.9648 67.6172 35.9961 65.7812 34.1797C63.9453 32.3633 60.9766 32.3438 59.1602 34.1797L49.9805 43.3594L40.8008 34.1797C38.9648 32.3438 35.9961 32.3438 34.1797 34.1797Z" fill="#FF224A"/>
</g>
<defs>
<clipPath id="clip0_662_630">
<rect width="100" height="100" fill="white"/>
</clipPath>
</defs>
</svg>
