<svg width="234" height="182" viewBox="0 0 234 182" fill="none" xmlns="http://www.w3.org/2000/svg">
<path d="M73.0905 181.46C89.5807 181.46 104.764 175.899 117 166.646C129.24 175.903 144.419 181.46 160.909 181.46C201.183 181.46 233.943 148.701 233.943 108.431C233.943 68.1564 201.184 35.3972 160.909 35.3972C144.419 35.3972 129.236 40.9583 117 50.2105C104.76 40.9541 89.5807 35.3972 73.0905 35.3972C32.8162 35.3976 0.0570068 68.1564 0.0570068 108.431C0.0570068 148.697 32.8162 181.46 73.0905 181.46ZM117 78.9207C122.689 87.3567 126.014 97.5138 126.014 108.431C126.014 119.348 122.689 129.505 117 137.941C111.31 129.505 107.985 119.348 107.985 108.431C107.985 97.5138 111.314 87.3567 117 78.9207ZM160.913 55.5024C190.097 55.5024 213.841 79.2462 213.841 108.431C213.841 137.615 190.097 161.355 160.913 161.355C149.968 161.355 139.787 158.014 131.339 152.3C140.575 140.068 146.124 124.905 146.124 108.431C146.124 91.9565 140.575 76.7892 131.339 64.5578C139.787 58.8437 149.968 55.5024 160.913 55.5024ZM73.0905 55.5024C84.0356 55.5024 94.2167 58.8437 102.665 64.5578C93.4287 76.7896 87.8798 91.9569 87.8798 108.431C87.8798 124.905 93.4287 140.068 102.665 152.3C94.2167 158.014 84.0356 161.355 73.0905 161.355C43.9064 161.355 20.1622 137.615 20.1622 108.431C20.1618 79.2462 43.906 55.5024 73.0905 55.5024Z" fill="#CE726F"/>
<path d="M115.588 6.53054H115.508C115.508 6.53054 104.394 -5.64115 94.6952 3.24941C84.9964 12.14 93.4808 32.6228 115.508 41.5133L115.588 41.5899C137.611 32.6993 146.1 12.14 136.401 3.24983C126.703 -5.64115 115.588 6.53054 115.588 6.53054Z" fill="#D6A09E"/>
</svg>
